<?xml version="1.0" encoding="UTF-8"?>
<!DOCTYPE svg PUBLIC "-//W3C//DTD SVG 1.1//EN" "http://www.w3.org/Graphics/SVG/1.1/DTD/svg11.dtd">
<!-- Creator: CorelDRAW 2019 (64 Bit Versão de avaliação) -->
<svg xmlns="http://www.w3.org/2000/svg" xml:space="preserve" width="210mm" height="210mm" version="1.1" style="shape-rendering:geometricPrecision; text-rendering:geometricPrecision; image-rendering:optimizeQuality; fill-rule:evenodd; clip-rule:evenodd"
viewBox="0 0 21000 21000"
 xmlns:xlink="http://www.w3.org/1999/xlink"
 xmlns:xodm="http://www.corel.com/coreldraw/odm/2003">
 <defs>
  <style type="text/css">
   <![CDATA[
    .fil0 {fill:black}
   ]]>
  </style>
 </defs>
 <g id="Camada_x0020_1">
  <metadata id="CorelCorpID_0Corel-Layer"/>
  <g id="_2473738453664">
   <path class="fil0" d="M16011.49 5188.29c0,263.85 -75.06,414.89 -172.72,673.84 -28.79,76.34 -33.46,146.27 -118.29,146.27 -180.52,0 -72,-387.67 -139.57,-839.27 -88,-588.22 -783.56,-1404.59 -1217.8,-1771.62 -560.52,-473.77 -1325.94,-750.84 -2061.79,-901.16 -155.49,-31.76 -272.24,-45.98 -440.85,-61.8 -142.49,-13.36 -296.44,-50.49 -452.15,-50.49 -254.93,0 -155.52,105.82 -661.38,105.82 -224.4,0 -153.21,-255.92 -1501.49,32.9 -701.28,150.22 -1442.41,467.34 -1982.87,927.19 -62.15,52.88 -82.47,86.89 -151.15,139.84 -79.45,61.24 -100.69,73.27 -162.91,154.56 -256.83,335.6 -213.65,209.61 -492.29,671.73 -399.16,662.01 -341.3,691.05 -338.88,1433.6 0.15,46.84 5.46,258.76 -5.52,287.67 -40.06,105.53 -122.92,77.01 -172.9,-1.66 -14.82,-23.31 -72.71,-184.26 -82.41,-210.44 -28.69,-77.45 -45.23,-134.64 -73.19,-217.81 -166.1,-494.15 -138.04,-816.93 95.44,-1286.81 382.52,-769.81 764.83,-1088.15 1535.96,-1532.82 523.24,-301.72 916.05,-381.1 1470.14,-566.91 725.44,-243.27 637.27,-153.64 1305.34,-202.59 141.2,-10.35 345.09,-31.84 345.09,-210.46 0,-296.56 -527.18,-0.75 -865.39,-404.45 -50.71,-60.54 -88.33,-121.2 -136.25,-181.21 -49.28,-61.71 -90.51,-112.31 -142,-175.46 -350.06,-429.29 -315.35,-291.67 -845.25,-222.48 -199.69,26.08 -270.55,70.99 -419.25,136.3 -656.21,288.23 -847.89,372.41 -1368.86,800.45 -597.12,490.61 -1587.44,1232.88 -2013.12,1796.41 -614.28,813.22 -565.14,1759.68 -19.38,2578.46 272.54,408.89 522.72,623.06 977,848.39 96.37,47.8 206.94,115.07 303.76,145.98 341.73,109.08 446.18,-278.49 642.61,706.6 100.05,501.79 144.21,1066.67 216.4,1608.99 95.6,718.32 177.21,1145.8 706.76,1541.91 815.89,610.31 1384.7,942.69 2174.64,1476.16 621.32,419.59 782.86,410.27 1529.43,349.59 257.94,-20.96 870.89,-490.94 1145.64,-653.29l1344.8 -903.88c173.62,-128.85 215.41,-141.85 373.01,-288.36 208.17,-193.52 379.92,-325.85 486.78,-650.8 269.61,-819.9 274.13,-2435.19 572.33,-2999.1 144.46,-273.18 199.03,-69.24 642.94,-256.52 168.56,-71.12 451.17,-219.29 572.56,-326.91l331.41 -329.96c484.35,-545.05 641.28,-907.53 641.28,-1660.31 0,-641.83 -513.76,-1400.15 -941.21,-1730.75l-586.37 -498.29c-409.44,-365.12 -1352.3,-1158.95 -1885.11,-1368.85 -134.01,-52.79 -252.11,-107.19 -389.5,-166.06 -1113.66,-477.26 -991.25,-268.03 -1549.5,396.38 -337.41,401.57 -480.85,218.78 -718.99,286.33 -85.96,24.38 -159.16,91.52 -137.29,187.52 36.19,158.85 352.39,161.45 493.55,168.98 844.82,45.04 347.61,-46.9 1143.7,205.51 605.17,191.88 828.13,201.9 1450.4,560.18 570.33,328.37 1095.48,674.51 1418.62,1279.8 107.57,201.49 326.04,742.53 326.04,1023.16z"/>
   <path class="fil0" d="M12440.06 18442.26c0,-438.32 -189.12,-1731.41 -235.68,-2224.64 -23.97,-253.86 -59.89,-494.4 -81.05,-739.06 -21.14,-244.47 -58.09,-506.41 -77.8,-742.3 -22.43,-268.4 -108.45,-1247.97 -223.65,-1416.56 -63.67,-93.18 -143.5,-131.47 -280.91,-142.37 -482.75,-38.3 -802.24,-26.08 -1296.68,-26.08 -208.81,0 -360.42,71.1 -420.33,214.59 -51.13,122.45 -70.58,382.14 -84.6,550.31 -90.88,1089.74 -299.81,2387.4 -395.27,3493.63 -95.43,1105.97 -376.54,1429.31 953.11,1429.3 451.92,0 1479.32,64.01 1823.17,-55.14 116.66,-40.43 319.69,-194.43 319.69,-341.68z"/>
   <path class="fil0" d="M17069.69 6749.14c0,477.17 8.97,392.8 196.51,861.69 408.02,1020.17 792.59,1924.78 1182.98,2970.46 547.28,1465.95 773.33,2350.74 1083.75,3889.79 97.76,484.7 121.62,1394.31 128.3,1935.2l34.52 812.03c21.13,167.28 -11.01,298.02 151.72,298.02 333.96,0 277.06,-3253.4 231.19,-3617.43 -80.56,-639.29 -933.73,-4048.2 -1169.46,-4756.47 -138.52,-416.17 -289.59,-672.84 -445.03,-1036.44 -81.33,-190.23 -149.3,-321.52 -239.28,-501.47 -115.68,-231.38 -630.56,-1375.74 -879.82,-1321.73 -141.37,30.64 -275.38,235.49 -275.38,466.35z"/>
   <path class="fil0" d="M6143.77 14685.64c0,321.45 6.83,305.85 275.71,650.22 118.33,151.54 220.47,277.18 341.06,426.13l1188.3 1483.66c64.84,78.79 107.95,145.24 172.94,223.89l487.82 649.74c78.94,97.46 92.21,131.55 232.58,164.25 235.41,-204.63 197.55,-480.98 245.59,-865.52l98.32 -1039.24c8.18,-326.95 106.13,-724.67 -17.99,-987.31 -57.33,-121.31 -401.05,-530.89 -504.37,-633.19 -438.52,-434.14 -864.05,-484.16 -1507.08,-741.6 -525.15,-210.25 -982.32,-526.19 -986.76,113.08 -1.33,190.68 -26.12,334.19 -26.12,555.89z"/>
   <path class="fil0" d="M1593.5 14421.09c0,242.37 -64.51,3015.88 238.1,3015.88 163.81,0 131.56,-105.41 131.66,-291.62l53.52 -1189.87c-0.78,-1250.26 412.89,-3025.5 803.63,-4196.36 328.25,-983.59 731.32,-2052.32 1123.83,-3003.16 84.45,-204.58 166.52,-387.56 249.38,-597.18 81.56,-206.34 155.61,-373.34 234.57,-585.54 119.62,-321.47 181.18,-371.86 181.18,-771.19 0,-219.25 -207.2,-859.94 -626.7,-150.52 -90.35,152.81 -169.05,286.08 -246.33,441.5 -239.9,482.44 -701.2,1400.63 -849.92,1848.5l-621.11 2077.29 -497.69 2200.73c-93.61,478.47 -174.12,630.85 -174.12,1201.54z"/>
   <path class="fil0" d="M12466.52 15558.66c0,605.55 43.84,955.07 101.61,1512.14 35.14,338.79 27.42,1186.27 321.67,1186.27 119.01,0 596.98,-702.05 687.54,-820.39l1338.06 -1677.81c120.39,-153.28 219.89,-273.63 340.33,-426.87 467.58,-594.93 268.55,-494.29 252.88,-1148.77 -3.14,-131.02 4.12,-233.09 -48.31,-322.08 -129.35,-219.53 -330.75,-73.82 -510.78,0.62 -796.79,329.47 -1598.64,457.96 -2018,997.87 -62.99,81.1 -114.02,129.85 -182.34,214.48 -81.1,100.47 -282.66,334.73 -282.66,484.54z"/>
   <path class="fil0" d="M16725.78 9500.46c0,315.72 320.59,1359.03 434.45,1761.31 325.17,1148.89 645.85,2385.4 816.87,3574.66 103.22,717.72 203.7,1280.33 203.7,2097.89 0,607.62 -52.91,1185.91 -52.91,1851.85 0,89.8 46.45,79.37 132.28,79.37 100.03,0 114.87,-182.06 129.11,-267.72l199.51 -1863.97c21.95,-145.34 4.71,-261.39 16.68,-406.6 57.34,-695.33 -2.16,-673.87 -78.57,-1352.78l-248.21 -1894.65c-101.22,-700.19 -170.45,-1117.46 -341.32,-1801.54 -94.9,-379.96 -246.63,-858.98 -391.49,-1222.27l-298.24 -786.41c-66.42,-171.5 -106.52,-218.45 -257.31,-298.24 -197.01,104.24 -264.55,221.58 -264.55,529.1z"/>
   <path class="fil0" d="M3445.35 18891.99c150.12,0 105.82,-50.37 105.82,-502.64 0,-501.99 -52.91,-909.31 -52.91,-1402.12 0,-1691.71 527.74,-3972.13 990.27,-5597.03 69.52,-244.24 464.76,-1537.64 464.76,-1757.47l0 -211.64c0,-88.19 -189.83,-950.37 -612.62,101.68 -145.56,362.21 -289,765.36 -415.76,1145.08 -374.25,1121.07 -686.78,3368.98 -799.31,4703.33 -17.21,203.98 -63.59,521.92 -50.83,743.08l94.52 1466.49c52.65,368.18 72.91,696.45 140.95,1049.53 19.3,100.15 29.89,261.71 135.11,261.71z"/>
   <path class="fil0" d="M5720.49 10267.66c0,179.32 42.74,283.01 88.55,440.55 165.23,568.3 303.64,1015.52 403.09,1607.49 117.34,698.57 -125.49,899.42 801.29,1235.74l1131.28 403.11c260.45,88.66 495.95,165.56 641.48,363.81 192.63,262.43 241.2,529.62 452.82,578.92 112.94,-75.62 113.27,-96.35 134.62,-262.21 14.16,-110.09 35.13,-271.93 46.12,-377.16 125.97,-1206.31 160.65,-1042.63 -800.27,-1254.32 -140.08,-30.86 -234.55,-44.32 -374.88,-74.86 -230.91,-50.25 -424.88,-143.64 -598.2,-248.36 -363,-219.33 -684.81,-423.71 -966.19,-753.38 -103.93,-121.77 -313.1,-696.89 -387.5,-908.8 -44.6,-127.03 -79.03,-180.85 -126.18,-297.09 -61.27,-151.04 -208.75,-532.81 -366.67,-532.81 -60.96,0 -79.36,18.41 -79.36,79.37z"/>
   <path class="fil0" d="M12201.97 13415.8c0,440.04 76.23,774.91 106.7,1216.05 10.71,155.16 44.61,232.89 184.3,265.43 176.52,-118.2 269.5,-387.64 407.4,-571.44 175.04,-233.3 343.26,-262.91 641.15,-364.13 253.7,-86.2 486.16,-174.68 735.2,-270.1 1502.68,-575.7 946.12,-437.32 1247.99,-1741.42 74.67,-322.61 407.41,-1397.61 407.41,-1603.17 0,-81.45 -36.65,-79.36 -105.82,-79.36 -97.37,0 -147.63,162.29 -185.21,238.07 -175.34,353.64 -238.65,530.2 -374.12,895.72 -205.7,555.04 -302.07,628.9 -736.94,956.17 -321.19,241.72 -662.62,455.47 -1122.73,570.4 -526.22,131.43 -1205.33,113.87 -1205.33,487.78z"/>
   <path class="fil0" d="M4027.36 17542.79c0,394.35 48.16,1266.57 114.95,1657.54 23.61,138.22 17.31,141.4 149.6,141.4 150.32,0 52.91,-322.55 52.91,-634.92 0,-1247.78 93.31,-2074.83 396.81,-3280.45l491.51 -1836.53c34.24,-120.97 334.35,-1073.5 -41.76,-1073.5 -141.85,0 -230.58,325.37 -291,476.19 -572.26,1428.43 -604.5,2330.45 -808.77,3820.87 -33.07,241.31 -64.25,478.68 -64.25,729.4z"/>
   <path class="fil0" d="M16302.5 12860.25c0,319.33 582.78,2189.8 690.3,2722.39 172.18,852.83 268.68,1333.92 340.05,2199.63l27.85 845.17c0,153.11 -14.26,201.96 -25.55,319.33 -22.57,234.81 -8.33,262.68 131.37,262.68 94.81,0 74.99,-63.3 86.14,-151.95l74.88 -692.31c13.31,-157.85 20.77,-286.05 23.11,-479.54 2.11,-175.06 47.46,-264.71 20.49,-468.05 -131.46,-990.98 -272.57,-2613.55 -545.17,-3502.52 -78.78,-256.88 -426.3,-1398.75 -638.29,-1398.75 -133.6,0 -185.18,195.92 -185.18,343.92z"/>
  </g>
 </g>
</svg>
