<?xml version="1.0" encoding="UTF-8"?>
<!DOCTYPE svg PUBLIC "-//W3C//DTD SVG 1.1//EN" "http://www.w3.org/Graphics/SVG/1.1/DTD/svg11.dtd">
<!-- Creator: CorelDRAW 2019 (64 Bit Versão de avaliação) -->
<svg xmlns="http://www.w3.org/2000/svg" xml:space="preserve" width="210mm" height="210mm" version="1.1" style="shape-rendering:geometricPrecision; text-rendering:geometricPrecision; image-rendering:optimizeQuality; fill-rule:evenodd; clip-rule:evenodd"
viewBox="0 0 21000 21000"
 xmlns:xlink="http://www.w3.org/1999/xlink"
 xmlns:xodm="http://www.corel.com/coreldraw/odm/2003">
 <defs>
  <style type="text/css">
   <![CDATA[
    .fil0 {fill:black}
   ]]>
  </style>
 </defs>
 <g id="Camada_x0020_1">
  <metadata id="CorelCorpID_0Corel-Layer"/>
  <g id="_1992007939904">
   <path class="fil0" d="M11159.9 11259.08l0 0zm47.76 -95.47l-47.76 95.47 47.76 -95.47zm0 0l326.81 -914.29c45.21,-155.65 37.73,-196.46 150.52,-279.13 383.52,280.98 -468.92,1187.78 -477.33,1193.42zm-1241.14 -954.72c121.09,-453.53 932.69,-525.09 1336.61,-525.09 -128.11,174.83 -62.65,53.93 -310.42,119.24 -333.21,87.84 -510.01,405.85 -1026.19,405.85zm-2577.79 -1241.13l47.76 95.43c169.04,243.3 204.72,692.48 266.21,1022.69 165.76,890.48 109.98,1386.37 814.88,1762.87 481.23,257.03 1152.79,753.15 1616.17,1009.33 213.44,118.05 961.65,118.93 1181.53,-11.53 279.6,-165.88 520.74,-327.08 796.71,-492.19 139.3,-83.36 262.47,-156.54 412.91,-255.41 1029.4,-676.31 952.36,-631.25 1156.5,-2137.29 133.71,-986.46 570.85,-1222.5 498.67,-2061.87 -57.32,-666.17 -640.12,-1268.8 -1109.98,-1510.55 -593.56,-305.37 -1199.2,-524.36 -2101.14,-524.36l0 143.23 -429.62 0c-27.81,-254.25 -268.87,-228.21 -649.23,-172.01 -280.56,41.47 -475.21,62.19 -718.36,141.03 -247.88,80.4 -394.86,136.64 -604.94,254.26 -509.7,285.34 -1095.47,714.07 -1280.99,1296.84 -201.25,632.25 80.28,1167.38 102.92,1439.53z"/>
   <path class="fil0" d="M5670.22 16032.71c0,1977.63 733.91,1782.47 -44.78,1816.19 -1031.75,44.71 -1696.18,-66.89 -2578.83,-576.9 -157.93,-91.23 -311.89,-266.68 -526.95,-284.57 58.79,220.26 438.84,441.73 629.68,563.7 250.43,160.09 487.09,290.86 769.97,423.45 1625.97,762.18 3880.14,545.58 5324.42,-516.53 142.61,-104.85 221.27,-139.84 352.89,-267.68 75.8,-73.64 253.36,-250.66 369.9,-250.66 1611.19,0 1237.32,-129.73 1738.49,266.4 389.97,308.26 663.85,498.25 1141.31,720.4 1661.42,773.14 3762.37,645.68 5283.83,-365.46 117.2,-77.89 225.05,-156.23 334.45,-238.4 121.79,-91.5 240.29,-166.42 285.39,-335.22 -196.7,16.35 -183.62,74.52 -343.13,182 -1088.38,733.17 -1889.71,677.27 -3046.18,677.27 73.64,-275.82 79.47,-47.02 227.06,-775.45 261.35,-1289.74 -54.2,-3010.22 -575.86,-4174.47 -79.89,-178.22 -88.68,-252.21 -271.76,-301.09 -256.38,382.87 18.78,882.62 132.97,1251.4 262.2,847.12 535.35,1888.75 535.35,2806.19 0,445.9 -95.47,773.1 -95.47,1145.66 -487.14,0 -1287.93,-379.16 -1604.6,-591.29 -301.32,-201.86 -1026.46,-790.41 -1116.38,-1127.22 331.4,-494.89 1527.56,-1604.05 1527.56,-1813.95l-47.72 -859.27c-206.34,4.59 -199.32,31.17 -336.11,93.51 -654.48,298.23 -1059.41,184.43 -1514.37,681.52 -510.94,558.23 -405.74,472.43 -348.99,1185.81 50.07,629.56 106.89,506.27 -44.14,616.91l-381.9 -2911.89c-1728.77,0 -1539.78,-166.23 -1618.67,672.64 -28.12,299.16 -73.14,587.09 -95.71,859.05l-130.31 1254.02c-32.32,264.24 47.18,261.73 -160.24,317.13 0,-657.29 240.36,-1359.84 -11.38,-1659.38 -62.88,-74.83 -87.84,-84.25 -159.16,-174.98 -73.88,-93.97 -66.66,-95.28 -150.49,-183.69 -388.92,-410.26 -667.32,-336.23 -1316.28,-593.15 -178.8,-70.78 -296.84,-152.72 -510.82,-157.5 -19.1,857.31 -326.35,751.3 680.24,1754.31 119.82,119.43 738.31,751.49 751.85,871.19 25.15,221.89 -777.69,933.58 -1068.55,1127.3 -351.27,233.89 -1098.79,596.85 -1604.68,638.93 0,-366.2 -95.47,-722.33 -95.47,-1288.85 0,-817.15 298.23,-1837.29 524.59,-2626.05 111.68,-389.11 406.97,-895.18 143.73,-1288.35 -177.02,47.26 -176.71,96.13 -256.76,268.33 -63.76,137.26 -121.28,286.08 -166.07,406.79 -95.66,257.68 -199.74,547.19 -265.09,832.85 -99.25,434.09 -266.83,1511.16 -266.83,1929.05z"/>
   <path class="fil0" d="M12019.17 1711.81c99.84,136.29 540.26,245.07 993.33,534.24 197.43,125.99 264.21,196.27 432.09,331.71 689.58,556.5 1295.53,1636.15 1295.53,2523.36l-47.72 1050.18c-183.04,-15.23 -170.74,-51.22 -314.51,-162.86 -600.59,-466.31 -1579.48,-1221.5 -2358.72,-1221.5 -47.67,0 -380.24,355.24 -440.76,418.5 -254.76,266.22 -180.03,202.06 -657.18,202.06 -162.09,695.83 471.9,-153.95 2196.04,715.89 429.74,216.8 536.63,276.09 871.27,608.54 750.42,745.51 520.85,1101.22 288.13,1696.9 -265.64,679.94 -522.16,1058.79 377.65,520.85 118.86,-71.01 215.26,-117.46 313.51,-211.58 122.67,-117.54 125.02,-181.7 297.38,-227.72 -185.67,797.06 356.48,1506.96 750.57,2495.51l796.59 2115.3c163.44,715.46 518.92,2692.55 266.82,3217.95l143.24 0c11.96,-143.66 47.87,-209.85 75.3,-354.32 20.75,-109.44 46.83,-314.31 54.39,-375.26 101.07,-817.27 90.19,-1688.39 -54.24,-2496.51 -71.06,-397.64 -185.24,-651.58 -254.71,-986.42 -97.37,-469.12 -382.6,-1468.35 -584.54,-1850.02 1325.5,29.55 2764.03,1043.21 3326,2259.15 586.62,1269.3 225.16,1920.77 349.69,2180.34 206.65,-151.41 238.7,-909.34 238.7,-1193.42 0,-985.88 -448.48,-2010.1 -988.35,-2735.09 -196.62,-264.05 -392.73,-436.14 -622.07,-666.82 -119.93,-120.63 -206.53,-181.16 -339.85,-280.72 -435.87,-325.5 -673.34,-469.47 -1220.73,-688.69 -547.54,-219.31 -1401.03,-353.7 -1465.99,-395.75 -211.24,-136.75 -23.11,-285.11 -375.35,-292.98 60.22,-258.38 211.78,-510.21 297.5,-800.45 642.25,-2174.17 -357.33,-4304.55 -2204.1,-5408.09 -148.64,-88.84 -1279.14,-697.91 -1434.91,-522.28z"/>
   <path class="fil0" d="M7436.49 9063.19l-47.76 -95.43c-32.44,-37.34 -24.14,-21.14 -58.59,-84.6l-282.84 -719.67c-257.11,-681.75 -73.22,-1020.75 519.38,-1595.57 512.1,-496.7 1724.92,-953.67 2639.2,-888.28 149.1,10.68 334.57,65.62 331.75,-149.68 -3.2,-244.76 -244.53,-99.29 -463.25,-154.84 -127.26,-32.36 -210.43,-161.4 -310.88,-261.97 -115.38,-115.49 -228.99,-176.21 -274.35,-346.21 -667.02,0 -1696.03,576.24 -2183.47,1014.89 -185.05,166.45 -430.47,329.32 -632.99,464.95 -381.94,-1639.51 263.9,-2883.81 1350.69,-3804.84 232.34,-196.93 853.07,-558.62 1179.34,-634.65l0 -95.48c-924.24,0 -2464.22,1235.28 -3035.02,2168.27 -196.32,320.87 -275.47,492.53 -423.22,865.68 -103.23,260.73 -240.29,769.51 -263.32,1073.25 -31.05,410.06 -12.57,901.56 45.21,1239.94 104.2,610.19 189.57,630.99 287.08,1049.53 7.45,-8.56 17.48,-34.52 20.45,-27.19l122.75 -163.76c150.52,646.03 878.48,1155.73 1282.83,1252.87 144.12,34.64 144.43,33.71 197.01,-107.21z"/>
   <path class="fil0" d="M5622.5 8776.81c-628.97,0 -1390.07,262.7 -1814.17,477.14 -1050.88,531.42 -1817.73,1152.95 -2370.87,2259.54 -455.43,911.08 -580.49,1734.36 -448.98,2756.58 56.47,438.96 28.93,381.79 194.53,426.03 0,-502.68 -33.75,-378.35 -2.04,-907.8 80.66,-1347.03 918.8,-2489.6 2086.33,-3070.48 429.93,-213.86 1022.53,-461.21 1639.16,-461.21 -391.81,740.5 -954.71,3106.2 -954.71,3914.4 0,683.18 -6.52,1067.39 108.48,1753.19 20.13,120.13 69.78,242.53 82.43,394.94l143.23 0c-158.23,-329.78 -9.37,-1840.1 53.28,-2190.33 273.23,-1527.25 585.04,-2047.64 1167.99,-3510.16l354.82 -790.85c204.72,-412.02 285.62,-707.78 285.62,-1146.47 0,-155.19 -41.36,-36.03 -95.48,-238.7l-238.67 0c-39,146.08 -116.76,223.35 -190.95,334.18z"/>
   <path class="fil0" d="M14978.82 10543.04c0,579.64 262.9,1059.25 419.82,1632.83 151.3,552.83 276.55,1092.7 433.75,1618.91 305.6,1022.91 295.33,2440.61 53.43,3479.07 258.38,-69.01 305.05,-494.27 378.27,-862.86 242.49,-1220.96 158.31,-1761.83 12.34,-2964.78 -92.5,-762.53 -282.37,-1613.32 -560.97,-2303.2 -120.93,-299.47 -277.32,-834.13 -497.97,-981.87 -117.46,78.65 -238.67,192.1 -238.67,381.9z"/>
   <path class="fil0" d="M4954.18 14743.82c0,444.09 44.36,2401.65 525.13,2530.03 -169.89,-729.08 -96.44,-751.19 -163.64,-1229.45 -58.82,-418.81 -30.51,-481.62 7.91,-849.36 44.52,-425.95 -19.56,-390.15 110.79,-1021.21l637.27 -2370.14c147.9,-506.57 595.92,-1294.37 75.96,-1642.55 -435.18,291.44 -974.97,2535.58 -1054.28,3242.02 -48.83,435.13 -139.14,856.69 -139.14,1340.66z"/>
   <path class="fil0" d="M11637.27 13168.54c15.71,188.68 94.09,1091 143.2,1193.38 147.36,-39.35 125.87,-61.53 203.41,-178.49 63.57,-95.94 84.9,-135.52 143.65,-238.2 118.89,-207.81 107.59,-178.8 512.48,-299.04 384.14,-114.11 817.35,-244.07 1158.24,-417.08l125.76 -65.81c224.43,-154.62 78.92,-423.99 232.61,-1055.63 105.5,-433.75 304.98,-751.76 344.83,-1230.49 -157.12,83.17 -69.75,11.46 -158.82,127.61 -567.26,739.88 -266.75,1053.62 -1031.48,1546.27 -982.25,632.8 -1073.17,215.21 -1673.88,617.48z"/>
   <path class="fil0" d="M7341.02 13073.07c644.67,431.7 1625.93,557.15 1827.91,749.79l320.22 539.06 143.19 0c0,-399.68 95.47,-817.77 95.47,-1241.13 -471.74,-226.33 -1043.35,-163.76 -1442.58,-419.13 -762.44,-487.79 -596.22,-398.18 -879.41,-1030.01 -103.15,-230.14 -324.11,-680.4 -494.42,-794.47 0,741.54 429.62,989.16 429.62,2195.89z"/>
  </g>
 </g>
</svg>
