<svg width="1080" height="1080" viewBox="0 0 1080 1080" fill="none" xmlns="http://www.w3.org/2000/svg">
<path fill-rule="evenodd" clip-rule="evenodd" d="M831 346.5V727.5V737H830.853C825.896 896.908 696.231 1025 537 1025C377.769 1025 248.104 896.908 243.147 737H243V727.5V346.5V342H243.033C245.41 179.77 376.113 49 537 49C697.887 49 828.59 179.77 830.967 342H831V346.5Z" fill="#00D912"/>
<path fill-rule="evenodd" clip-rule="evenodd" d="M797.127 361.553V714.447V723.246H796.997C792.603 871.358 677.685 990 536.564 990C395.442 990 280.524 871.358 276.13 723.246H276V714.447V361.553V357.385H276.029C278.136 207.123 393.974 86 536.564 86C679.153 86 794.991 207.123 797.098 357.385H797.127V361.553Z" fill="#030600"/>
<path fill-rule="evenodd" clip-rule="evenodd" d="M472.905 259.226C585.361 212.556 648.652 299.831 611.116 375.853C602.124 394.082 579.218 423.484 560.051 429.368C554.059 416.851 554.595 415.779 542.359 409.268L548.098 442.775C599.84 441.086 615.512 413.464 631.375 396.357C652.139 397.944 656.129 405.659 672.882 412.301C666.668 394.294 659.514 380.372 641.196 373.335C689.422 235.395 540.955 180.171 472.905 259.226Z" fill="#302E30"/>
<path fill-rule="evenodd" clip-rule="evenodd" d="M496.861 619.135C508.864 602.24 511.997 542.203 549.998 561.1C576.015 574.041 575.217 628.073 577.036 652.975L584.573 625.04C585.624 611.036 585.099 603.211 582.138 589.46C563.446 502.6 485.373 538.968 496.861 619.135V619.135Z" fill="#33DB1C"/>
<path fill-rule="evenodd" clip-rule="evenodd" d="M672.902 650.913L698.707 626.334C699.111 645.271 696.08 662.307 687.997 678.353C684.723 684.844 680.763 691.679 676.216 696.987C666.567 708.27 661.474 701.598 671.164 716.966C697.202 718.179 720.865 636.919 707.003 606.335C690.462 609.277 676.731 634.038 672.902 650.913V650.913Z" fill="#00D912"/>
<path fill-rule="evenodd" clip-rule="evenodd" d="M477.219 529.939C490.395 524.641 513.785 507.443 519.555 496.129C500.115 504.288 492.638 507.908 470.914 511.993C480.29 499.577 483.291 505.663 489.071 491.276C458.648 493.915 446.645 485.149 423.163 470.286C433.307 489.719 437.127 493.53 454.364 504.976L438.844 517.149C452.101 526.895 464.235 526.046 477.219 529.939V529.939Z" fill="#302E30"/>
<path fill-rule="evenodd" clip-rule="evenodd" d="M412.948 717.511C420.122 701.577 405.057 699.818 395.266 679.01C386.688 660.811 384.222 646.909 383.98 626.87L411.058 650.225C406.552 633.614 393.538 610.217 376.897 606.335C364.318 634.867 383.121 714.954 412.948 717.511V717.511Z" fill="#5E5D61"/>
<path fill-rule="evenodd" clip-rule="evenodd" d="M321.412 336.185C322.23 336.078 323.459 335.917 325.175 337.27L330.409 348.473C327.011 352.343 324.599 354.582 322.898 356.162C321.324 357.623 320.358 358.52 319.782 359.621C318.865 361.37 318.932 363.635 319.106 369.501C319.178 371.936 319.268 374.99 319.314 378.886C319.515 395.429 319.561 395.494 322.126 399.146C323.44 401.015 325.414 403.825 328.408 410.269C325.579 415.542 323.446 417.925 321.947 419.6C318.821 423.093 318.454 423.503 320.285 440.601L319.436 460.873C320.06 465.425 319.76 470.633 319.571 473.903C319.488 475.347 319.427 476.414 319.476 476.878C320.417 486.08 319.677 487.948 319.969 488.127C319.969 488.127 319.969 488.127 319.969 488.127C319.877 488.07 319.888 487.843 319.916 487.267C319.978 486.025 320.119 483.161 319.476 476.878C319.427 476.414 319.488 475.347 319.571 473.903C319.76 470.633 320.06 465.425 319.436 460.873L319.365 506.866C323.048 509.41 324.444 509.83 325.416 510.123C326.855 510.556 327.365 510.71 332.985 517.058C330.925 520.989 330.052 523.119 329.585 524.259C329.243 525.095 329.118 525.4 328.903 525.491C328.78 525.544 328.628 525.527 328.388 525.5C327.52 525.404 325.512 525.181 319.638 527.654L319.537 610.996C322.993 615.483 324.32 616.071 325.123 616.427C326.174 616.894 326.327 616.961 329.186 624.868L319.183 634.948L319.597 667.595C332.573 678.882 332.611 679.104 333.1 681.997C333.415 683.86 333.917 686.829 338.179 694.57L366.702 694.49L366.232 693.124C359.56 673.744 353.614 656.471 353.011 635.231C352.163 605.041 354.699 591.371 383.374 584.688L373.734 551.747L356.427 544.174C356.944 536.325 357.545 530.81 358.022 526.445C359.424 513.588 359.737 510.715 353.597 487.595L331.823 440.662C333.612 429.105 343.089 416.527 352.203 410.623C353.386 409.857 354.18 409.337 354.71 408.99L354.715 408.987L354.717 408.986L354.718 408.985L354.72 408.984C355.512 408.465 355.707 408.338 355.721 408.355C355.723 408.358 355.72 408.366 355.713 408.377C355.707 408.386 355.7 408.397 355.691 408.409C355.582 408.566 355.321 408.94 357.508 407.994L359.175 301.893C368.925 191.99 510.188 131.407 606.105 171.193L626.02 178.816C650.693 192.193 658.352 197.521 674.983 220.472C677.201 227.665 679.302 233.388 681.201 238.562C686.172 252.105 689.764 261.891 690.473 284.422C690.952 299.762 688.68 312.907 686.536 325.309C684.884 334.871 683.307 343.992 683.127 353.336C699.425 333.9 703.17 313.498 706.408 295.85C708.458 284.681 710.306 274.615 715.005 266.597C722.876 315.998 722.704 333.448 719.724 383.567L716.622 408.722C717.551 409.416 719.01 409.471 720.865 409.54C727.443 409.786 738.994 410.217 749.5 440.005C748.12 442.802 746.638 445.735 745.101 448.778C738.175 462.491 730.116 478.445 725.089 494.299C719.575 511.258 720.838 520.105 722.832 534.083L722.833 534.086L722.833 534.09C723.258 537.068 723.716 540.279 724.149 543.851L700.102 553.092L693.615 581.159C698.358 583.958 702.573 585.956 706.282 587.713C720.365 594.386 727.156 597.604 727.908 628.144C728.484 651.256 722.189 674.764 713.813 694.025L744.488 694.54C742.749 674.438 743.454 673.923 755.212 665.33C756.571 664.337 758.077 663.236 759.745 661.984C759.613 655.14 759.527 649.572 759.456 645.024C759.196 628.177 759.152 625.334 757.763 623.518C757.482 623.15 757.144 622.824 756.738 622.431C755.406 621.143 753.336 619.141 750.066 612.583C753.562 606.741 755.881 604.17 757.403 602.483C758.185 601.617 758.756 600.983 759.169 600.259C760.288 598.294 760.236 595.661 760.042 585.882C759.997 583.621 759.944 580.978 759.897 577.874C759.685 563.203 759.745 548.522 759.846 533.882C759.401 533.658 758.956 533.436 758.512 533.214L758.055 532.985L758.034 532.974C740.382 524.147 725.059 516.484 744.336 493.136L759.563 491.174L759.907 398.895L748.56 392.778C748.584 379.601 751.372 379.195 754.163 378.789C757.301 378.332 760.444 377.874 759.675 359.281C759.491 354.844 759.335 350.299 759.177 345.714C758.899 337.646 758.617 329.458 758.179 321.528C755.286 320.386 752.946 321.03 750.73 321.64C746.861 322.704 743.371 323.664 737.981 314.845C741.709 303.348 742.899 303.355 746.132 303.374C748 303.385 750.549 303.401 754.663 301.206C745.701 268.639 732.121 227.469 705.861 207.692C698.178 189.864 671.591 172.675 652.86 160.566C651.737 159.84 650.643 159.132 649.582 158.443L620.836 145.673C481.776 86.6272 338.542 195.367 325.205 300.407C327.899 302.018 330.449 302.567 332.645 303.04C336.815 303.937 339.704 304.559 339.856 311.66C340.076 321.704 334.409 321.323 328.622 320.934C325.915 320.752 323.182 320.568 321.012 321.447C320.943 322.299 320.877 323.103 320.815 323.861C320.013 333.637 319.836 335.79 320.568 336.163C320.775 336.269 321.054 336.232 321.412 336.185ZM326.943 489.375L334.339 493.166L344.857 486.898C344.601 486.197 344.357 485.524 344.124 484.879C340.213 474.066 339.132 471.079 326.488 476.231L326.943 489.375ZM332.763 660.275C325.579 645.281 337.067 638.295 348.181 649.113C344.857 661.084 344.332 661.903 332.763 660.275ZM746.681 636.202L734.182 636.808C733.214 638.877 732.446 640.372 731.864 641.505C730.874 643.432 730.423 644.31 730.44 645.18C730.455 645.907 730.797 646.628 731.425 647.953C732.064 649.297 732.997 651.264 734.182 654.492L746.721 653.157C747.923 650.685 748.857 649.055 749.524 647.888C750.355 646.437 750.774 645.705 750.785 644.967C750.797 644.217 750.386 643.46 749.559 641.934C748.879 640.681 747.919 638.911 746.681 636.202Z" fill="#33DB1C"/>
<path fill-rule="evenodd" clip-rule="evenodd" d="M671.811 500.486C656.736 504.672 644.985 523.923 627.939 529.474L569.215 503.146C580.754 521.062 635.073 565.184 671.811 500.486V500.486Z" fill="#66E42B"/>
<path fill-rule="evenodd" clip-rule="evenodd" d="M538.509 691.001C544.057 655.928 543.804 620.298 538.6 585.204C531.002 607.285 532.023 668.798 538.509 691.001Z" fill="#176416"/>
<path fill-rule="evenodd" clip-rule="evenodd" d="M520.04 667.231C527.112 652.995 528.163 619.843 520.04 605.334C512.421 621.016 512.805 652.399 520.04 667.231Z" fill="#176416"/>
<path fill-rule="evenodd" clip-rule="evenodd" d="M596.789 473.248C610.662 479.365 633.305 479.507 639.236 463.198C623.645 461.631 607.55 462.703 596.789 473.248Z" fill="#33DB1C"/>
<path fill-rule="evenodd" clip-rule="evenodd" d="M491.071 473.248C480.25 462.339 464.437 461.399 448.706 463.744C456.385 479.082 476.199 479.446 491.071 473.248Z" fill="#33DB1C"/>
<path fill-rule="evenodd" clip-rule="evenodd" d="M746.721 653.157C752.187 641.914 752.107 648.072 746.681 636.202L734.182 636.808C728.787 648.334 729.615 642.056 734.182 654.492L746.721 653.157Z" fill="#030600"/>
<path fill-rule="evenodd" clip-rule="evenodd" d="M326.943 489.375L334.339 493.166L344.857 486.898C340.3 474.451 339.886 470.771 326.489 476.231L326.943 489.375V489.375Z" fill="#030600"/>
<path fill-rule="evenodd" clip-rule="evenodd" d="M332.763 660.275C344.332 661.903 344.857 661.084 348.181 649.113C337.067 638.295 325.579 645.281 332.763 660.275Z" fill="#030600"/>
<path fill-rule="evenodd" clip-rule="evenodd" d="M477.219 529.939C473.245 528.747 469.35 528 465.479 527.257C456.702 525.573 448.043 523.912 438.844 517.149L454.364 504.976C437.127 493.53 433.307 489.719 423.163 470.286C420.317 454.445 430.694 451.537 441.973 448.375C446.352 447.147 450.868 445.881 454.798 443.806C454.042 443.28 453.313 442.771 452.609 442.28C440.444 433.797 435.84 430.588 431.444 430.85C428.768 431.01 426.169 432.456 421.988 434.783C418.392 436.784 413.625 439.436 406.633 442.482C411.291 426.557 422.739 409.521 436.217 402.979C439.084 404.514 442.506 406.471 446.329 408.659C476.922 426.163 533.283 458.41 537.792 406.751L542.359 409.268C553.351 415.118 554.036 416.577 558.406 425.889C558.901 426.942 559.442 428.096 560.051 429.368C579.218 423.484 602.124 394.082 611.116 375.852C648.652 299.831 585.361 212.555 472.905 259.226L459.749 281.035C457.357 256.696 458.144 254.225 463.073 238.748C463.953 235.984 464.965 232.807 466.115 229.016C438.652 234.87 410.27 263.331 400.469 289.973C393.629 308.586 394.104 328.727 398.954 347.765C403.583 365.94 407.612 369.985 412.582 374.974C414.555 376.954 416.675 379.083 419.041 382.303C420.588 384.41 421.117 384.936 421.356 385.174C421.422 385.24 421.466 385.283 421.503 385.332C421.577 385.429 421.624 385.547 421.766 385.9C421.953 386.368 422.305 387.247 423.102 389.037L388.84 380.696L388.909 381.016C394.303 406.086 400.972 437.085 393.205 461.207C385.203 486.048 399.54 497.19 423.82 509.92L417.717 515.612C432.559 526.289 463.265 544.255 477.219 529.939Z" fill="#5E5D61"/>
<path fill-rule="evenodd" clip-rule="evenodd" d="M543.749 807.24C544.011 808.248 544.697 809.286 545.087 810.249L548.059 816.643C548.58 817.731 549.264 818.709 549.531 819.854C548.394 821.552 546.07 823.141 544.691 824.929C543.171 826.899 541.303 828.187 539.853 830.007L513.227 858.191C512.419 859.205 511.414 859.852 510.709 860.905C512.795 860.905 535.84 861.122 536.73 860.77C537.479 860.473 543.907 853.443 545.469 851.882C547.684 849.67 556.96 839.239 558.341 838.313L566.287 855.158C567.064 857.078 568.143 859.134 569.079 860.905H595.236L590.318 850.673C589.577 848.841 588.776 847.426 587.894 845.66L580.46 830.231C578.71 826.729 577.191 823.217 575.412 819.854L588.628 805.747C581.028 805.65 573.149 805.502 565.563 805.898C558.286 806.278 550.959 806.9 543.749 807.24V807.24Z" fill="#00DA00"/>
<path fill-rule="evenodd" clip-rule="evenodd" d="M430.862 831.621C434.811 830.741 438.709 829.856 442.62 828.865C446.332 827.924 450.449 826.408 453.99 825.641L458.453 807.238C458.904 805.321 459.875 799.562 461.079 798.569C462.385 797.493 469.754 798.088 472.162 798.088C479.784 798.088 487.409 798.064 495.03 798.072C500.209 798.078 497.625 803.067 495.951 809.77C495.636 811.031 495.167 813.45 494.739 814.344C501.881 813.171 509.984 811.035 517.316 810.444C517.697 809.72 518.222 807.159 518.44 806.1C519.493 801 521.248 797.636 519.748 792.073C518.435 787.2 513.779 782.448 509.178 780.608C503.854 778.479 495.974 779.077 488.682 779.077C481.339 779.077 473.997 779.077 466.656 779.077C455.489 779.077 448.431 778.863 442.647 788.115C441.886 789.332 441.292 790.296 440.728 791.704C439.677 794.326 434.491 816.9 433.065 822.608C432.697 824.081 432.331 825.544 431.963 827.017C431.648 828.277 430.98 830.377 430.862 831.621V831.621Z" fill="#FEFFFF"/>
<path fill-rule="evenodd" clip-rule="evenodd" d="M494.74 814.344C494.628 815.676 493.967 817.58 493.706 818.82C493.027 822.052 488.682 840.712 487.752 841.516C486.289 842.781 479.527 842.17 476.843 842.17C469.222 842.17 461.594 842.206 453.975 842.185C448.98 842.172 450.867 838.138 451.677 834.897L453.99 825.641C450.449 826.408 446.332 827.924 442.62 828.865C438.709 829.856 434.811 830.741 430.862 831.621C429.641 837.597 427.027 842.756 429.52 849.299C431.324 854.037 435.558 858.056 440.457 859.845C445.428 861.66 453.946 860.905 460.598 860.905C467.757 860.905 474.915 860.905 482.074 860.905C490.596 860.905 494.995 861.53 500.512 858.141C505.012 855.376 507.676 850.189 508.946 845.091C509.698 842.072 510.408 839.519 511.053 836.453L517.316 810.444C509.984 811.035 501.881 813.171 494.74 814.344V814.344Z" fill="#00DA00"/>
<path fill-rule="evenodd" clip-rule="evenodd" d="M377.448 837.985L396.996 836.683C397.033 836.622 397.068 836.446 397.079 836.484L398.123 832.002C398.924 828.016 405.223 799.295 405.256 797.812H431.688L435.047 783.816C435.335 782.664 436.064 780.39 436.093 779.077H363.681L359 797.812H385.983L377.448 837.985V837.985Z" fill="#FEFFFF"/>
<path fill-rule="evenodd" clip-rule="evenodd" d="M655.809 813.242C652.618 812.696 649.328 811.954 646.132 811.358C643.003 810.775 639.566 810.392 636.536 809.753L630.423 834.676C628.365 842.91 626.986 850.997 635.785 857.524C639.335 860.158 641.786 860.906 647.824 860.905H694.906L698.266 846.91C698.554 845.758 699.282 843.484 699.312 842.17C685.178 842.17 671.044 842.17 656.91 842.17C653.537 842.17 649.027 842.991 649.522 839.221L651.624 830.543C653.073 824.746 654.467 818.998 655.809 813.242V813.242Z" fill="#00DA00"/>
<path fill-rule="evenodd" clip-rule="evenodd" d="M636.536 809.753C639.566 810.392 643.003 810.775 646.132 811.358C649.328 811.954 652.619 812.696 655.809 813.242C656.333 810.991 656.901 808.595 657.461 806.353C657.76 805.158 658.047 804.094 658.345 802.829C658.58 801.826 658.75 800.267 659.278 799.355C660.393 797.428 662.964 798.088 666.547 798.088H710.05C710.079 796.774 710.808 794.5 711.095 793.349L714.455 779.077C696.375 779.077 678.295 779.088 660.215 779.077C651.9 779.072 646.366 781.385 642.503 788.354C640.529 791.914 638.853 799.403 637.803 804.04C637.415 805.752 636.645 808.252 636.536 809.753V809.753Z" fill="#FEFFFF"/>
<path fill-rule="evenodd" clip-rule="evenodd" d="M543.749 807.24C550.959 806.9 558.286 806.278 565.563 805.898C573.149 805.501 581.028 805.65 588.628 805.747C589.792 804.233 592.101 802.358 593.375 800.91C596.114 797.798 597.564 796.64 599.851 794.165L614.234 779.077C612.167 779.077 589.078 778.871 588.21 779.21C587.632 779.436 568.277 800.546 566.601 801.669C565.151 798.928 556.684 780.715 555.588 779.077H529.707L543.749 807.24V807.24Z" fill="#FEFFFF"/>
<path fill-rule="evenodd" clip-rule="evenodd" d="M628.826 808.627L610.104 806.77C609.567 807.878 609.478 808.863 609.21 810.142C608.995 811.16 608.688 812.296 608.396 813.461L603.385 833.794C602.917 835.67 596.918 859.556 596.888 860.905H616.436C616.692 857.832 628.826 810.895 628.826 808.627V808.627Z" fill="#00DA00"/>
<path fill-rule="evenodd" clip-rule="evenodd" d="M610.104 806.77L628.826 808.627C629.113 808.102 628.942 808.47 629.156 807.788C629.286 807.374 629.258 807.418 629.383 806.906L635.159 782.935C635.434 781.834 635.958 780.296 635.985 779.077C627.53 779.077 621.932 779.138 616.713 786.517C613.303 791.335 612.774 795.664 611.37 801.283C611.015 802.704 610.139 805.489 610.104 806.77V806.77Z" fill="#FEFFFF"/>
<path fill-rule="evenodd" clip-rule="evenodd" d="M377.448 837.985L372.491 860.905H392.04L394.538 848.802C394.899 847.059 396.996 838.122 396.996 836.684L377.448 837.985V837.985Z" fill="#00DA00"/>
<path fill-rule="evenodd" clip-rule="evenodd" d="M532.184 884.6L532.267 884.682C532.261 884.677 532.157 884.627 532.184 884.6ZM520.345 891.212H523.649C524.063 890.349 524.222 888.933 524.472 887.903C524.741 886.795 525.043 885.709 525.301 884.6L525.789 886.315C526.278 888.847 526.079 889.861 528.33 890.385C528.946 889.465 529.496 888.786 530.148 887.797C530.683 886.986 531.538 885.625 532.184 885.151C532.02 887.128 530.973 889.235 530.808 891.212H534.112C534.131 890.36 536.862 878.843 537.14 878.263H533.286L528.33 885.151C528.33 882.757 527.229 880.656 527.229 878.263C523.05 878.263 523.393 877.456 521.24 887.699C521.005 888.812 520.73 890.409 520.345 891.212V891.212Z" fill="#00DA00"/>
<path fill-rule="evenodd" clip-rule="evenodd" d="M477.944 891.212C484.877 891.212 486.693 892.152 487.644 888.244C487.96 886.945 488.682 884.777 488.682 883.222H480.422C480.18 884.263 479.871 884.946 479.871 886.253H484.552C484.525 887.464 484.365 887.111 484.277 888.182H478.77C478.793 887.157 480.079 882.01 480.422 881.294H489.232C489.545 880.642 489.868 879.082 490.058 878.263C487.581 878.263 485.103 878.264 482.625 878.263C476.896 878.259 477.759 877.754 475.629 886.695C475.158 888.674 475.224 891.212 477.944 891.212V891.212Z" fill="#00DA00"/>
<path fill-rule="evenodd" clip-rule="evenodd" d="M586.425 891.212C593.359 891.212 595.175 892.152 596.125 888.244C596.441 886.945 597.163 884.777 597.163 883.222H588.903C588.661 884.263 588.352 884.946 588.352 886.253H593.033C593.006 887.464 592.847 887.111 592.758 888.182H587.251C587.274 887.157 588.56 882.01 588.903 881.294H597.714C598.026 880.642 598.349 879.082 598.54 878.263C596.062 878.263 593.584 878.264 591.106 878.263C585.377 878.259 586.24 877.754 584.111 886.695C583.639 888.674 583.705 891.212 586.425 891.212V891.212Z" fill="#00DA00"/>
<path fill-rule="evenodd" clip-rule="evenodd" d="M498.043 891.212H501.347C501.381 889.704 501.898 889.269 501.898 887.63C507.075 887.63 506.572 888.007 506.992 886.391C507.173 885.696 507.268 885.186 507.405 884.6H502.724C502.984 884.058 503.487 882.054 503.55 881.293H508.781C508.734 883.434 506.742 889.246 506.579 891.212H509.883L512.911 878.263C510.617 878.263 508.322 878.264 506.028 878.263C503.206 878.261 501.68 877.762 500.784 879.904C500.378 880.878 498.069 890.075 498.043 891.212V891.212Z" fill="#00DA00"/>
<path fill-rule="evenodd" clip-rule="evenodd" d="M558.616 891.212H561.92C561.963 889.315 563.695 884.236 563.848 882.395C564.845 883.127 568.203 887.961 569.355 888.733C569.067 889.332 568.824 890.318 568.804 891.212C572.67 891.212 571.776 891.756 572.603 888.402C572.892 887.23 573.174 886.117 573.429 885.095C574.016 882.746 574.604 880.553 575.137 878.263H571.833C571.661 880.321 570.502 882.518 570.456 884.6C568.768 884.149 565.739 878.263 564.399 878.263C561.107 878.263 561.212 880.02 560.268 883.773C559.974 884.941 559.735 886.168 559.446 887.358C559.171 888.488 558.645 889.959 558.616 891.212V891.212Z" fill="#00DA00"/>
<path fill-rule="evenodd" clip-rule="evenodd" d="M544.575 891.212H547.879L550.907 878.263C548.906 878.263 548.379 878.342 547.597 879.635C546.923 880.749 545.955 885.413 545.511 887.19C545.194 888.459 544.673 890.022 544.575 891.212V891.212Z" fill="#00DA00"/>
</svg>
