<svg width="899" height="899" viewBox="0 0 899 899" fill="none" xmlns="http://www.w3.org/2000/svg">
<path d="M449.5 0C330.285 -1.80231e-06 215.953 47.3579 131.656 131.655C47.358 215.953 8.6389e-05 330.285 3.05176e-05 449.5C1.35618e-05 508.529 11.6267 566.98 34.2161 621.516C56.8056 676.052 89.9155 725.605 131.655 767.344C173.395 809.084 222.948 842.194 277.484 864.784C332.02 887.373 390.471 899 449.5 899C508.529 899 566.98 887.373 621.516 864.784C676.052 842.194 725.605 809.084 767.345 767.344C809.085 725.605 842.194 676.052 864.784 621.516C887.373 566.98 899 508.529 899 449.5C899 330.285 851.642 215.953 767.344 131.655C683.047 47.3579 568.715 -2.34299e-05 449.5 0ZM449.5 44.9501C556.793 44.9501 659.692 87.5721 735.56 163.44C811.428 239.308 854.05 342.207 854.05 449.5C854.05 502.626 843.586 555.232 823.255 604.315C802.925 653.397 773.126 697.994 735.56 735.56C697.994 773.126 653.397 802.925 604.315 823.255C555.232 843.586 502.626 854.05 449.5 854.05C396.374 854.05 343.768 843.586 294.685 823.255C245.603 802.925 201.006 773.126 163.44 735.56C125.874 697.994 96.0751 653.397 75.7445 604.315C55.414 555.232 44.95 502.626 44.95 449.5C44.9501 342.207 87.5722 239.308 163.44 163.44C239.308 87.5721 342.207 44.9501 449.5 44.9501ZM449.5 85.405C347.657 85.405 255.598 127.24 189.519 194.637H709.481C643.402 127.24 551.343 85.405 449.5 85.405ZM145.403 249.253C107.491 306.707 85.4048 375.515 85.4048 449.5C85.4735 520.706 106.425 590.332 145.657 649.756H753.272C792.531 590.341 813.504 520.713 813.595 449.5C813.595 375.515 791.509 306.707 753.597 249.253H145.403ZM161.837 328.135H260.578L296.828 366.896V421.38H234.881V390.494L227.577 382.628H195.111L187.807 390.494V508.506L195.111 516.082H227.577L234.881 508.506V479.367H296.828V532.113L260.578 570.865H161.837L125.86 532.113V366.896L161.837 328.135ZM314.483 328.135H403.479V382.628H389.959V516.082H403.479V570.865H314.483V516.082H328.012V382.628H314.483V328.135ZM419.624 328.135H585.447V392.241H534.598V382.628H495.1V422.258H504.3V412.645H554.887V486.364H504.3V476.751H495.1V516.082H534.598V506.469H585.447V570.865H419.624V516.082H433.153V382.628H419.624V328.135ZM637.886 328.135H737.162L773.14 366.896V414.681H711.193V390.494L704.161 382.628H671.16L663.855 390.494V414.971L671.16 422.837H737.162L773.14 461.598V532.113L737.162 570.865H637.886L601.909 532.113V485.486H663.855V508.506L671.16 516.082H704.161L711.193 508.506V485.197L704.161 477.33H637.886L601.909 438.579V366.896L637.886 328.135ZM189.606 704.372C258.057 774.205 351.715 813.563 449.5 813.595C547.166 813.476 640.693 774.119 709.06 704.372H189.606Z" fill="white"/>
</svg>
