<?xml version="1.0" encoding="UTF-8" standalone="no"?>
<!-- Created with Inkscape (http://www.inkscape.org/) -->

<svg
   xmlns:dc="http://purl.org/dc/elements/1.1/"
   xmlns:cc="http://creativecommons.org/ns#"
   xmlns:rdf="http://www.w3.org/1999/02/22-rdf-syntax-ns#"
   xmlns:svg="http://www.w3.org/2000/svg"
   xmlns="http://www.w3.org/2000/svg"
   xmlns:sodipodi="http://sodipodi.sourceforge.net/DTD/sodipodi-0.dtd"
   xmlns:inkscape="http://www.inkscape.org/namespaces/inkscape"
   width="500"
   height="500.00003"
   viewBox="0 0 132.29166 132.29168"
   version="1.1"
   id="svg8"
   inkscape:version="0.92.0 r15299"
   sodipodi:docname="CIES_black.svg"
   inkscape:export-filename="C:\Users\Ivomar\Pictures\CIES_branco.png"
   inkscape:export-xdpi="96"
   inkscape:export-ydpi="96">
  <defs
     id="defs2" />
  <sodipodi:namedview
     id="base"
     pagecolor="#ffffff"
     bordercolor="#666666"
     borderopacity="1.0"
     inkscape:pageopacity="0.0"
     inkscape:pageshadow="2"
     inkscape:zoom="0.18605747"
     inkscape:cx="80.400268"
     inkscape:cy="-65.979278"
     inkscape:document-units="mm"
     inkscape:current-layer="layer1"
     showgrid="false"
     units="px"
     inkscape:window-width="1366"
     inkscape:window-height="745"
     inkscape:window-x="-8"
     inkscape:window-y="-8"
     inkscape:window-maximized="1"
     inkscape:snap-global="false"
     showguides="false"
     fit-margin-top="0"
     fit-margin-left="0"
     fit-margin-right="0"
     fit-margin-bottom="0" />
  <metadata
     id="metadata5">
    <rdf:RDF>
      <cc:Work
         rdf:about="">
        <dc:format>image/svg+xml</dc:format>
        <dc:type
           rdf:resource="http://purl.org/dc/dcmitype/StillImage" />
        <dc:title></dc:title>
      </cc:Work>
    </rdf:RDF>
  </metadata>
  <g
     inkscape:label="Camada 1"
     inkscape:groupmode="layer"
     id="layer1"
     transform="translate(0,-164.70832)"
     style="display:inline">
    <text
       xml:space="preserve"
       style="font-style:normal;font-weight:normal;font-size:10.58333302px;line-height:6.61458302px;font-family:sans-serif;letter-spacing:0px;word-spacing:0px;fill:#000000;fill-opacity:1;stroke:none;stroke-width:0.26458332"
       x="215.54675"
       y="436.38077"
       id="text3696"><tspan
         sodipodi:role="line"
         id="tspan3694"
         x="215.54675"
         y="442.72897"
         style="stroke-width:0.26458332" /></text>
    <path
       style="display:inline;fill:#000000;fill-opacity:1;stroke:none;stroke-width:95.57324219;stroke-miterlimit:4;stroke-dasharray:none;stroke-opacity:1"
       d="M 66.145829,164.70832 A 66.145828,66.145841 0 0 0 0,230.85413 66.145828,66.145841 0 0 0 66.145829,296.99999 66.145828,66.145841 0 0 0 132.29167,230.85413 66.145828,66.145841 0 0 0 66.145829,164.70832 Z m 0,6.61458 A 59.531245,59.531255 0 0 1 125.67708,230.85413 59.531245,59.531255 0 0 1 66.145829,290.38539 59.531245,59.531255 0 0 1 6.61458,230.85413 59.531245,59.531255 0 0 1 66.145829,171.3229 Z m 0,5.95312 c -14.9866,0 -28.533539,6.15621 -38.257369,16.07396 h 76.51472 C 94.679349,183.43223 81.132439,177.27602 66.145829,177.27602 Z M 21.39664,201.38695 c -5.57887,8.45458 -8.82896,18.57998 -8.82896,29.46718 0.0101,10.47823 3.09327,20.72408 8.8664,29.46851 h 89.41316 c 5.7771,-8.74318 8.86328,-18.98913 8.87669,-29.46851 0,-10.8872 -3.25006,-21.0126 -8.82893,-29.46718 z m 2.41843,11.6078 h 14.53012 l 5.334339,5.70381 v 8.0176 H 34.56377 v -4.54495 l -1.07487,-1.15755 h -4.77745 l -1.07487,1.15755 v 17.36587 l 1.07487,1.1149 h 4.77745 l 1.07487,-1.1149 v -4.28785 h 9.115759 v 7.7618 l -5.334339,5.70248 H 23.81507 l -5.29424,-5.70248 v -24.31247 z m 22.462489,0 h 13.09608 v 8.01891 h -1.98954 v 19.63832 h 1.98954 v 8.06153 h -13.09608 v -8.06153 h 1.99083 v -19.63832 h -1.99083 z m 15.47188,0 h 24.40159 v 9.43356 h -7.48273 v -1.41465 h -5.81229 v 5.83167 h 1.35393 v -1.41462 h 7.44397 v 10.84817 h -7.44397 v -1.41465 h -1.35393 v 5.78775 h 5.81229 v -1.41462 h 7.48273 v 9.47615 h -24.40159 v -8.06153 h 1.99086 v -19.63832 h -1.99086 z m 32.11825,0 h 14.608881 l 5.29426,5.70381 v 7.03187 h -9.11576 v -3.55922 l -1.03479,-1.15755 h -4.856271 l -1.07489,1.15755 v 3.60185 l 1.07489,1.15755 h 9.712571 l 5.29425,5.7038 v 10.37662 l -5.29425,5.70248 H 93.867689 l -5.29426,-5.70248 v -6.86135 h 9.11569 v 3.3874 l 1.07489,1.1149 h 4.856271 l 1.03479,-1.1149 v -3.43002 l -1.03479,-1.15755 h -9.752591 l -5.29426,-5.7025 v -10.54845 z m -69.136609,1.93013 -4.37835,4.71678 v 22.38235 l 4.37835,4.71675 h 12.73823 l 4.379569,-4.71675 v -4.80205 H 36.35433 v 3.21557 l -2.02954,2.1872 h -6.44921 l -2.06966,-2.1872 v -19.16677 l 2.06966,-2.22985 h 6.44921 l 2.02954,2.22985 v 3.47392 h 5.494549 v -5.10302 l -4.379569,-4.71678 z m 23.377099,0 v 4.11603 h 1.99081 v 23.58382 h -1.99081 v 4.11603 h 9.43478 v -4.11603 h -1.99078 v -23.58382 h 1.99078 v -4.11603 z m 15.47318,0 v 4.11603 h 1.98959 v 23.58382 h -1.98959 v 4.11603 h 20.7391 v -5.53065 h -3.82151 v 1.41462 h -9.47356 v -9.73325 h 4.97512 v 1.41465 h 3.82148 v -6.9466 h -3.82148 v 1.45855 h -4.97512 v -9.77717 h 9.47356 v 1.45857 h 3.82151 v -5.5746 z m 31.20223,0 -4.37956,4.71678 v 8.61832 l 4.37956,4.71678 h 9.632501 l 2.07095,2.22982 v 5.23095 l -2.07095,2.1872 h -6.487981 l -2.07089,-2.1872 v -2.35772 h -5.45319 v 3.94547 l 4.37956,4.71678 h 12.817081 l 4.3796,-4.71678 v -8.4478 l -4.3796,-4.71675 h -9.672561 l -2.07089,-2.18722 v -5.40275 l 2.07089,-2.22985 h 6.487981 l 2.07095,2.22985 v 2.48692 h 5.49323 v -4.11602 l -4.3796,-4.71678 z M 27.90137,268.35961 c 10.07274,10.2762 23.854909,16.068 38.244459,16.07265 14.37196,-0.0175 28.13492,-5.809 38.195311,-16.07265 z"
       id="path5738-3-6-8"
       inkscape:connector-curvature="0" />
  </g>
</svg>
