<?xml version="1.0" encoding="UTF-8" standalone="no"?>
<!-- Created with Inkscape (http://www.inkscape.org/) -->

<svg
   xmlns:dc="http://purl.org/dc/elements/1.1/"
   xmlns:cc="http://creativecommons.org/ns#"
   xmlns:rdf="http://www.w3.org/1999/02/22-rdf-syntax-ns#"
   xmlns:svg="http://www.w3.org/2000/svg"
   xmlns="http://www.w3.org/2000/svg"
   xmlns:sodipodi="http://sodipodi.sourceforge.net/DTD/sodipodi-0.dtd"
   xmlns:inkscape="http://www.inkscape.org/namespaces/inkscape"
   width="500.00003"
   height="500.00003"
   viewBox="0 0 132.29167 132.29167"
   version="1.1"
   id="svg8"
   inkscape:version="0.92.4 (5da689c313, 2019-01-14)"
   sodipodi:docname="CIES Playoffs.svg">
  <defs
     id="defs2" />
  <sodipodi:namedview
     id="base"
     pagecolor="#ffffff"
     bordercolor="#666666"
     borderopacity="1.0"
     inkscape:pageopacity="0.0"
     inkscape:pageshadow="2"
     inkscape:zoom="1.4"
     inkscape:cx="270.36169"
     inkscape:cy="190.38774"
     inkscape:document-units="px"
     inkscape:current-layer="layer1"
     showgrid="false"
     fit-margin-top="0"
     fit-margin-left="0"
     fit-margin-right="0"
     fit-margin-bottom="0"
     units="px"
     inkscape:window-width="1920"
     inkscape:window-height="1057"
     inkscape:window-x="-8"
     inkscape:window-y="-8"
     inkscape:window-maximized="1" />
  <metadata
     id="metadata5">
    <rdf:RDF>
      <cc:Work
         rdf:about="">
        <dc:format>image/svg+xml</dc:format>
        <dc:type
           rdf:resource="http://purl.org/dc/dcmitype/StillImage" />
        <dc:title></dc:title>
      </cc:Work>
    </rdf:RDF>
  </metadata>
  <g
     inkscape:label="Camada 1"
     inkscape:groupmode="layer"
     id="layer1"
     transform="translate(-4.9478585,-81.183229)">
    <g
       style="display:inline"
       transform="matrix(0.60806083,0,0,0.60806083,30.873002,6.9556931)"
       id="layer1-5"
       inkscape:label="Camada 1">
      <text
         id="text3696"
         y="436.38077"
         x="215.54675"
         style="font-style:normal;font-weight:normal;font-size:10.58333302px;line-height:6.61458302px;font-family:sans-serif;letter-spacing:0px;word-spacing:0px;fill:#000000;fill-opacity:1;stroke:none;stroke-width:0.26458332"
         xml:space="preserve"><tspan
           style="stroke-width:0.26458332"
           y="442.72897"
           x="215.54675"
           id="tspan3694"
           sodipodi:role="line" /></text>
      <g
         transform="translate(0,2.3705038e-6)"
         id="g4661">
        <circle
           style="display:inline;fill:#000000;fill-opacity:1;stroke:none;stroke-width:95.57324982;stroke-miterlimit:4;stroke-dasharray:none;stroke-opacity:1"
           id="path5738-3-6-1"
           cx="66.145836"
           cy="230.85416"
           r="66.145836" />
        <circle
           style="display:inline;fill:#ffffff;fill-opacity:1;stroke:none;stroke-width:31.85494995;stroke-miterlimit:4;stroke-dasharray:none;stroke-opacity:1"
           id="path5736-9-0-0"
           cx="66.145836"
           cy="230.85416"
           r="59.53125" />
        <path
           style="display:inline;fill:#000000;fill-opacity:1;stroke:none;stroke-width:23.56603813;stroke-miterlimit:4;stroke-dasharray:none;stroke-opacity:1"
           d="m 66.145669,177.27627 c -14.9866,0 -28.533524,6.15495 -38.257374,16.07267 H 104.40302 C 94.679193,183.43122 81.132267,177.27627 66.145669,177.27627 Z m -44.749175,24.10965 c -5.578875,8.45457 -8.828949,18.58127 -8.828949,29.46847 0.01,10.47823 3.091974,20.72278 8.865124,29.4672 h 89.414421 c 5.7771,-8.74317 8.86328,-18.98782 8.8767,-29.4672 0,-10.8872 -3.25007,-21.0139 -8.82887,-29.46847 z m 6.504776,66.97265 c 10.072698,10.2762 23.854823,16.06929 38.244399,16.07395 14.372024,-0.0175 28.133673,-5.8103 38.194051,-16.07395 z"
           id="path5404-4-8-3"
           inkscape:connector-curvature="0" />
        <path
           style="font-style:normal;font-variant:normal;font-weight:normal;font-stretch:normal;font-size:medium;line-height:10.32875443px;font-family:CollegiateOutlineFLF;-inkscape-font-specification:CollegiateOutlineFLF;letter-spacing:0px;word-spacing:0px;fill:#ffffff;fill-opacity:1;stroke:none;stroke-width:1.03287554"
           d="m 23.814919,212.99502 -5.29425,5.7025 v 24.31247 l 5.29425,5.70378 h 14.530125 l 5.334325,-5.70378 v -7.7605 h -9.11575 v 4.28785 l -1.074875,1.1149 h -4.777449 l -1.074875,-1.1149 v -17.36587 l 1.074875,-1.15755 h 4.777449 l 1.074875,1.15755 v 4.54495 h 9.11575 v -8.0189 l -5.334325,-5.7025 z m 22.46245,0 v 8.0189 h 1.990875 v 19.63832 h -1.990875 v 8.06153 h 13.096099 v -8.06153 h -1.98955 v -19.63832 h 1.98955 v -8.0189 z m 15.471925,0 v 8.0189 h 1.99085 v 19.63832 h -1.99085 v 8.06153 h 24.401648 v -9.47615 h -7.484073 v 1.41462 h -5.810975 v -5.78905 h 1.352624 v 1.41595 h 7.443976 v -10.84947 h -7.443976 v 1.41592 h -1.352624 v -5.83167 h 5.810975 v 1.41465 h 7.484073 v -9.43355 z m 32.118224,0 -5.294249,5.7025 v 10.54845 l 5.294249,5.7038 h 9.752602 l 1.03485,1.15755 v 3.43002 l -1.03485,1.1149 h -4.856303 l -1.074848,-1.1149 v -3.3874 h -9.1157 v 6.86005 l 5.294249,5.70378 h 14.608902 l 5.29425,-5.70378 v -10.37662 l -5.29425,-5.7025 h -9.712603 l -1.074848,-1.15755 v -3.60185 l 1.074848,-1.15755 h 4.856303 l 1.03485,1.15755 v 3.55922 h 9.1157 v -7.03317 l -5.29425,-5.7025 z m -69.136624,1.92882 h 12.738249 l 4.379577,4.71678 v 5.10305 h -5.494475 v -3.47265 l -2.029627,-2.22985 H 27.87542 l -2.069651,2.22985 v 19.16677 l 2.069651,2.1872 h 6.449198 l 2.029627,-2.1872 v -3.21555 h 5.494475 v 4.80203 l -4.379577,4.71675 H 24.730894 l -4.37825,-4.71675 v -22.38365 z m 23.377124,0 h 9.434851 v 4.11733 H 55.55202 v 23.58382 h 1.990849 v 4.11603 h -9.434851 v -4.11603 h 1.990876 v -23.58382 h -1.990876 z m 15.471926,0 h 20.740349 v 5.5746 h -3.821449 v -1.45727 h -9.474925 v 9.7759 h 4.976474 v -1.45728 h 3.821451 v 6.9466 h -3.821451 v -1.41595 h -4.976474 v 9.73455 h 9.474925 v -1.41592 h 3.821449 v 5.53195 H 63.579944 v -4.11603 h 1.990849 v -23.58382 h -1.990849 z m 31.202225,10e-4 h 12.818351 l 4.37957,4.71678 v 4.11602 h -5.49447 v -2.48692 l -2.06963,-2.22985 h -6.487973 l -2.070976,2.22985 v 5.40275 l 2.070976,2.18722 h 9.672503 l 4.37957,4.71675 v 8.44653 l -4.37957,4.71675 H 94.782169 l -4.378251,-4.71675 v -3.9442 h 5.453123 v 2.35772 l 2.070976,2.1872 h 6.487973 l 2.06963,-2.1872 v -5.23095 l -2.06963,-2.22982 h -9.633821 l -4.378251,-4.71678 v -8.61832 z"
           id="path6209"
           inkscape:connector-curvature="0" />
      </g>
    </g>
    <path
       style="fill:#d4aa00;fill-opacity:1;stroke:none;stroke-width:0.45450741"
       d="m 47.514825,213.12675 c 0,-0.2055 2.95335,-1.88427 6.563,-3.73075 7.01471,-3.58832 12.87952,-5.3361 14.84117,-4.42277 0.93726,0.43637 0.93537,0.44902 -0.29343,1.97277 -1.65561,2.05305 -3.81882,3.41395 -7.38975,4.64908 -3.98077,1.37687 -13.72099,2.46417 -13.72099,1.53167 z m 40.19333,-0.103 c -5.34207,-0.58687 -9.9969,-2.47485 -12.87964,-5.2239 -2.40932,-2.2976 -2.45313,-2.38215 -1.4396,-2.7771 1.19907,-0.46722 3.96503,-0.1445 7.49713,0.8748 2.58157,0.745 14.02866,6.4087 14.47464,7.16165 0.29871,0.5043 -2.87338,0.4896 -7.65253,-0.0355 z m -49.53727,-6.45802 c -1.5907,-0.4637 -3.84326,-1.12123 -5.00568,-1.46115 -1.16244,-0.33995 -2.11351,-0.74898 -2.11351,-0.90895 0,-0.63348 11.48186,-2.53318 15.12828,-2.50303 3.66296,0.0305 8.899,1.25995 8.899,2.08988 0,0.60305 -2.47329,2.2583 -4.47604,2.99557 -2.57578,0.94825 -8.81643,0.84165 -12.43205,-0.21225 z m 52.53551,-0.57445 c -1.57338,-0.84938 -2.84615,-1.75325 -2.82837,-2.0086 0.0715,-1.02553 4.77375,-2.22778 8.80374,-2.2509 3.971725,-0.0225 14.460865,1.75847 14.460865,2.4557 0,0.185 -1.75199,0.92545 -3.89332,1.64555 -3.00608,1.0109 -5.00869,1.35407 -8.787755,1.50592 -4.8384,0.1945 -4.92719,0.179 -7.75516,-1.34767 z m -28.50824,-2.25143 c -1.07514,-0.26227 -2.38952,-1.29522 -4.24514,-3.3362 -2.44195,-2.68582 -4.92095,-6.7431 -4.43186,-7.25345 0.237825,-0.24825 4.10787,1.4255 8.40832,3.63628 3.1577,1.6233 5.10183,3.75372 5.82555,6.38372 0.27087,0.98433 0.1638,1.04185 -1.85605,0.99708 -1.17892,-0.026 -2.84429,-0.2185 -3.70082,-0.42743 z m 12.70041,0.0433 c -0.43543,-0.73512 1.52804,-3.76182 3.6283,-5.59307 1.57917,-1.3769 9.87648,-5.32143 10.28877,-4.89123 0.89063,0.9293 -4.17521,8.2688 -6.62158,9.59348 -1.99116,1.07817 -6.83424,1.66955 -7.29549,0.89082 z m -24.74914,-3.17695 c -2.94607,-1.60585 -5.39847,-4.82047 -6.63305,-8.6946 -1.09907,-3.44898 -1.78785,-7.1962 -1.32275,-7.1962 0.61985,0 8.9315,9.45805 10.04148,11.4264 1.14117,2.02373 1.61174,5.2972 0.8047,5.59783 -0.26501,0.0988 -1.56569,-0.41133 -2.89038,-1.1334 z m 38.90558,0.58798 c -0.40288,-1.09548 0.50097,-3.89003 2.03338,-6.28693 1.38294,-2.1631 9.218325,-10.52823 9.523795,-10.1677 0.398,0.46975 -1.091755,6.31707 -2.284925,8.96837 -1.58781,3.52826 -3.27579,5.65023 -5.37231,6.75348 -2.6985,1.42008 -3.58587,1.5868 -3.89994,0.73278 z m 15.716875,-2.99543 c -0.93434,-0.19125 -2.00106,-0.66325 -2.37049,-1.04872 -0.59901,-0.625 -0.49571,-0.85228 0.95409,-2.0992 2.0904,-1.79793 5.63053,-3.57458 8.45456,-4.24306 2.72288,-0.64452 12.30917,-1.52867 12.654,-1.1671 0.35591,0.37318 -1.32294,1.70575 -5.71388,4.53526 -5.44627,3.5096 -10.03518,4.83022 -13.97828,4.02282 z M 28.911535,197.0067 c -2.67162,-1.0726 -7.20577,-3.9763 -10.09597,-6.46553 l -1.33485,-1.14965 1.33759,-0.0175 c 0.73566,-0.01 3.9393,0.2997 7.11919,0.6864 4.77497,0.58068 6.32391,0.97203 8.89627,2.24768 2.99158,1.48352 6.00682,3.71443 6.00682,4.4443 0,0.8091 -2.49716,1.42455 -5.69406,1.40338 -2.52143,-0.0175 -4.16954,-0.32063 -6.23499,-1.14988 z m 8.22255,-5.04255 c -3.28885,-3.3352 -4.01202,-5.25645 -4.21384,-11.19503 -0.29512,-8.68417 -0.2943,-8.68492 2.96876,-2.64462 2.92295,5.41075 4.51116,9.75825 4.50055,12.3196 -0.008,1.85292 -0.43636,3.55673 -0.89489,3.55673 -0.1937,0 -1.25598,-0.91651 -2.36058,-2.03668 z m 65.371425,-1.56143 c 0.16448,-1.97895 0.56759,-4.44417 0.89585,-5.47825 0.53841,-1.69607 5.43084,-10.96912 6.19101,-11.73437 0.17135,-0.1725 0.23067,2.61132 0.13185,6.1862 -0.20833,7.5379 -0.57494,8.66717 -3.98821,12.28525 -3.16518,3.35515 -3.59984,3.18578 -3.2305,-1.25883 z M 22.773975,184.9856 c -2.40681,-0.786 -5.22005,-2.86965 -7.98944,-5.91735 -3.11192,-3.42465 -5.68892,-6.88808 -5.12518,-6.88808 0.25837,0 2.02377,0.44298 3.9231,0.9844 6.27286,1.78813 10.62891,4.6186 13.72788,8.92015 1.07825,1.49668 1.8488,2.90983 1.71228,3.14028 -0.35713,0.60295 -4.10958,0.45917 -6.24864,-0.2395 z m 91.038355,-0.0465 c 0,-0.45875 0.82003,-1.94315 1.82228,-3.29865 1.79018,-2.42118 4.60403,-4.6705 8.25482,-6.5987 1.7759,-0.93795 7.77736,-2.8614 8.92809,-2.8614 0.84725,0 -4.9289,7.2899 -7.40823,9.3497 -2.88714,2.3986 -5.80264,3.6949 -8.98804,3.99627 -2.3016,0.21775 -2.60893,0.1485 -2.60892,-0.58722 z m -86.212825,-4.0505 c -3.2259,-3.5829 -3.59761,-13.22918 -0.77492,-20.10945 l 0.75102,-1.83055 1.09139,5.3391 c 1.82513,8.92865 1.96155,10.18127 1.46478,13.45087 -0.58131,3.826 -1.21449,4.61365 -2.53227,3.15003 z m 85.075555,-2.00825 c -0.67084,-2.58585 -0.71651,-3.5213 -0.30036,-6.15158 0.92284,-5.8327 2.48261,-13.0838 2.81443,-13.0838 0.44079,0 1.56299,3.70538 2.22161,7.33548 0.54847,3.02307 0.34411,7.36962 -0.48936,10.40847 -0.46658,1.70118 -2.40476,4.54105 -3.0992,4.54105 -0.1958,0 -0.712,-1.37232 -1.14712,-3.04962 z m -96.934315,-10.0703 c -1.59253,-0.9013 -3.2971,-2.36915 -4.32141,-3.72128 -1.70635,-2.25242 -6.82225,-12.35127 -6.45242,-12.73717 0.10965,-0.1145 2.57953,1.45575 5.48858,3.48932 5.63419,3.93858 7.82018,6.47303 9.23777,10.71035 1.41897,4.24148 0.48944,4.77268 -3.95252,2.25878 z m 106.525615,0.58955 c 0,-1.47753 1.52233,-5.25063 3.05832,-7.58003 1.00569,-1.5252 2.90196,-3.18062 6.53568,-5.7056 2.81542,-1.95632 5.23134,-3.43967 5.36874,-3.29632 0.13738,0.14325 -1.09987,2.99682 -2.74948,6.34105 -3.18726,6.4614 -4.47358,8.02885 -8.21034,10.00462 -2.7018,1.42855 -4.00291,1.50535 -4.00291,0.23625 z m -1.68505,-3.58033 c -1.87842,-2.75252 -2.68942,-5.87517 -3.17839,-12.2378 -0.26177,-3.40625 -0.46876,-6.83043 -0.45996,-7.60928 l 0.0168,-1.41605 1.11418,1.3928 c 0.61282,0.76605 2.05452,3.35215 3.20379,5.74695 1.97418,4.11368 2.0897,4.56236 2.09188,8.12473 0.002,2.9354 -0.20273,4.1697 -0.92332,5.57233 l -0.9256,1.80172 -0.93859,-1.3754 z M 19.855635,164.63582 c -0.30337,-1.08522 -0.54063,-3.49882 -0.52725,-5.3635 0.022,-3.08215 0.211475,-3.77857 2.083,-7.66048 2.22793,-4.6211 3.62281,-6.75735 4.09237,-6.2674 0.38241,0.39903 -0.58666,13.01966 -1.1872,15.46116 -0.608,2.47187 -2.4897,5.80337 -3.27784,5.80337 -0.3598,0 -0.86882,-0.84892 -1.18308,-1.97315 z m -6.15698,-12.16102 c -2.15807,-1.49186 -3.30899,-2.89128 -4.60348,-5.59731 -1.15899,-2.42282 -3.32432,-12.0785 -2.82539,-12.5991 0.51033,-0.53247 4.282,3.0828 6.03962,5.7892 3.04938,4.69545 3.72046,6.46895 3.78105,9.99235 0.031,1.80148 -0.140925,3.28248 -0.38953,3.35738 -0.244725,0.0738 -1.14574,-0.35037 -2.00227,-0.94252 z m 112.667185,-2.31156 c 0.29282,-4.76075 1.75943,-7.69325 6.36073,-12.71827 2.03026,-2.21723 3.78824,-3.92688 3.90662,-3.79918 0.36474,0.39338 -1.77679,10.31905 -2.71486,12.58308 -1.13704,2.7442 -3.32714,5.3365 -5.47406,6.47935 -0.93112,0.49565 -1.82739,0.90118 -1.99167,0.90118 -0.1643,0 -0.20332,-1.55076 -0.0868,-3.44616 z m -108.945215,-0.0317 c -0.62878,-1.70975 0.139425,-7.58175 1.32164,-10.10315 1.21115,-2.58305 7.46543,-9.7066 7.74733,-8.82412 0.0854,0.26765 -0.66506,3.11822 -1.66792,6.33465 -1.33575,4.28402 -2.41913,6.7774 -4.05092,9.32307 -2.50172,3.9028 -2.95466,4.34485 -3.35013,3.26955 z m 105.519005,-1.74505 c -2.36765,-2.8823 -4.3592,-7.5787 -6.64376,-15.667 l -0.72064,-2.55135 3.60037,3.71205 c 3.90233,4.02335 4.69662,5.27373 5.60201,8.819 0.67871,2.65755 0.80481,7.66045 0.19313,7.66045 -0.22565,0 -1.13965,-0.8879 -2.0311,-1.97315 z M 13.514245,134.81537 c -2.42432,-2.52958 -3.23996,-7.18048 -2.60697,-14.86543 l 0.34416,-4.17842 1.98511,3.01775 c 3.55646,5.40647 4.82989,11.1051 3.55337,15.90127 -0.57615,2.1647 -1.29446,2.19205 -3.27567,0.12475 z m 112.431425,0.33942 c -0.18821,-0.7022 -0.33749,-3.05255 -0.33179,-5.22302 0.01,-3.73178 0.1093,-4.1356 1.83001,-7.42833 2.70513,-5.17667 3.46977,-6.49362 3.77221,-6.49685 0.15036,-0.001 0.40847,2.34743 0.57377,5.2201 0.43036,7.47978 -0.61831,12.1797 -3.1882,14.28895 -1.52211,1.2493 -2.251,1.15028 -2.656,-0.36085 z M 18.148145,132.34427 c 0,-2.45228 1.86757,-6.11528 4.35598,-8.54378 2.55895,-2.49735 8.99251,-6.54705 8.99251,-5.6605 0,0.3999 -5.81334,9.05638 -7.45122,11.09535 -1.57718,1.96345 -4.87087,4.87485 -5.51493,4.87485 -0.210275,0 -0.38234,-0.79465 -0.38234,-1.76592 z m 103.017015,-0.43393 c -1.44502,-1.21587 -3.47617,-3.5687 -4.51369,-5.22847 -1.03752,-1.65978 -2.7091,-4.16418 -3.71463,-5.56533 -1.00553,-1.40115 -1.62607,-2.6179 -1.37896,-2.70385 0.97368,-0.33865 6.18103,3.05838 8.74569,5.70528 2.63699,2.72152 3.86195,5.17387 4.27391,8.55627 0.21719,1.78338 -0.60335,1.59968 -3.41232,-0.7639 z M 18.050645,119.13747 c -1.54356,-3.02908 -1.36097,-8.05155 0.50835,-13.98193 0.79407,-2.51925 1.6085,-4.39955 1.80983,-4.17843 0.2013,0.221 0.7963,1.92595 1.32214,3.78855 1.59564,5.65173 1.16326,11.52198 -1.11597,15.15158 -0.41217,0.65635 -0.92253,1.1934 -1.13412,1.1934 -0.2116,0 -0.8372,-0.88795 -1.39023,-1.97317 z m 103.475735,-0.19675 c -1.12577,-1.9984 -1.27516,-2.74285 -1.3814,-6.88345 -0.0996,-3.88161 0.0496,-5.13741 0.90968,-7.66046 0.56583,-1.65977 1.22011,-2.99287 1.45396,-2.96247 0.60324,0.0785 2.84199,7.79855 3.16239,10.90513 0.30446,2.95215 -0.66016,6.74357 -2.04951,8.0555 -0.79588,0.75157 -0.88888,0.68702 -2.09512,-1.45425 z m -99.373685,-0.3312 c 0,-1.4415 3.01332,-5.2442 5.57655,-7.03735 3.26269,-2.28248 10.44164,-4.77941 10.44164,-3.63176 0,0.22525 -1.55175,1.7787 -3.44836,3.45181 -6.76959,5.97187 -12.56983,9.30225 -12.56983,7.2173 z m 94.376015,-0.75355 c -3.91524,-2.25185 -12.94978,-9.82253 -12.08201,-10.12436 0.77439,-0.26932 4.90283,0.86808 7.55179,2.08055 3.16067,1.44673 5.98061,3.89776 7.40769,6.43861 1.84454,3.28417 0.92936,3.7947 -2.87747,1.6052 z M 25.452195,105.97571 c -0.47867,-2.66225 0.079,-6.983521 1.14798,-8.894847 1.27122,-2.273025 5.03711,-7.514351 5.4097,-7.529151 0.49985,-0.02 0.68092,4.728451 0.29687,7.785451 -0.42611,3.391927 -1.54067,5.894797 -3.77332,8.473377 -1.97109,2.2765 -2.69467,2.31527 -3.08123,0.16525 z m 88.720095,-0.07 c -2.94811,-3.20702 -3.63911,-5.25285 -3.80265,-11.258547 l -0.14548,-5.339126 1.61617,1.857076 c 4.76228,5.4722 6.26272,9.765147 5.25342,15.030777 -0.36236,1.89052 -0.97262,1.8299 -2.92155,-0.29018 z m -84.812975,0.3026 c 0.40904,-1.28837 4.82734,-4.56742 7.10548,-5.27335 2.47894,-0.76812 10.60509,-1.007121 10.60509,-0.3119 0,0.3983 -7.7022,4.10163 -10.61126,5.102 -0.81937,0.28178 -2.79841,0.65223 -4.39784,0.8232 -2.38719,0.2552 -2.87108,0.19425 -2.70147,-0.33995 z m 80.003515,0.2085 c -3.4357,-0.53985 -13.793445,-4.93445 -13.793445,-5.85232 0,-0.29323 1.83598,-0.38418 5.005685,-0.248 3.95847,0.17 5.43724,0.43065 7.06852,1.24537 2.19153,1.09453 5.72377,4.0123 5.72377,4.72808 0,0.4188 -1.78627,0.4754 -4.00453,0.12675 z M 41.374185,97.903263 c -1.86492,-0.46085 -2.1261,-0.7479 -1.45186,-1.595575 1.91514,-2.407825 8.80455,-3.015725 13.94577,-1.23055 2.60854,0.90575 4.20129,1.87335 3.12817,1.90035 -0.198,0.005 -2.96292,0.316275 -6.14432,0.691775 -6.3391,0.748176 -7.30093,0.771926 -9.47776,0.234 z m 47.3086,-0.52365 c -3.66576,-0.55705 -3.80213,-0.666725 -1.89883,-1.527275 4.97649,-2.250075 10.12068,-2.531325 13.956165,-0.763025 2.11456,0.974875 2.77423,1.806575 1.89423,2.3882 -0.77049,0.5092 -10.401055,0.441625 -13.951565,-0.098 z m -52.44002,-0.256425 c -0.50987,-0.532025 -0.32437,-3.8297 0.30336,-5.392725 0.33,-0.821675 1.16371,-2.191551 1.85266,-3.044126 1.33709,-1.654675 7.34119,-6.2599 7.68866,-5.897325 0.1142,0.11925 -0.31124,1.9536 -0.94557,4.076425 -1.24279,4.159151 -3.0403,6.822701 -6.23282,9.235751 -1.85051,1.398725 -2.18307,1.526175 -2.66629,1.022 z m 67.985655,-0.55455 c -1.72006,-1.09435 -4.795985,-4.72715 -5.716715,-6.751725 -1.00463,-2.209026 -2.0137,-6.516326 -1.56818,-6.693876 0.67643,-0.269575 4.206445,2.5813 6.760605,5.459875 2.53679,2.859051 3.21587,4.544226 2.91409,7.231776 -0.18722,1.66725 -0.69999,1.829025 -2.3898,0.75395 z M 47.701075,90.305413 c -0.42771,-1.163001 1.50041,-4.809376 3.07121,-5.808101 1.13026,-0.71865 8.17993,-3.314076 9.00163,-3.314076 1.54617,0 -4.53569,7.267326 -7.17588,8.574552 -2.43297,1.204675 -4.56754,1.443375 -4.89696,0.547625 z m 43.63197,-0.02 c -0.98402,-0.321725 -2.34906,-0.967776 -3.03342,-1.435651 -1.41443,-0.967025 -6.23085,-7.198675 -5.86161,-7.583976 0.1332,-0.139 2.0538,0.351251 4.26784,1.089551 4.56401,1.5219 7.17302,3.492475 7.97312,6.0221 0.82802,2.617851 0.0982,3.034051 -3.34593,1.907976 z"
       id="path4665"
       inkscape:connector-curvature="0" />
  </g>
</svg>
