<svg width="309" height="660" viewBox="0 0 309 660" fill="none" xmlns="http://www.w3.org/2000/svg">
<path fill-rule="evenodd" clip-rule="evenodd" d="M0 267.5C0 234 28 206 63 206C43 184 30.5 154 30.5 123.5C30.5 55 86 0 155 0C224 0 278.5 56 278.5 123.5C278.5 161.9 261 195.5 233 218.5C248.2 229.7 258 247.5 258 268V474C286.8 479.2 309 504.5 309 536V597.5C309 631.5 281.5 659.5 247 659.5H62C27.6 659.5 0 631.5 0 597.5V537C0 504.6 22 479.5 50 474.5V390.5C22 386 0 360.5 0 336.5V267.5ZM62 278.515C62 267.065 70.326 258 79.4846 258H190.22C200.544 258 207.705 267.065 207.705 278.038V513.72H234.348C243.007 513.72 251 523.261 251 533.28V592.916C251 603.603 242.674 612 234.348 612H79.4846C69.4934 612 62 601.981 62 592.439V533.757C62 521.926 69.4934 513.72 79.4846 513.72H105.295V356.757H79.4846C69.8264 356.757 62 347.693 62 337.197V278.515ZM155 192C194.212 192 226 160.212 226 121C226 81.7878 194.212 50 155 50C115.788 50 84 81.7878 84 121C84 160.212 115.788 192 155 192Z" fill="white"/>
<path fill-rule="evenodd" clip-rule="evenodd" d="M0 267.5C0 234 28 206 63 206C43 184 30.5 154 30.5 123.5C30.5 55 86 0 155 0C224 0 278.5 56 278.5 123.5C278.5 161.9 261 195.5 233 218.5C248.2 229.7 258 247.5 258 268V474C286.8 479.2 309 504.5 309 536V597.5C309 631.5 281.5 659.5 247 659.5H62C27.6 659.5 0 631.5 0 597.5V537C0 504.6 22 479.5 50 474.5V390.5C22 386 0 360.5 0 336.5V267.5ZM62 278.515C62 267.065 70.326 258 79.4846 258H190.22C200.544 258 207.705 267.065 207.705 278.038V513.72H234.348C243.007 513.72 251 523.261 251 533.28V592.916C251 603.603 242.674 612 234.348 612H79.4846C69.4934 612 62 601.981 62 592.439V533.757C62 521.926 69.4934 513.72 79.4846 513.72H105.295V356.757H79.4846C69.8264 356.757 62 347.693 62 337.197V278.515ZM155 192C194.212 192 226 160.212 226 121C226 81.7878 194.212 50 155 50C115.788 50 84 81.7878 84 121C84 160.212 115.788 192 155 192Z" fill="#451855"/>
</svg>
