<svg width="670" height="533" viewBox="0 0 670 533" fill="none" xmlns="http://www.w3.org/2000/svg">
<path fill-rule="evenodd" clip-rule="evenodd" d="M50 410C22.3858 410 0 432.386 0 460V483C0 510.614 22.3858 533 50 533H620C647.614 533 670 510.614 670 483V460C670 432.386 647.614 410 620 410H50ZM67.5 439C49.5507 439 35 453.551 35 471.5C35 489.449 49.5508 504 67.5 504H603.5C621.449 504 636 489.449 636 471.5C636 453.551 621.449 439 603.5 439H67.5Z" fill="white"/>
<path fill-rule="evenodd" clip-rule="evenodd" d="M50 0C22.3858 0 0 22.3858 0 50V73C0 100.614 22.3858 123 50 123H620C647.614 123 670 100.614 670 73V50C670 22.3858 647.614 0 620 0H50ZM67.5 29C49.5507 29 35 43.5507 35 61.5C35 79.4493 49.5508 94 67.5 94H603.5C621.449 94 636 79.4493 636 61.5C636 43.5507 621.449 29 603.5 29H67.5Z" fill="white"/>
<path fill-rule="evenodd" clip-rule="evenodd" d="M50 205C22.3858 205 0 227.386 0 255V278C0 305.614 22.3858 328 50 328H620C647.614 328 670 305.614 670 278V255C670 227.386 647.614 205 620 205H50ZM67.5 234C49.5507 234 35 248.551 35 266.5C35 284.449 49.5508 299 67.5 299H603.5C621.449 299 636 284.449 636 266.5C636 248.551 621.449 234 603.5 234H67.5Z" fill="white"/>
</svg>
