<svg width="1328" height="1080" viewBox="0 0 1328 1080" fill="none" xmlns="http://www.w3.org/2000/svg">
<g clip-path="url(#clip0)">
<path d="M214 70L331.5 0V140.5L214 70Z" fill="#764296"/>
<path d="M647 147L764.5 77V217.5L647 147Z" fill="#975AA1"/>
<path d="M499 382L616.5 312V452.5L499 382Z" fill="#975AA1"/>
<path d="M356 303L473.5 233V373.5L356 303Z" fill="#804999"/>
<path d="M214 382L331.5 312V452.5L214 382Z" fill="#B772AD"/>
<path d="M71 619L188.5 549V689.5L71 619Z" fill="#975AA1"/>
<path d="M636 776.747L755 706V848L636 776.747Z" fill="#975AA1"/>
<path d="M891 777.249L773 707V848L891 777.249Z" fill="#B772AD"/>
<path d="M1317 700.249L1199 630V771L1317 700.249Z" fill="#975AA1"/>
<path d="M1034 621.893L984 592V652L1034 621.893Z" fill="#975AA1"/>
<path d="M920 623.893L970 594V654L920 623.893Z" fill="#975AA1"/>
<path d="M992 660.893L1042 631V691L992 660.893Z" fill="#975AA1"/>
<path d="M1180 699.893L1130 670V730L1180 699.893Z" fill="#7B4597"/>
<path d="M1252 582.893L1201 553V613L1252 582.893Z" fill="#975AA1"/>
<path d="M1106 982.893L1056 953V1013L1106 982.893Z" fill="#975AA1"/>
<path d="M822 1049.89L771 1020V1080L822 1049.89Z" fill="#975AA1"/>
<path d="M399 654.893L348 625V685L399 654.893Z" fill="#975AA1"/>
<path d="M683 586.893L632 557V617L683 586.893Z" fill="#975AA1"/>
<path d="M829 186.893L778 157V217L829 186.893Z" fill="#7B4597"/>
<path d="M1066 698.893L1116 669V729L1066 698.893Z" fill="#975AA1"/>
<path d="M424 738.893L474 709V769L424 738.893Z" fill="#975AA1"/>
<path d="M1277 737.886L1330 706V770L1277 737.886Z" fill="#975AA1"/>
<path d="M1134 738.893L1184 709V769L1134 738.893Z" fill="#975AA1"/>
<path d="M1203 540.893L1253 511V571L1203 540.893Z" fill="#975AA1"/>
<path d="M992 582.893L1042 553V613L992 582.893Z" fill="#975AA1"/>
<path d="M776 856.893L826 827V887L776 856.893Z" fill="#975AA1"/>
<path d="M851 893.893L901 864V924L851 893.893Z" fill="#975AA1"/>
<path d="M851 813.893L901 784V844L851 813.893Z" fill="#975AA1"/>
<path d="M609 855.893L559 826V886L609 855.893Z" fill="#B772AD"/>
<path d="M494 857.893L544 828V888L494 857.893Z" fill="#975AA1"/>
<path d="M567 894.893L617 865V925L567 894.893Z" fill="#975AA1"/>
<path d="M567 816.893L617 787V847L567 816.893Z" fill="#975AA1"/>
<path d="M468 462.893L418 433V493L468 462.893Z" fill="#975AA1"/>
<path d="M353 460.893L403 431V491L353 460.893Z" fill="#975AA1"/>
<path d="M428 497.893L478 468V528L428 497.893Z" fill="#975AA1"/>
<path d="M428 418.893L478 389V449L428 418.893Z" fill="#975AA1"/>
<path d="M610 225.893L560 196V256L610 225.893Z" fill="#B772AD"/>
<path d="M497 227.893L547 198V258L497 227.893Z" fill="#975AA1"/>
<path d="M569 264.893L619 235V295L569 264.893Z" fill="#975AA1"/>
<path d="M569 186.893L619 157V217L569 186.893Z" fill="#975AA1"/>
<path d="M186 459.893L136 430V490L186 459.893Z" fill="#975AA1"/>
<path d="M70 461.893L120 432V492L70 461.893Z" fill="#975AA1"/>
<path d="M0 343.395L50 314V373L0 343.395Z" fill="#975AA1"/>
<path d="M144 498.893L194 469V529L144 498.893Z" fill="#975AA1"/>
<path d="M144 420.893L194 391V451L144 420.893Z" fill="#975AA1"/>
<path d="M753 694.249L635 624V765L753 694.249Z" fill="#975AA1"/>
<path d="M605 779.249L487 709V850L605 779.249Z" fill="#764296"/>
<path d="M608 462.249L490 392V533L608 462.249Z" fill="#975AA1"/>
<path d="M182 383.249L64 313V454L182 383.249Z" fill="#7B4597"/>
<path d="M894 305.249L776 235V376L894 305.249Z" fill="#975AA1"/>
<path d="M757 304.893L707 275V335L757 304.893Z" fill="#975AA1"/>
<path d="M643 302.893L693 273V333L643 302.893Z" fill="#975AA1"/>
<path d="M711 343.391L761 313V374L711 343.391Z" fill="#975AA1"/>
<path d="M711 265.893L761 236V296L711 265.893Z" fill="#975AA1"/>
<path d="M780 145.395L830 116V175L780 145.395Z" fill="#975AA1"/>
<path d="M854 342.395L904 313V372L854 342.395Z" fill="#975AA1"/>
<path d="M752 226.249L634 156V297L752 226.249Z" fill="#764296"/>
<path d="M605 303.249L487 233V374L605 303.249Z" fill="#7B4597"/>
<path d="M468 381.249L350 311V452L468 381.249Z" fill="#975AA1"/>
<path d="M778 698.747L897 628V770L778 698.747Z" fill="#975AA1"/>
<path d="M921 777.747L1040 707V849L921 777.747Z" fill="#975AA1"/>
<path d="M637 465.747L756 395V537L637 465.747Z" fill="#975AA1"/>
<path d="M349 296.43V0V-1L609 148L349 296.43Z" fill="#804999"/>
<path d="M206 686.43V390V389L466 538L206 686.43Z" fill="#7B4597"/>
<path d="M620 765V468.999V468L360 616.785L620 765Z" fill="#B772AD"/>
</g>
<defs>
<clipPath id="clip0">
<rect width="1328" height="1080" fill="white"/>
</clipPath>
</defs>
</svg>
