<?xml version="1.0" encoding="UTF-8"?>
<!DOCTYPE svg PUBLIC "-//W3C//DTD SVG 1.1//EN" "http://www.w3.org/Graphics/SVG/1.1/DTD/svg11.dtd">
<!-- Creator: CorelDRAW 2019 (64 Bit Versão de avaliação) -->
<svg xmlns="http://www.w3.org/2000/svg" xml:space="preserve" width="210mm" height="210mm" version="1.1" style="shape-rendering:geometricPrecision; text-rendering:geometricPrecision; image-rendering:optimizeQuality; fill-rule:evenodd; clip-rule:evenodd"
viewBox="0 0 21000 21000"
 xmlns:xlink="http://www.w3.org/1999/xlink"
 xmlns:xodm="http://www.corel.com/coreldraw/odm/2003">
 <defs>
  <style type="text/css">
   <![CDATA[
    .str0 {stroke:#359745;stroke-width:158.75;stroke-miterlimit:22.9256}
    .fil2 {fill:none}
    .fil1 {fill:black}
    .fil0 {fill:#379846}
    .fil3 {fill:#C82026}
   ]]>
  </style>
 </defs>
 <g id="Camada_x0020_1">
  <metadata id="CorelCorpID_0Corel-Layer"/>
  <g id="_1978956190352">
   <path class="fil0" d="M8817.17 1679.1c0,821.8 -666.75,1488 -1489.23,1488 -822.5,0 -1489.24,-666.2 -1489.24,-1488 0,-821.8 666.74,-1488 1489.24,-1488 822.48,0 1489.23,666.2 1489.23,1488z"/>
   <polygon class="fil0" points="9184.89,485.02 9184.89,2864.61 9221.67,2909.91 9295.21,2983.4 9368.75,3020.14 11685.35,3020.14 11758.89,2983.4 11832.45,2909.91 11869.21,2836.43 11869.21,485.02 11850.83,448.28 11777.29,374.8 11722.13,338.06 9331.97,338.06 "/>
   <polygon class="fil0" points="12384.01,485.02 12384.01,2864.61 12420.79,2909.91 12494.33,2983.4 12567.87,3020.14 14884.47,3020.14 14958.01,2983.4 15031.55,2909.91 15068.32,2836.43 15068.32,485.02 15049.95,448.28 14976.41,374.8 14921.24,338.06 12531.09,338.06 "/>
   <polygon class="fil0" points="12384.01,6877.92 12384.01,9257.52 12420.79,9302.82 12494.33,9376.3 12567.87,9413.04 14884.47,9413.04 14958.01,9376.3 15031.55,9302.82 15068.32,9229.34 15068.32,6877.92 15049.95,6841.18 14976.41,6767.7 14921.24,6730.96 12531.09,6730.96 "/>
   <polygon class="fil0" points="9184.89,3681.48 9184.89,6061.06 9221.67,6106.37 9295.21,6179.85 9368.75,6216.6 11685.35,6216.6 11758.89,6179.85 11832.45,6106.37 11869.21,6032.89 11869.21,3681.48 11850.83,3644.74 11777.29,3571.26 11722.13,3534.51 9331.97,3534.51 "/>
   <polygon class="fil0" points="9184.89,6877.92 9184.89,9257.52 9221.67,9302.82 9295.21,9376.3 9368.75,9413.04 11685.35,9413.04 11758.89,9376.3 11832.45,9302.82 11869.21,9229.34 11869.21,6877.92 11850.83,6841.18 11777.29,6767.7 11722.13,6730.96 9331.97,6730.96 "/>
   <polygon class="fil0" points="9184.89,10074.38 9184.89,12453.96 9221.67,12499.28 9295.21,12572.76 9368.75,12609.5 11685.35,12609.5 11758.89,12572.76 11832.45,12499.28 11869.21,12425.8 11869.21,10074.38 11850.83,10037.64 11777.29,9964.16 11722.13,9927.42 9331.97,9927.42 "/>
   <polygon class="fil0" points="5985.78,3681.48 5985.78,6061.06 6022.55,6106.37 6096.09,6179.85 6169.63,6216.6 8486.23,6216.6 8559.77,6179.85 8633.33,6106.37 8670.09,6032.89 8670.09,3681.48 8651.71,3644.74 8578.17,3571.26 8523.01,3534.51 6132.87,3534.51 "/>
   <polygon class="fil0" points="5985.78,6877.92 5985.78,9257.52 6022.55,9302.82 6096.09,9376.3 6169.63,9413.04 8486.23,9413.04 8559.77,9376.3 8633.33,9302.82 8670.09,9229.34 8670.09,6877.92 8651.71,6841.18 8578.17,6767.7 8523.01,6730.96 6132.87,6730.96 "/>
   <polygon class="fil0" points="5985.78,10074.38 5985.78,12453.96 6022.55,12499.28 6096.09,12572.76 6169.63,12609.5 8486.23,12609.5 8559.77,12572.76 8633.33,12499.28 8670.09,12425.8 8670.09,10074.38 8651.71,10037.64 8578.17,9964.16 8523.01,9927.42 6132.87,9927.42 "/>
   <path class="fil1" d="M1566.73 14986.23l-185.68 0 0 -1408.09 185.68 0 0 1408.09zm1422.6 0l-186.65 0 -708.88 -1085.07 0 1085.07 -186.65 0 0 -1408.09 186.65 0 710.82 1089.93 0 -1089.93 184.71 0 0 1408.09zm744.65 -627.63c-159.24,-45.79 -275.29,-101.89 -348.15,-168.29 -72.21,-67.04 -108.3,-149.58 -108.3,-247.58 0,-110.89 44.15,-202.44 132.49,-274.65 88.96,-72.84 204.37,-109.27 346.2,-109.27 96.72,0 182.79,18.7 258.23,56.09 76.08,37.39 134.75,88.97 176,154.72 41.91,65.78 62.87,137.66 62.87,215.68l-186.65 0c0,-85.11 -27.08,-151.84 -81.23,-200.2 -54.17,-48.99 -130.56,-73.48 -229.22,-73.48 -91.54,0 -163.1,20.3 -214.67,60.92 -50.94,39.96 -76.42,95.74 -76.42,167.3 0,57.37 24.19,106.06 72.53,146.03 49,39.33 131.86,75.44 248.55,108.32 117.35,32.87 208.89,69.3 274.65,109.27 66.41,39.33 115.41,85.42 147,138.3 32.24,52.87 48.37,115.08 48.37,186.66 0,114.1 -44.5,205.66 -133.47,274.64 -88.97,68.33 -207.93,102.52 -356.85,102.52 -96.72,0 -186.97,-18.38 -270.79,-55.14 -83.82,-37.39 -148.61,-88.31 -194.4,-152.78 -45.11,-64.49 -67.69,-137.65 -67.69,-219.53l186.65 0c0,85.08 31.27,152.46 93.82,202.12 63.18,49 147.32,73.5 252.41,73.5 98,0 173.1,-20 225.33,-59.97 52.21,-39.97 78.34,-94.46 78.34,-163.44 0,-68.99 -24.19,-122.16 -72.53,-159.56 -48.37,-38.05 -136.06,-75.44 -263.07,-112.18zm1734.01 -627.66l-452.59 0 0 1255.29 -184.74 0 0 -1255.29 -451.61 0 0 -152.8 1088.94 0 0 152.8zm408.12 1255.29l-185.69 0 0 -1408.09 185.69 0 0 1408.09zm1284.29 -1255.29l-452.59 0 0 1255.29 -184.71 0 0 -1255.29 -451.64 0 0 -152.8 1088.94 0 0 152.8zm1200.16 -152.8l0 957.43c-0.63,132.82 -42.54,241.45 -125.72,325.9 -82.52,84.46 -194.7,131.85 -336.55,142.17l-49.32 1.94c-154.09,0 -276.91,-41.59 -368.45,-124.76 -91.57,-83.16 -137.99,-197.6 -139.28,-343.31l0 -959.37 183.77 0 0 953.56c0,101.86 28.04,181.17 84.13,237.89 56.09,56.12 136.03,84.16 239.83,84.16 105.09,0 185.37,-28.04 240.81,-84.16 56.09,-56.09 84.13,-135.05 84.13,-236.91l0 -954.54 186.65 0zm1265.93 152.8l-452.59 0 0 1255.29 -184.73 0 0 -1255.29 -451.62 0 0 -152.8 1088.94 0 0 152.8zm1264.95 596.7c0,137.97 -23.21,258.53 -69.62,361.7 -46.42,102.52 -112.18,180.85 -197.28,235 -85.11,54.15 -184.4,81.24 -297.87,81.24 -110.89,0 -209.21,-27.09 -294.97,-81.24 -85.74,-54.8 -152.47,-132.48 -200.18,-233.08 -47.08,-101.2 -71.24,-218.22 -72.53,-351.04l0 -101.55c0,-135.39 23.53,-254.98 70.59,-358.78 47.05,-103.81 113.47,-183.11 199.23,-237.91 86.4,-55.47 185.03,-83.17 295.92,-83.17 112.84,0 212.13,27.39 297.86,82.19 86.4,54.15 152.81,133.14 199.23,236.94 46.41,103.16 69.62,223.4 69.62,360.73l0 88.97zm-184.71 -90.91c0,-166.98 -33.53,-294.95 -100.58,-383.94 -67.04,-89.6 -160.86,-134.42 -281.42,-134.42 -117.33,0 -209.86,44.82 -277.56,134.42 -67.04,88.99 -101.55,212.78 -103.47,371.36l0 103.49c0,161.84 33.85,289.17 101.54,382 68.34,92.19 162.16,138.31 281.43,138.31 119.91,0 212.76,-43.54 278.52,-130.56 65.77,-87.68 99.62,-213.1 101.54,-376.2l0 -104.46zm1731.11 127.67l-590.89 0 0 621.83 -185.69 0 0 -1408.09 872.3 0 0 152.8 -686.61 0 0 481.63 590.89 0 0 151.83zm1114.09 -29.02l-610.24 0 0 499.02 708.88 0 0 151.83 -894.57 0 0 -1408.09 884.9 0 0 152.8 -699.21 0 0 452.61 610.24 0 0 151.83zm329.77 650.85l0 -1408.09 397.48 0c122.49,0 230.81,27.07 324.93,81.25 94.14,54.14 166.67,131.19 217.61,231.13 51.58,99.93 77.68,214.7 78.33,344.29l0 89.94c0,132.8 -25.79,249.18 -77.36,349.12 -50.94,99.92 -124.12,176.65 -219.53,230.17 -94.77,53.49 -205.35,80.9 -331.71,82.19l-389.75 0zm185.69 -1255.29l0 1103.46 195.35 0c143.13,0 254.34,-44.48 333.64,-133.45 79.95,-88.97 119.93,-215.67 119.93,-380.08l0 -82.2c0,-159.89 -37.73,-284 -113.15,-372.33 -74.79,-88.97 -181.16,-134.11 -319.16,-135.4l-216.61 0zm1910 604.44l-610.23 0 0 499.02 708.88 0 0 151.83 -894.56 0 0 -1408.09 884.89 0 0 152.8 -699.21 0 0 452.61 610.23 0 0 151.83zm846.21 81.23l-330.74 0 0 569.62 -186.65 0 0 -1408.09 466.13 0c158.61,0 280.45,36.11 365.57,108.32 85.75,72.21 128.62,177.3 128.62,315.27 0,87.69 -23.85,164.08 -71.57,229.2 -47.05,65.12 -112.83,113.8 -197.29,146.03l330.75 597.67 0 11.6 -199.21 0 -305.61 -569.62zm-330.74 -151.83l285.29 0c92.19,0 165.37,-23.85 219.52,-71.56 54.81,-47.71 82.2,-111.55 82.2,-191.49 0,-87.05 -26.1,-153.78 -78.33,-200.18 -51.58,-46.43 -126.36,-69.95 -224.37,-70.61l-284.31 0 0 533.84zm1812.33 353.95l-589.92 0 -132.5 367.5 -191.49 0 537.71 -1408.09 162.47 0 538.67 1408.09 -190.51 0 -134.43 -367.5zm-533.83 -152.8l478.71 0 -239.85 -658.57 -238.86 658.57zm1234.97 368.47l667.3 0 0 151.83 -853.95 0 0 -1408.09 186.65 0 0 1256.26z"/>
   <path class="fil1" d="M9097.73 16856.74c-17.42,148.94 -72.53,264.01 -165.39,345.25 -92.19,80.6 -215.01,120.91 -368.45,120.91 -166.35,0 -299.8,-59.66 -400.38,-178.94 -99.94,-119.27 -149.89,-278.82 -149.89,-478.71l0 -135.37c0,-130.9 23.19,-245.97 69.62,-345.26 47.06,-99.29 113.47,-175.36 199.23,-228.25 85.74,-53.49 185.02,-80.25 297.86,-80.25 149.58,0 269.51,41.91 359.76,125.71 90.26,83.18 142.8,198.58 157.64,346.23l-186.66 0c-16.12,-112.19 -51.26,-193.43 -105.41,-243.72 -53.51,-50.28 -128.62,-75.42 -225.33,-75.42 -118.64,0 -211.81,43.83 -279.5,131.51 -67.04,87.69 -100.58,212.45 -100.58,374.28l0 136.35c0,152.8 31.93,274.33 95.74,364.61 63.84,90.25 153.13,135.39 267.9,135.39 103.15,0 182.14,-23.21 236.94,-69.64 55.44,-47.06 92.2,-128.62 110.24,-244.68l186.66 0zm660.51 466.16c-141.83,0 -257.24,-46.43 -346.22,-139.28 -88.96,-93.49 -133.45,-218.24 -133.45,-374.26l0 -32.88c0,-103.8 19.67,-196.31 58.99,-277.56 39.96,-81.87 95.42,-145.71 166.35,-191.48 71.56,-46.43 148.92,-69.64 232.08,-69.64 136.06,0 241.78,44.82 317.22,134.44 75.44,89.61 113.15,217.91 113.15,384.89l0 74.48 -708.88 0c2.58,103.14 32.56,186.65 89.94,250.46 58.04,63.18 131.53,94.79 220.5,94.79 63.19,0 116.7,-12.91 160.53,-38.7 43.85,-25.78 82.22,-59.95 115.09,-102.49l109.27 85.08c-87.68,134.77 -219.19,202.15 -394.57,202.15zm-22.25 -938.1c-72.19,0 -132.8,26.44 -181.8,79.3 -49,52.23 -79.3,125.73 -90.9,220.5l524.16 0 0 -13.54c-5.17,-90.89 -29.67,-161.18 -73.5,-210.82 -43.85,-50.28 -103.17,-75.44 -177.96,-75.44zm1284.31 918.75c-10.32,-20.64 -18.7,-57.38 -25.14,-110.25 -83.18,86.4 -182.47,129.6 -297.85,129.6 -103.18,0 -187.95,-29.02 -254.35,-87.05 -65.78,-58.67 -98.66,-132.82 -98.66,-222.42 0,-108.98 41.28,-193.43 123.78,-253.39 83.19,-60.6 199.87,-90.9 350.1,-90.9l174.07 0 0 -82.22c0,-62.53 -18.69,-112.18 -56.09,-148.92 -37.39,-37.39 -92.51,-56.09 -165.36,-56.09 -63.83,0 -117.35,16.12 -160.55,48.35 -43.19,32.24 -64.78,71.24 -64.78,117.01l-179.88 0c0,-52.21 18.36,-102.5 55.12,-150.86 37.4,-49 87.69,-87.68 150.87,-116.05 63.83,-28.36 133.77,-42.56 209.86,-42.56 120.56,0 215.01,30.3 283.34,90.91 68.35,59.97 103.81,142.82 106.38,248.55l0 481.6c0,96.08 12.26,172.47 36.77,229.21l0 15.48 -187.63 0zm-296.89 -136.37c56.09,0 109.28,-14.5 159.57,-43.52 50.29,-29.01 86.72,-66.72 109.27,-113.14l0 -214.7 -140.22 0c-219.21,0 -328.81,64.15 -328.81,192.45 0,56.09 18.7,99.94 56.1,131.53 37.39,31.59 85.42,47.38 144.09,47.38zm1234.01 -749.51c-27.09,-4.49 -56.43,-6.75 -88.02,-6.75 -117.33,0 -196.95,49.95 -238.85,149.9l0 742.73 -178.91 0 0 -1046.4 174.07 0 2.89 120.88c58.67,-93.49 141.86,-140.23 249.53,-140.23 34.81,0 61.23,4.51 79.29,13.55l0 166.32zm772.7 885.88c-10.32,-20.64 -18.69,-57.38 -25.13,-110.25 -83.17,86.4 -182.46,129.6 -297.87,129.6 -103.17,0 -187.94,-29.02 -254.35,-87.05 -65.75,-58.67 -98.65,-132.82 -98.65,-222.42 0,-108.98 41.27,-193.43 123.79,-253.39 83.18,-60.6 199.88,-90.9 350.09,-90.9l174.08 0 0 -82.22c0,-62.53 -18.7,-112.18 -56.1,-148.92 -37.39,-37.39 -92.51,-56.09 -165.36,-56.09 -63.83,0 -117.35,16.12 -160.54,48.35 -43.2,32.24 -64.79,71.24 -64.79,117.01l-179.88 0c0,-52.21 18.36,-102.5 55.12,-150.86 37.39,-49 87.68,-87.68 150.86,-116.05 63.84,-28.36 133.79,-42.56 209.87,-42.56 120.56,0 215.01,30.3 283.35,90.91 68.35,59.97 103.8,142.82 106.38,248.55l0 481.6c0,96.08 12.25,172.47 36.75,229.21l0 15.48 -187.62 0zm-296.9 -136.37c56.1,0 109.3,-14.5 159.59,-43.52 50.29,-29.01 86.7,-66.72 109.27,-113.14l0 -214.7 -140.24 0c-219.19,0 -328.79,64.15 -328.79,192.45 0,56.09 18.7,99.94 56.09,131.53 37.39,31.59 85.42,47.38 144.08,47.38zm165.39 -1349.09l216.61 0 -259.18 284.31 -144.08 0 186.65 -284.31z"/>
   <line class="fil2 str0" x1="2293.41" y1="18016.57" x2="18613.61" y2= "18016.57" />
   <path class="fil1" d="M4621.55 20005.88c-17.41,148.95 -72.53,264.02 -165.38,345.22 -92.2,80.62 -215.01,121.02 -368.45,121.02 -166.35,0 -299.81,-59.62 -400.38,-179.05 -99.94,-119.23 -149.89,-278.87 -149.89,-478.71l0 -135.31c0,-130.91 23.19,-245.98 69.61,-345.27 47.07,-99.28 113.47,-175.36 199.24,-228.24 85.73,-53.5 185.02,-80.25 297.85,-80.25 149.59,0 269.51,41.91 359.76,125.7 90.26,83.19 142.81,198.58 157.64,346.24l-186.65 0c-16.13,-112.19 -51.26,-193.43 -105.41,-243.72 -53.51,-50.29 -128.62,-75.42 -225.34,-75.42 -118.63,0 -211.8,43.83 -279.5,131.51 -67.04,87.68 -100.57,212.44 -100.57,374.28l0 136.42c0,152.71 31.93,274.32 95.74,364.43 63.83,90.32 153.12,135.48 267.9,135.48 103.15,0 182.13,-23.18 236.94,-69.72 55.43,-46.94 92.2,-128.54 110.24,-244.61l186.65 0zm872.32 446.83c-10.32,-20.59 -18.7,-57.44 -25.15,-110.32 -83.17,86.55 -182.46,129.73 -297.87,129.73 -103.15,0 -187.93,-29.11 -254.35,-87.15 -65.75,-58.62 -98.63,-132.7 -98.63,-222.42 0,-108.93 41.25,-193.31 123.78,-253.31 83.17,-60.62 199.87,-90.92 350.1,-90.92l174.07 0 0 -82.19c0,-62.57 -18.69,-112.22 -56.09,-148.96 -37.39,-37.4 -92.51,-56.09 -165.37,-56.09 -63.82,0 -117.34,16.11 -160.54,48.34 -43.19,32.25 -64.8,71.24 -64.8,117.02l-179.88 0c0,-52.22 18.38,-102.51 55.12,-150.87 37.39,-49 87.68,-87.68 150.88,-116.04 63.82,-28.36 133.78,-42.56 209.85,-42.56 120.58,0 215.02,30.3 283.36,90.91 68.34,59.96 103.81,142.82 106.38,248.54l0 481.68c0,96.06 12.26,172.32 36.74,229.16l0 15.45 -187.6 0zm-296.89 -136.26c56.09,0 109.27,-14.66 159.56,-43.58 50.28,-29.11 86.73,-66.74 109.28,-113.09l0 -214.7 -140.22 0c-219.21,0 -328.82,63.98 -328.82,192.32 0,56.05 18.69,100.02 56.09,131.51 37.39,31.69 85.42,47.54 144.11,47.54zm896.48 -910.13l4.83 116.04c76.73,-90.26 180.22,-135.39 310.45,-135.39 146.36,0 245.96,56.09 298.83,168.29 34.81,-50.31 79.95,-90.91 135.39,-121.87 56.09,-30.93 122.19,-46.42 198.26,-46.42 229.52,0 346.21,121.52 350.09,364.61l0 701.13 -178.93 0 0 -690.44c0,-74.85 -17.07,-130.62 -51.24,-167.38 -34.18,-37.4 -91.56,-56.1 -172.15,-56.1 -66.41,0 -121.53,20.01 -165.36,59.98 -43.85,39.32 -69.32,92.52 -76.41,159.54l0 694.4 -179.88 0 0 -685.69c0,-152.13 -74.47,-228.23 -223.39,-228.23 -117.36,0 -197.6,49.98 -240.81,149.92l0 764 -178.92 0 0 -1046.39 169.24 0zm2452.54 534.8c0,159.24 -36.41,287.58 -109.27,384.83 -72.86,97.44 -171.5,146.17 -295.94,146.17 -126.99,0 -226.94,-40.4 -299.78,-121.02l0 503.87 -178.93 0 0 -1448.65 163.44 0 8.71 116.04c72.85,-90.26 174.08,-135.39 303.67,-135.39 125.73,0 225.02,47.39 297.87,142.16 73.49,94.78 110.23,226.6 110.23,395.55l0 16.44zm-178.9 -20.4c0,-117.85 -25.14,-211.06 -75.43,-279.41 -50.28,-68.33 -119.29,-102.52 -206.97,-102.52 -108.3,0 -189.54,48.06 -243.69,144.12l0 500.04c53.51,95.27 135.39,143 245.64,143 85.73,0 153.77,-33.87 204.06,-101.41 50.92,-68.33 76.39,-169.53 76.39,-303.82zm1053.17 428.6c-69.64,81.8 -171.82,122.8 -306.56,122.8 -111.55,0 -196.66,-32.29 -255.32,-96.85 -58.04,-64.96 -87.36,-161.03 -88,-288.18l0 -680.77 178.91 0 0 676.02c0,158.64 64.47,237.87 193.4,237.87 136.68,0 227.6,-50.9 272.74,-152.71l0 -761.18 178.9 0 0 1046.39 -170.21 0 -3.86 -103.39zm1056.06 -174.09c0,-48.53 -18.37,-85.76 -55.12,-112.3 -36.11,-26.94 -99.61,-50.31 -190.52,-69.53 -90.26,-19.41 -162.15,-42.57 -215.67,-69.71 -52.86,-27.14 -92.19,-59.22 -117.98,-96.66 -25.14,-37.42 -37.71,-81.99 -37.71,-133.49 0,-85.76 36.1,-158.29 108.32,-217.59 72.84,-59.32 165.69,-88.98 278.51,-88.98 118.64,0 214.7,30.64 288.2,91.88 74.15,61.25 111.21,139.59 111.21,234.99l-179.88 0c0,-48.99 -20.95,-91.22 -62.87,-126.67 -41.25,-35.48 -93.48,-53.2 -156.66,-53.2 -65.12,0 -116.04,14.17 -152.8,42.56 -36.75,28.36 -55.12,65.44 -55.12,111.21 0,43.24 17.09,75.72 51.25,97.7 34.17,21.99 95.75,42.78 184.71,62.79 89.63,20.01 162.16,43.97 217.61,71.69 55.44,27.73 96.38,61.21 122.82,100.43 27.08,38.81 40.62,86.15 40.62,142.2 0,93.49 -37.39,168.55 -112.2,225.39 -74.79,56.06 -171.82,84.18 -291.09,84.18 -83.81,0 -157.95,-14.85 -222.42,-44.56 -64.47,-29.71 -115.09,-70.91 -151.83,-123.79 -36.11,-53.48 -54.17,-111.12 -54.17,-173.11l178.92 0c3.21,60.02 27.08,107.75 71.57,143.2 45.11,34.67 104.43,52.09 177.93,52.09 67.7,0 121.87,-13.46 162.47,-40.6 41.28,-27.73 61.9,-64.37 61.9,-110.12zm1708.87 -89.92l-589.95 0 -132.48 367.4 -191.49 0 537.72 -1408.1 162.47 0 538.66 1408.1 -190.51 0 -134.42 -367.4zm-533.84 -152.91l478.7 0 -239.84 -658.56 -238.86 658.56zm1526.06 -365.56c-27.07,-4.5 -56.41,-6.75 -88,-6.75 -117.35,0 -196.97,49.95 -238.88,149.89l0 742.73 -178.91 0 0 -1046.39 174.07 0 2.92 120.87c58.66,-93.48 141.83,-140.22 249.5,-140.22 34.81,0 61.25,4.51 79.3,13.54l0 166.33zm772.71 885.87c-10.31,-20.59 -18.69,-57.44 -25.15,-110.32 -83.17,86.55 -182.45,129.73 -297.87,129.73 -103.14,0 -187.93,-29.11 -254.33,-87.15 -65.77,-58.62 -98.65,-132.7 -98.65,-222.42 0,-108.93 41.26,-193.31 123.79,-253.31 83.17,-60.62 199.86,-90.92 350.1,-90.92l174.07 0 0 -82.19c0,-62.57 -18.7,-112.22 -56.09,-148.96 -37.39,-37.4 -92.52,-56.09 -165.38,-56.09 -63.82,0 -117.34,16.11 -160.53,48.34 -43.2,32.25 -64.8,71.24 -64.8,117.02l-179.89 0c0,-52.22 18.38,-102.51 55.14,-150.87 37.4,-49 87.69,-87.68 150.87,-116.04 63.81,-28.36 133.77,-42.56 209.84,-42.56 120.58,0 215.04,30.3 283.37,90.91 68.35,59.96 103.8,142.82 106.38,248.54l0 481.68c0,96.06 12.25,172.32 36.75,229.16l0 15.45 -187.62 0zm-296.89 -136.26c56.09,0 109.27,-14.66 159.56,-43.58 50.29,-29.11 86.73,-66.74 109.29,-113.09l0 -214.7 -140.23 0c-219.21,0 -328.82,63.98 -328.82,192.32 0,56.05 18.7,100.02 56.09,131.51 37.4,31.69 85.43,47.54 144.11,47.54zm1147.94 9.5c63.82,0 119.59,-19.21 167.31,-58.03 47.7,-38.62 74.13,-86.95 79.29,-144.98l169.25 0c-3.23,60.01 -23.87,117.05 -61.89,171.12 -38.05,54.27 -88.97,97.45 -152.81,129.73 -63.18,32.09 -130.24,48.33 -201.15,48.33 -142.48,0 -255.95,-47.54 -340.42,-142.21 -83.83,-95.46 -125.72,-225.59 -125.72,-390.77l0 -29.9c0,-101.81 18.7,-192.49 56.09,-271.79 37.4,-79.3 90.89,-140.88 160.53,-184.71 70.27,-43.85 153.13,-65.77 248.55,-65.77 117.33,0 214.7,35.13 292.06,105.42 78.02,70.28 119.59,161.5 124.76,273.64l-169.25 0c-5.16,-67.65 -30.95,-123.09 -77.35,-166.29 -45.79,-43.85 -102.52,-65.77 -170.22,-65.77 -90.91,0 -161.5,32.87 -211.78,98.65 -49.66,65.12 -74.48,159.56 -74.48,283.34l0 33.87c0,120.63 24.82,213.31 74.48,278.48 49.63,65.16 120.56,97.64 212.75,97.64zm1263.01 126.76c-10.31,-20.59 -18.69,-57.44 -25.13,-110.32 -83.19,86.55 -182.47,129.73 -297.86,129.73 -103.17,0 -187.94,-29.11 -254.35,-87.15 -65.76,-58.62 -98.66,-132.7 -98.66,-222.42 0,-108.93 41.28,-193.31 123.79,-253.31 83.18,-60.62 199.89,-90.92 350.1,-90.92l174.07 0 0 -82.19c0,-62.57 -18.7,-112.22 -56.09,-148.96 -37.4,-37.4 -92.52,-56.09 -165.36,-56.09 -63.84,0 -117.35,16.11 -160.55,48.34 -43.2,32.25 -64.79,71.24 -64.79,117.02l-179.87 0c0,-52.22 18.35,-102.51 55.12,-150.87 37.39,-49 87.68,-87.68 150.86,-116.04 63.83,-28.36 133.79,-42.56 209.87,-42.56 120.56,0 215.01,30.3 283.34,90.91 68.35,59.96 103.81,142.82 106.38,248.54l0 481.68c0,96.06 12.26,172.32 36.76,229.16l0 15.45 -187.63 0zm-296.89 -136.26c56.09,0 109.29,-14.66 159.58,-43.58 50.29,-29.11 86.71,-66.74 109.27,-113.09l0 -214.7 -140.23 0c-219.21,0 -328.8,63.98 -328.8,192.32 0,56.05 18.7,100.02 56.09,131.51 37.4,31.69 85.42,47.54 144.09,47.54zm970.96 -1163.52l0 253.39 195.36 0 0 138.28 -195.36 0 0 648.85c0,41.98 8.71,73.48 26.12,94.87 17.41,20.59 47.06,30.9 88.97,30.9 20.64,0 49,-3.76 85.1,-11.49l0 144.98c-47.05,12.87 -92.85,19.41 -137.33,19.41 -79.94,0 -140.23,-24.16 -180.85,-72.69 -40.6,-48.33 -60.92,-116.86 -60.92,-205.98l0 -648.85 -190.52 0 0 -138.28 190.52 0 0 -253.39 178.91 0zm599.61 1299.78l-178.91 0 0 -1046.39 178.91 0 0 1046.39zm-193.43 -1323.96c0,-29.01 8.71,-53.51 26.13,-73.5 18.04,-19.99 44.48,-29.96 79.29,-29.96 34.8,0 61.24,9.97 79.29,29.96 18.06,19.99 27.09,44.49 27.09,73.5 0,29.02 -9.03,53.21 -27.09,72.53 -18.05,19.35 -44.49,29.02 -79.29,29.02 -34.81,0 -61.25,-9.67 -79.29,-29.02 -17.42,-19.32 -26.13,-43.51 -26.13,-72.53z"/>
   <circle class="fil3" cx="7334.05" cy="1686.45" r="1495.36"/>
  </g>
 </g>
</svg>
