<svg viewBox="0 0 933 478" fill="none" xmlns="http://www.w3.org/2000/svg">
<g id="Lar">
<path id="LAR" fill-rule="evenodd" clip-rule="evenodd" d="M715.293 24.6141C707.164 24.4855 699.094 26.0276 691.581 29.1457C684.068 32.2639 677.27 36.892 671.605 42.7454C665.772 48.4416 661.16 55.2746 658.054 62.8248C654.948 70.375 653.412 78.4829 653.541 86.6505V458.552H684.417V179.626H746.169V458.552H777.15V86.6505C777.292 78.4812 775.762 70.3696 772.655 62.8176C769.547 55.2656 764.93 48.434 759.086 42.7454C753.409 36.8789 746.594 32.2432 739.062 29.1247C731.529 26.0061 723.44 24.471 715.293 24.6141ZM684.417 148.634V86.6505C684.369 82.5712 685.155 78.5254 686.727 74.7631C688.298 71.0009 690.622 67.6021 693.554 64.777C696.394 61.875 699.781 59.57 703.518 57.9965C707.255 56.423 711.267 55.6126 715.319 55.6126C719.372 55.6126 723.384 56.423 727.121 57.9965C730.858 59.57 734.245 61.875 737.085 64.777C740 67.6124 742.309 71.0142 743.871 74.7749C745.432 78.5356 746.215 82.5764 746.169 86.6505V148.634H684.417ZM560.913 24.614H530.037V458.552H622.665V427.56H560.913V24.614ZM913.676 161.337C907.43 167.694 899.914 172.652 891.622 175.884L933 458.553H901.809L861.166 179.626H838.797V458.553H807.921V24.6144H869.83C877.96 24.4795 886.032 26.0188 893.546 29.1372C901.06 32.2557 907.858 36.8872 913.519 42.7456C919.362 48.4342 923.98 55.2659 927.087 62.8178C930.194 70.3698 931.724 78.4814 931.582 86.6507V117.643C931.731 125.767 930.219 133.836 927.139 141.352C924.059 148.867 919.477 155.669 913.676 161.337ZM838.797 148.634H869.673C877.845 148.579 885.666 145.296 891.445 139.496C897.223 133.696 900.494 125.845 900.549 117.643V86.6507C900.594 82.5766 899.812 78.5358 898.25 74.7751C896.688 71.0144 894.38 67.6126 891.465 64.7772C888.65 61.8342 885.264 59.5019 881.516 57.9245C877.768 56.347 873.737 55.558 869.673 55.6062H838.797V148.634Z" fill="#C184F1"/>
<path id="LOGO" fill-rule="evenodd" clip-rule="evenodd" d="M167.035 95.7162C169.33 97.4367 169.294 97.2535 169.151 96.5144C169.036 95.9175 168.85 94.9581 169.765 94.3459C179.318 87.2101 185.831 81.5651 192.222 76.0258L192.222 76.0256C199.426 69.7814 206.475 63.6715 217.549 55.7115C220.648 53.4451 223.116 50.8624 222.8 47.8581C222.57 42.1924 222.385 36.9224 222.211 31.9589V31.9587V31.9583V31.9578L222.211 31.9567V31.9563C221.788 19.9286 221.428 9.70022 220.648 0C177.097 2.84584 135.167 17.6711 99.4542 42.8509C98.299 44.1159 97.8789 45.0646 98.4565 45.5917C104.545 50.9432 116.712 59.5558 130.93 69.6202L130.93 69.6204L130.931 69.621L130.932 69.6217L130.932 69.6219C142.339 77.697 155.067 86.7066 167.035 95.7162ZM395.926 60.1914C413.335 75.7704 428.325 93.8732 440.403 113.9C437.228 118.313 431.373 122.653 424.069 128.067C407.209 140.565 382.634 158.781 365.523 196.808C363.58 201.183 362.74 197.704 362.74 195.438C362.74 168.979 341.736 137.302 320.732 122.28C317.634 120.172 315.271 116.852 317.949 114.901C324.794 109.942 332.182 104.449 339.706 98.8549C359.37 84.236 379.967 68.9232 394.246 60.6131C394.766 60.3439 395.341 60.1996 395.926 60.1914ZM84.0162 254.523H1.68033C3.08026 282.997 9.72097 310.964 21.2666 337.01C48.7898 315.277 70.3781 286.898 84.0162 254.523ZM193.735 400.861C200.969 407.145 208.032 413.28 219.23 421.289C222.328 423.555 224.796 426.138 224.691 429.142C224.455 434.949 224.271 440.34 224.098 445.412C223.693 457.28 223.347 467.399 222.538 477C178.915 474.192 136.907 459.365 101.135 434.149C100.137 432.884 99.5592 431.935 100.137 431.408C106.32 425.915 118.753 417.126 133.248 406.878L133.249 406.878L133.254 406.875L133.258 406.872C144.489 398.932 156.957 390.118 168.715 381.284C171.017 379.558 170.991 379.699 170.852 380.428C170.741 381.012 170.558 381.974 171.446 382.654C180.933 389.741 187.399 395.358 193.735 400.861L193.735 400.861ZM306.013 381.066C305.87 380.327 305.834 380.143 308.129 381.864C319.962 390.771 332.537 399.679 343.862 407.702L343.865 407.704L343.866 407.704C358.272 417.909 370.656 426.681 376.918 432.199C377.338 432.515 377.285 433.042 376.918 433.728C340.921 459.321 298.541 474.359 254.517 477.158C253.79 467.679 253.441 457.772 253.033 446.231C252.852 441.088 252.659 435.62 252.416 429.722C252.049 426.718 254.517 424.135 257.667 421.921C268.469 414.059 275.472 408.001 282.609 401.829C289.106 396.209 295.714 390.494 305.399 383.234C306.314 382.622 306.128 381.662 306.013 381.066ZM220.805 254.523C208.885 302.329 178.324 331.107 176.382 331.107C172.811 331.423 140.727 306.492 127.862 254.523H220.805ZM300.463 331.739C304.086 332.055 336.38 306.914 349.14 254.523H255.882C267.802 302.698 298.52 331.528 300.463 331.739ZM455.42 337.326C427.786 315.523 406.122 287.031 392.461 254.523H475.217C473.766 283.114 467.054 311.188 455.42 337.326ZM367.571 280.191C365.628 275.816 364.84 279.295 364.788 281.561C364.315 307.915 343.416 339.539 322.78 354.719C319.682 356.985 317.529 359.989 319.997 362.098C325.83 366.388 332.09 371.077 338.51 375.886L338.511 375.886L338.526 375.898L338.533 375.903L338.552 375.917L338.563 375.925L338.568 375.929L338.571 375.932L338.572 375.932C358.95 391.196 380.925 407.656 395.926 416.386C396.464 416.606 397.029 416.748 397.607 416.808C415.015 401.229 430.006 383.126 442.083 363.099C438.921 358.704 433.1 354.4 425.848 349.038C409.009 336.587 384.454 318.432 367.571 280.191ZM285.078 357.513C286.285 358.62 285.13 360.833 283.87 361.94C274.489 370.241 264.015 381.247 255.539 390.154C246.791 399.346 240.172 406.302 239.079 405.74C237.46 407.217 229.027 398.128 218.663 386.959L218.663 386.958L218.662 386.958C210.537 378.201 201.225 368.165 193.08 360.939C191.872 359.832 190.664 357.618 191.872 356.511C204.002 345.179 232.095 313.028 236.873 287.992C237.503 287.307 242.754 286.78 243.069 287.992C248.846 309.496 273.053 346.022 285.078 357.513ZM154.432 354.139C133.428 339.065 112.739 307.441 112.424 280.929C112.424 278.663 111.584 275.237 109.641 279.559C92.596 317.563 68.1619 335.655 51.3198 348.126C43.7761 353.711 37.7555 358.169 34.6042 362.783C46.6251 382.729 61.5049 400.79 78.7652 416.387C79.5338 416.358 80.2866 416.16 80.9706 415.807C95.4563 407.377 116.443 391.768 136.362 376.955L136.362 376.954L136.363 376.953L136.364 376.953L136.366 376.952C143.595 371.575 150.683 366.304 157.268 361.518C159.893 359.516 157.53 356.353 154.432 354.139ZM253.207 86.1276L253.206 86.127C244.764 77.2235 238.412 70.5254 237.293 70.891C235.691 69.5755 227.483 78.4418 217.291 89.451L217.291 89.4512L217.291 89.4516L217.291 89.4517C209.107 98.2922 199.643 108.514 191.294 115.956C190.087 117.062 188.879 119.276 190.087 120.383C202.217 131.926 230.309 164.077 235.088 188.902C235.718 189.746 240.969 190.273 241.284 188.902C247.165 167.398 271.372 130.924 283.292 119.382C284.605 118.38 283.555 115.956 282.189 115.06C272.572 106.55 261.805 95.1951 253.207 86.1276ZM155.535 115.534C158.003 117.59 155.903 120.647 152.752 122.86C131.905 137.935 111.059 169.559 110.534 196.018C110.481 198.337 109.694 201.763 107.751 197.441C90.7827 159.284 66.265 141.124 49.4303 128.654C41.9877 123.141 36.0468 118.741 32.9239 114.217C44.933 94.2933 59.7947 76.2502 77.0324 60.666C77.8009 60.6948 78.5538 60.8927 79.2378 61.2458C93.7239 69.6762 114.712 85.2851 134.631 100.099C141.86 105.476 148.949 110.748 155.535 115.534ZM281.536 75.5869C274.287 69.2699 267.227 63.1179 255.987 55.079C252.836 52.7072 250.368 50.2826 250.473 47.4365C250.713 41.5733 250.904 36.1435 251.083 31.045V31.0444L251.083 31.0424L251.083 31.0407L251.083 31.0397L251.083 31.0384V31.0379C251.493 19.3642 251.843 9.42685 252.574 0C296.616 2.7899 339.016 17.8278 375.027 43.4307C375.342 44.1159 375.395 44.643 375.027 44.9592C368.934 50.4226 356.474 59.2313 341.949 69.5007L341.948 69.5013C330.689 77.4613 318.189 86.2989 306.449 95.1365C304.161 96.8518 304.189 96.7068 304.331 95.9843C304.447 95.3969 304.637 94.4278 303.719 93.7661C294.272 86.6854 287.833 81.0739 281.536 75.5869ZM19.5863 139.99C8.01633 166.028 1.37452 194 0 222.477H82.4409C68.7732 190.09 47.1479 161.711 19.5863 139.99ZM126.182 222.477C139.047 170.508 171.131 145.577 174.701 145.894C176.644 146.052 207.205 174.672 219.125 222.477H126.182ZM298.783 145.261C296.84 145.261 266.016 174.302 254.202 222.477H347.46C334.7 170.086 302.406 144.945 298.783 145.261ZM390.728 222.477C404.374 189.887 426.058 161.319 453.74 139.463C465.399 165.667 472.112 193.815 473.536 222.477H390.728Z" fill="url(#paint0_linear)"/>
</g>
<defs>
<linearGradient id="paint0_linear" x1="237.608" y1="0" x2="237.608" y2="477.158" gradientUnits="userSpaceOnUse">
<stop id="color-01" stop-color="#8300EA"/>
<stop id="color-02" offset="0.494792" stop-color="#C184F1"/>
<stop id="color-03" offset="1" stop-color="#C4C4C4"/>
</linearGradient>
</defs>
</svg>
