<?xml version="1.0" encoding="UTF-8"?>
<!DOCTYPE svg PUBLIC "-//W3C//DTD SVG 1.1//EN" "http://www.w3.org/Graphics/SVG/1.1/DTD/svg11.dtd">
<!-- Creator: CorelDRAW 2019 (64 Bit Versão de avaliação) -->
<svg xmlns="http://www.w3.org/2000/svg" xml:space="preserve" width="210mm" height="210mm" version="1.1" style="shape-rendering:geometricPrecision; text-rendering:geometricPrecision; image-rendering:optimizeQuality; fill-rule:evenodd; clip-rule:evenodd"
viewBox="0 0 21000 21000"
 xmlns:xlink="http://www.w3.org/1999/xlink"
 xmlns:xodm="http://www.corel.com/coreldraw/odm/2003">
 <defs>
  <style type="text/css">
   <![CDATA[
    .fil119 {fill:#476F28}
    .fil108 {fill:#4C7429}
    .fil106 {fill:#50772A}
    .fil73 {fill:#547B2B}
    .fil104 {fill:#567D2C}
    .fil102 {fill:#5A812D}
    .fil100 {fill:#5C832D}
    .fil103 {fill:#5E852D}
    .fil75 {fill:#61872E}
    .fil89 {fill:#658A2E}
    .fil66 {fill:#688D2F}
    .fil77 {fill:#698E2F}
    .fil64 {fill:#6B9130}
    .fil53 {fill:#6F9330}
    .fil25 {fill:#739730}
    .fil51 {fill:#789B31}
    .fil60 {fill:#7B9D31}
    .fil20 {fill:#7EA031}
    .fil29 {fill:#83A431}
    .fil41 {fill:#86A631}
    .fil55 {fill:#87A731}
    .fil47 {fill:#8AA931}
    .fil82 {fill:#8CAB32}
    .fil123 {fill:#8DAC30}
    .fil54 {fill:#8FAC31}
    .fil40 {fill:#92AF31}
    .fil57 {fill:#95B231}
    .fil97 {fill:#97B331}
    .fil43 {fill:#982815}
    .fil69 {fill:#99B531}
    .fil39 {fill:#9A2815}
    .fil22 {fill:#9B2815}
    .fil32 {fill:#9C2815}
    .fil52 {fill:#9CB731}
    .fil15 {fill:#9D2814}
    .fil27 {fill:#9EB931}
    .fil14 {fill:#9F2915}
    .fil10 {fill:#A02915}
    .fil79 {fill:#A0BB31}
    .fil13 {fill:#A12915}
    .fil8 {fill:#A1BB31}
    .fil4 {fill:#A32A15}
    .fil0 {fill:#A3BC31}
    .fil6 {fill:#A42A15}
    .fil3 {fill:#A5BA2F}
    .fil17 {fill:#A62A14}
    .fil2 {fill:#A6BA2E}
    .fil11 {fill:#A72914}
    .fil26 {fill:#A7B92D}
    .fil88 {fill:#A8B72C}
    .fil98 {fill:#A9B72C}
    .fil12 {fill:#AA2814}
    .fil74 {fill:#AAB62B}
    .fil30 {fill:#AB2814}
    .fil85 {fill:#ABB52A}
    .fil80 {fill:#ACB329}
    .fil63 {fill:#AD2714}
    .fil56 {fill:#ADB128}
    .fil83 {fill:#AE2714}
    .fil76 {fill:#AEAE27}
    .fil48 {fill:#AEAF27}
    .fil61 {fill:#AF2714}
    .fil94 {fill:#AFAA25}
    .fil46 {fill:#AFAC26}
    .fil42 {fill:#B02613}
    .fil67 {fill:#B0A924}
    .fil18 {fill:#B12613}
    .fil72 {fill:#B1A623}
    .fil35 {fill:#B1A723}
    .fil9 {fill:#B22613}
    .fil70 {fill:#B2A120}
    .fil87 {fill:#B2A321}
    .fil33 {fill:#B2A421}
    .fil86 {fill:#B39F1F}
    .fil38 {fill:#B3A01F}
    .fil31 {fill:#B49D1E}
    .fil5 {fill:#B52712}
    .fil21 {fill:#B52812}
    .fil37 {fill:#B5991D}
    .fil36 {fill:#B62812}
    .fil34 {fill:#B6971C}
    .fil1 {fill:#B72811}
    .fil45 {fill:#B7931B}
    .fil16 {fill:#BA2710}
    .fil7 {fill:#BB2710}
    .fil121 {fill:#BC2710}
    .fil49 {fill:#BC7E14}
    .fil59 {fill:#BD7A13}
    .fil50 {fill:#BD7C14}
    .fil23 {fill:#BE2610}
    .fil62 {fill:#BE7512}
    .fil58 {fill:#BE7712}
    .fil19 {fill:#BF260E}
    .fil81 {fill:#BF6F11}
    .fil28 {fill:#BF7011}
    .fil65 {fill:#BF7111}
    .fil84 {fill:#C0680F}
    .fil44 {fill:#C06B10}
    .fil24 {fill:#C1250F}
    .fil109 {fill:#C1430D}
    .fil71 {fill:#C15D0C}
    .fil99 {fill:#C15F0C}
    .fil91 {fill:#C1620D}
    .fil124 {fill:#C1630D}
    .fil122 {fill:#C1640D}
    .fil96 {fill:#C1650E}
    .fil95 {fill:#C1660E}
    .fil68 {fill:#C1670E}
    .fil118 {fill:#C22C0E}
    .fil115 {fill:#C22E0E}
    .fil113 {fill:#C2330E}
    .fil111 {fill:#C23A0E}
    .fil107 {fill:#C2410D}
    .fil116 {fill:#C2470D}
    .fil114 {fill:#C2490E}
    .fil110 {fill:#C24B0D}
    .fil117 {fill:#C24D0E}
    .fil92 {fill:#C24F0D}
    .fil101 {fill:#C2510C}
    .fil120 {fill:#C2540C}
    .fil90 {fill:#C2550C}
    .fil93 {fill:#C2590B}
    .fil78 {fill:#C25B0B}
    .fil105 {fill:#C25C0B}
    .fil112 {fill:#C33C0D}
   ]]>
  </style>
   <clipPath id="id0">
    <rect x="547.71" y="690.63" width="19867.77" height="19966.35"/>
   </clipPath>
 </defs>
 <g id="Camada_x0020_1">
  <metadata id="CorelCorpID_0Corel-Layer"/>
  <g style="clip-path:url(#id0)">
   <image x="547.71" y="690.59" width="19867.81" height="19966.39" xlink:href="logo-lar-sem-texto_Images\logo-lar-sem-texto_ImgID1.png"/>
  </g>
  <g id="_2247938716464">
   <path class="fil0" d="M2317.1 15492.75c-225.74,141.6 -253.46,96.75 -303.35,412.47 99.09,76.64 238.85,349.57 353.92,495.45 1355.32,0 2689.23,-101.09 4044.32,-101.09l404.21 -293.32c111.64,-78.48 231.46,-187.65 354.1,-252.66 -15.58,-265.03 -35.63,-232.49 -202.2,-361.94 -821.14,0 -1483.91,52.24 -2325.56,50.46 -460.57,-0.97 -711.74,52.3 -1162.52,50.75 -387.55,-1.38 -775.32,-0.12 -1162.92,-0.12z"/>
   <path class="fil0" d="M14349 15189.47l-419.22 353.98c-104.76,129.45 -40.89,-10.37 -86.32,159.86 98.64,147.32 291.84,286.62 454.97,394.08 462,0 730.07,-52.99 1162.06,-50.87 387.72,1.95 836.61,20.16 1217.68,0.69l2067.3 -64.27c103.73,-13.29 112.03,-33.85 254.48,-37.23 1.32,-2.86 29.27,-115.81 50.58,-141.3 -169.6,-113.53 -245.84,-244.81 -425.01,-377.35 -161.86,-119.72 -338.91,-287.83 -484.97,-338.69 -157.35,0 -351.35,-10.08 -504.34,2.4l-3287.21 98.7z"/>
   <path class="fil0" d="M8788.01 15341.08c-34.54,26.86 -118.11,87.29 -142.39,115.36 -155.97,180.43 -69.19,17.07 -110.38,246.58l556.12 545.98c415.32,-77.84 971.38,-52.12 1465.98,-50.4 525.19,1.83 944.87,-50.69 1516.68,-50.69l455.02 -495.18 -353.87 -412.75c-366.75,0 -508.69,53.16 -858.14,51.67 -286.97,-1.26 -573.76,-0.8 -860.73,-1.15 -587.9,-0.63 -1043.84,50.58 -1668.29,50.58z"/>
   <path class="fil1" d="M14096.23 5270.33c-100.86,93.54 -252.77,205.17 -353.92,272.87 17.76,40.39 27.72,84.72 70.57,138.62 87.52,110.03 46.51,58.82 131.68,95.83l2373.73 -102.82c806.02,-22.91 967.95,22.68 1821.97,-46.39 197.9,-15.99 453.42,-2.41 657.5,-2.41 70.57,-31.85 123.49,-69.54 117.25,-184.9 -5.44,-100.63 20.68,4.01 -14.49,-91.64 -27.15,-73.83 -51.78,-84.43 -102.76,-180.26 -1589.7,0 -3092.86,101.1 -4701.53,101.1z"/>
   <path class="fil1" d="M2064.33 5619.16l55.16 60.25c29.15,30.3 50.34,51.44 81.27,82.54 41.87,41.99 90.79,93.19 131.8,128.02 97.15,82.59 50.06,35.11 143.88,104.07 55.79,41.01 78.53,63.93 125.67,105.22l4163.74 -169.94c127.51,-11.34 124.81,-11.4 220.3,-106.02 87.29,-86.55 101.61,-109.81 133.57,-229.52l-101.1 -126.24c-868.57,0 -1623.21,48.17 -2528.9,48.86 -290.97,0.23 -353.63,46.57 -604.51,53.95 -196.75,5.79 -408.91,-1.71 -607.55,-1.71 -219.32,-0.06 -438.53,-0.12 -657.79,-1.15 -274.76,-1.26 -355.87,33.39 -555.54,51.67z"/>
   <path class="fil2" d="M3479.85 14557.74l-432.86 361.71c-111.46,78.99 -314.63,262.17 -426.55,278.61 723.26,0 1281.38,-50.58 2022.16,-50.52 706.64,0.05 1282.01,-50.58 2022.16,-50.58 -117.77,-62.43 -192.17,-165.94 -291.61,-261.65l-315.03 -378.66c-385.6,74.69 -854.13,50.74 -1314.42,50.51 -495,-0.22 -793.25,50.58 -1263.85,50.58z"/>
   <path class="fil3" d="M14955.64 14540.73l-517.91 550.1c-46.8,48.97 -48.8,45.37 -88.73,98.64l3287.21 -98.7c152.99,-12.48 346.99,-2.4 504.34,-2.4l-354.84 -293.67c-136.38,-106.88 -216.86,-213.42 -352.95,-304.55 -421.74,0 -843.83,-2 -1265.51,-1.66 -292.75,0.23 -344.53,46.45 -603.26,53.96 -197.15,5.67 -409.31,-1.72 -608.35,-1.72z"/>
   <path class="fil4" d="M4642.6 2581.28l454.96 353.81c239.88,0 281.3,-49.49 554.11,-52.53l1769.33 -46.1c358.85,-28.64 844,-3.61 1215.63,-2.3 458.91,1.55 734.99,-50.69 1213.04,-50.69 85.86,-20.45 32.07,2.52 48.34,-126.35 7.56,-59.92 2.23,-166.05 2.23,-227.51 -943.71,0 -1733.58,53.72 -2679.37,50.46 -482.91,-1.72 -803.04,50.75 -1314.42,50.63 -410.34,-0.05 -935.24,-43.01 -1263.85,50.58z"/>
   <path class="fil5" d="M2064.33 5203.37c-36.26,63.58 -119.14,191.94 -123.04,254.03 -3.26,52.24 -18.27,22.4 21.02,85.69 86.38,139.07 36.09,49.83 102.02,76.07 199.67,-18.28 280.78,-52.93 555.54,-51.67 219.26,1.03 438.47,1.09 657.79,1.15 198.64,0 410.8,7.5 607.55,1.71 250.88,-7.38 313.54,-53.72 604.51,-53.95 905.69,-0.69 1660.33,-48.86 2528.9,-48.86 -183.86,-93.48 -306.61,-241.37 -505.54,-365.26 -1494.56,0 -2931.68,101.09 -4448.75,101.09z"/>
   <path class="fil6" d="M11012.42 2404.23c0,55.05 -6.53,160.67 -2.06,209.87 8.99,99.32 -7.16,0.92 11.63,85.4 30.58,137.41 -8.42,35.8 40.95,94 250.76,-136.27 865.3,-50.58 1213.33,-50.52 493.91,0.11 808.43,-53.1 1263.73,-50.87 924.76,4.64 1668.18,-50.23 2578.39,-50.23 69.94,-20.56 18.1,66.73 101.1,-80.99 -117.71,-175.73 -123.04,-151.73 -303.35,-257.75 -1677.74,0 -3233.94,101.09 -4903.72,101.09z"/>
   <path class="fil7" d="M8535.24 5754.56c67.42,88.84 125.04,141.94 215.31,237.14 46.05,48.57 81.57,103.21 117.02,138.9 97.6,98.29 18.96,67.3 122.69,69.99 1053.07,0 1971.98,-50.58 2982.66,-50.58 153.11,-81.16 353.7,-363.03 455.02,-496.54 -337.2,0 -674.68,1.31 -1011.82,-0.63 -384.68,-2.18 -561.56,53.44 -959.59,51.43 -337.48,-1.66 -675.08,0.12 -1012.57,-1.37 -355.64,-1.55 -524.95,51.66 -908.72,51.66z"/>
   <path class="fil8" d="M14298.43 16097.39c149.95,108.37 330.26,199.95 454.96,363.89 696.1,0 1246.95,-50.7 1971.64,-50.58 686.13,0.17 1248.55,-50.52 1971.58,-50.52 105.96,-148.52 197.32,-337.83 303.34,-414.47 -142.45,3.38 -150.75,23.94 -254.48,37.23l-2067.3 64.27c-381.07,19.47 -829.96,1.26 -1217.68,-0.69 -431.99,-2.12 -700.06,50.87 -1162.06,50.87z"/>
   <path class="fil9" d="M2317.1 4835.82c-134.55,188.61 -144.98,258.09 -252.77,367.55 1517.07,0 2954.19,-101.09 4448.75,-101.09l-454.96 -367.56c-316.46,0 -649.71,-10.48 -963.88,-1.72 -303.58,8.42 -530.4,52.7 -906.55,52.24 -319.55,-0.34 -643.75,-5.56 -962.56,-2.01 -318.35,3.56 -528.45,52.59 -908.03,52.59z"/>
   <path class="fil10" d="M5502.01 2000.31c-268.64,74.23 -470.43,331.18 -657.22,358.67 459.03,0 735.46,-51.09 1213.33,-50.57 418.59,0.45 863.65,32.13 1269.52,-29.27l2572.6 -71.83c-65.06,-146.23 -50.57,-95.14 -50.57,-308.1 -371.11,0 -742.16,0.51 -1113.21,-1.09 -378.32,-1.66 -632.52,52.12 -1060.62,51.67 -791.48,-0.86 -1408.65,50.52 -2173.83,50.52z"/>
   <path class="fil9" d="M15258.93 4406c-114.79,113.87 -196.3,159.12 -325.06,261.19l-174.35 131.28c-58.08,39.64 -102.7,63.06 -157.75,101.61 383.48,0 563.34,-52.87 960.56,-50.86 337.6,1.66 675.26,-0.06 1012.91,1.37 359.65,1.61 559.79,-53.15 958.67,-51.78 336.97,1.21 674.11,0.18 1011.08,0.18l-353.92 -443.51c-1041.15,0 -1912.19,50.52 -2932.14,50.52z"/>
   <path class="fil2" d="M9546.32 14406.07c-88.78,104.7 -76.52,106.71 -145.83,198.18 -31.56,41.7 -28.47,36.43 -68.39,85.17 -11.46,13.98 -39.81,46.46 -67.19,80.37 -95.42,118.05 -149.95,210.49 -274.65,276.65 278.43,0 388.52,-53.04 707.68,-51.66 252.82,1.08 505.54,1.03 758.36,1.08 556.29,0.18 959.02,-50.52 1516.62,-50.52 -87.06,-46.16 -141.93,-157.17 -202.19,-245.03l-202.25 -344.76c-353.87,0 -707.73,0.17 -1061.6,0 -162.56,-0.12 -349.17,-8.59 -508.69,-0.4 -198.41,10.14 -248.3,50.92 -451.87,50.92z"/>
   <path class="fil11" d="M11164.09 2965.27l54.93 46.11c264.8,204.14 293.61,279.06 450.61,282.56 320.82,0 641.92,1.95 962.62,1.72 331.3,-0.29 525.42,-53.73 907.87,-52.36 320.7,1.09 641.4,-0.17 962.16,1.21 353.18,1.54 525.19,-51.61 908.32,-51.61 70.22,-24.4 16.04,6.01 121.83,-56.25 129.05,-76.01 15.93,-6.13 117.82,-82.02 89.07,-66.33 155.74,-109.06 215.37,-190.45 -1608.78,0 -3111.94,101.09 -4701.53,101.09z"/>
   <path class="fil12" d="M5759.82 3420.24l702.74 475.29c773.78,0 1364.55,-50.57 2123.26,-50.57l657.21 -520.84 -1364.94 -0.4c-217.37,11.63 -183.52,39.7 -403.64,51.38l-1681.18 31.05c-5.67,-10.71 -23.09,7.79 -33.45,14.09z"/>
   <path class="fil13" d="M11012.42 2131.36l0 272.87c1669.78,0 3225.98,-101.09 4903.72,-101.09 -62.95,-50.18 -37,-28.36 -117.59,-79.68 -49.61,-31.56 -81.51,-50.12 -124.47,-76.01 -110.55,-66.55 -157.28,-80.19 -263.48,-167.71l-4398.18 151.62z"/>
   <path class="fil8" d="M2367.67 16400.67c82.88,82.6 157.58,230.49 252.77,363.89 1137.95,0 2127.67,-50.57 3286.01,-50.57 121.37,-159.52 359.76,-309.02 505.54,-414.41 -1355.09,0 -2689,101.09 -4044.32,101.09z"/>
   <path class="fil7" d="M14247.85 5998.4c61.75,151.61 -6.36,54.64 112.38,192.57 48.63,56.42 85.34,75.09 140.39,115.47 303.35,0 606.75,-0.57 910.04,0.06 589.85,1.26 534.69,-42.96 857.8,-52.3 574.45,-16.67 1280.75,68.91 1770.99,-48.86 121.43,-38.37 115.7,-39.75 198.07,-106.88 15.64,-12.71 58.77,-53.04 82.14,-82.59 86.66,-109.35 -12.72,78.18 73.66,-118.57 -353.75,0 -707.73,1.43 -1061.43,-0.63 -395.05,-2.23 -599.36,52.75 -1010.91,51.32 -352.89,-1.26 -711.74,-6.07 -1064,-2.17 -334.1,3.72 -604.69,52.58 -1009.13,52.58z"/>
   <path class="fil3" d="M2620.44 15198.06c-151.16,198.7 -172.29,120.05 -303.34,294.69 387.6,0 775.37,-1.26 1162.92,0.12 450.78,1.55 701.95,-51.72 1162.52,-50.75 841.65,1.78 1504.42,-50.46 2325.56,-50.46 -122.34,-91.65 -189.99,-145.72 -303.34,-294.7 -740.15,0 -1315.52,50.63 -2022.16,50.58 -740.78,-0.06 -1298.9,50.52 -2022.16,50.52z"/>
   <path class="fil7" d="M2873.21 6250.88l149.96 157.92c8.36,7.27 20.27,16.44 28.69,23.54l276.31 177.39c980.27,0 1823.52,-50.52 2831.05,-50.52l404.44 -409.43c-659.73,0 -1179.25,50.64 -1870.54,50.58 -655.95,-0.06 -1145,50.52 -1819.91,50.52z"/>
   <path class="fil14" d="M11012.42 1828.07l0 303.29 4398.18 -151.62 -505.54 -252.77c-695.53,0 -1246.89,50.75 -1971.58,50.58 -672.85,-0.17 -1213.84,50.52 -1921.06,50.52z"/>
   <path class="fil11" d="M5299.81 3116.95c125.44,109 309.88,265.03 460.01,303.29 10.36,-6.3 27.78,-24.8 33.45,-14.09l1681.18 -31.05c220.12,-11.68 186.27,-39.75 403.64,-51.38l1364.94 0.4c152.48,-48.17 98.29,-35.28 227.11,-132.08 130.31,-97.89 92.39,-49.43 177.33,-176.19 -1463.63,0 -2872.57,101.1 -4347.66,101.1z"/>
   <path class="fil15" d="M6058.12 1691.52c-124.18,40.78 -175.44,66.84 -288.22,126.98 -124.24,66.22 -173.84,106.2 -267.89,181.81 765.18,0 1382.35,-51.38 2173.83,-50.52 428.1,0.45 682.3,-53.33 1060.62,-51.67 371.05,1.6 742.1,1.09 1113.21,1.09l0 -308.79c-369.62,0 -559.38,52.07 -960.33,50.69 -320.53,-1.14 -641.06,0.17 -961.65,-1.26 -360.17,-1.54 -523.81,53.9 -908.67,51.95 -320.18,-1.54 -640.71,-0.28 -960.9,-0.28z"/>
   <path class="fil16" d="M13944.56 5777.65c73.09,124 11.34,53.55 129.05,146.46 215.36,170 46.51,71.14 174.24,74.29 404.44,0 675.03,-48.86 1009.13,-52.58 352.26,-3.9 711.11,0.91 1064,2.17 411.55,1.43 615.86,-53.55 1010.91,-51.32 353.7,2.06 707.68,0.63 1061.43,0.63 144.17,8.88 179.85,-41.3 349.63,-214.05l54.81 -57.22c-204.08,0 -459.6,-13.58 -657.5,2.41 -854.02,69.07 -1015.95,23.48 -1821.97,46.39l-2373.73 102.82z"/>
   <path class="fil1" d="M8636.34 5442.11l-157.17 146.12c-5.9,6.75 -18.1,22.22 -22.8,27.78 -4.7,5.55 -14.38,19.24 -22.22,28.29l101.09 110.26c383.77,0 553.08,-53.21 908.72,-51.66 337.49,1.49 675.09,-0.29 1012.57,1.37 398.03,2.01 574.91,-53.61 959.59,-51.43 337.14,1.94 674.62,0.63 1011.82,0.63 -43.3,-176.48 -120,-223.5 -252.77,-312.46 -332.67,0 -489.1,52.7 -859.12,50.87 -303.52,-1.55 -607.09,0.91 -910.61,-0.58 -370.19,-1.89 -527.25,52.24 -857.46,52.47 -303.69,0.23 -607.78,-1.66 -911.64,-1.66z"/>
   <path class="fil17" d="M11062.94 2793.5c33.62,167.77 -20.85,87 101.15,171.77 1589.59,0 3092.75,-101.09 4701.53,-101.09 180.37,-95.43 152.36,-33.74 252.77,-222.3 -910.21,0 -1653.63,54.87 -2578.39,50.23 -455.3,-2.23 -769.82,50.98 -1263.73,50.87 -348.03,-0.06 -962.57,-85.75 -1213.33,50.52z"/>
   <path class="fil18" d="M2620.44 4481.72c-127.38,93.31 -198.7,273.1 -303.34,354.1 379.58,0 589.68,-49.03 908.03,-52.59 318.81,-3.55 643.01,1.67 962.56,2.01 376.15,0.46 602.97,-43.82 906.55,-52.24 314.17,-8.76 647.42,1.72 963.88,1.72 -140.27,-20.68 -108.14,-39.87 -222.75,-128.65 -132.43,-102.64 -135.52,-135.58 -282.79,-174.93 -1024.94,0 -1891.33,50.58 -2932.14,50.58z"/>
   <path class="fil13" d="M4844.79 2358.98c-83.39,93.37 -99.95,88.78 -128.7,120.23 -59.06,64.44 -41.76,18.04 -73.49,102.07 328.61,-93.59 853.51,-50.63 1263.85,-50.58 511.38,0.12 831.51,-52.35 1314.42,-50.63 945.79,3.26 1735.66,-50.46 2679.37,-50.46l0 -222.3 -2572.6 71.83c-405.87,61.4 -850.93,29.72 -1269.52,29.27 -477.87,-0.52 -754.3,50.57 -1213.33,50.57z"/>
   <path class="fil17" d="M5097.56 2935.09c71.77,93.42 4.53,23.14 82.6,94.05 60.08,54.59 68.9,53.84 119.65,87.81 1475.09,0 2884.03,-101.1 4347.66,-101.1 187.42,-49.72 165.88,-36.08 202.2,-232.38 -478.05,0 -754.13,52.24 -1213.04,50.69 -371.63,-1.31 -856.78,-26.34 -1215.63,2.3l-1769.33 46.1c-272.81,3.04 -314.23,52.53 -554.11,52.53z"/>
   <path class="fil19" d="M14753.39 6624.85l353.92 392.87c193.03,-4.58 215.31,-45.76 451.87,-52.23 164.85,-4.53 342.18,1.66 508.63,1.71 353.87,0.06 707.79,0 1061.66,0 110.38,-14.6 -10.02,48.29 139.7,-69.76 23.71,-18.67 96.4,-92.33 125.56,-121.55 155.62,-155.79 130.13,-158.89 290.8,-252.14 -514.13,0 -908.72,50.52 -1466.04,50.52 -248.71,0 -512.93,-8.93 -759.4,-1.71 -262.79,7.73 -384.4,52.29 -706.7,52.29z"/>
   <path class="fil8" d="M9091.36 16249l353.86 363.89c362.41,0 639,-50.75 1061.6,-50.52 387.61,0.17 775.21,0 1162.81,0 204.31,-286.45 122.29,-235.58 404.39,-414.46 -571.81,0 -991.49,52.52 -1516.68,50.69 -494.6,-1.72 -1050.66,-27.44 -1465.98,50.4z"/>
   <path class="fil20" d="M4693.12 18713.81c115.82,110.37 112.09,94.11 252.77,182.37l5004.87 -143.25 0 -190.74 -5257.64 151.62z"/>
   <path class="fil3" d="M8990.26 15046.44c-97.49,193.09 -104.07,163.82 -202.25,294.64 624.45,0 1080.39,-51.21 1668.29,-50.58 286.97,0.35 573.76,-0.11 860.73,1.15 349.45,1.49 491.39,-51.67 858.14,-51.67 -98.17,-130.82 -104.76,-101.55 -202.25,-294.64 -557.6,0 -960.33,50.7 -1516.62,50.52 -252.82,-0.05 -505.54,0 -758.36,-1.08 -319.16,-1.38 -429.25,51.66 -707.68,51.66z"/>
   <path class="fil21" d="M14399.52 5038.01c-109,122.06 -187.87,165.36 -303.29,232.32 1608.67,0 3111.83,-101.1 4701.53,-101.1 -94.22,-104.36 -69.99,-70.56 -151.67,-232.32 -386.86,0 -631.73,51.04 -1061.6,50.52l-3184.97 50.58z"/>
   <path class="fil20" d="M11062.94 18551.14l0 193.43 5105.97 -151.68c-52.29,-79.39 -4.24,-37 -101.21,-110.14 -10.94,-8.25 -47.14,-30.42 -58.71,-36.83 -86.26,-47.43 -15.64,-11.63 -92.85,-35.4l-4853.2 140.62z"/>
   <path class="fil22" d="M6765.85 1398.31c-197.38,16.44 -213.07,59.4 -371.33,134.37 -151.96,71.95 -215.37,71.14 -336.4,158.84 320.19,0 640.72,-1.26 960.9,0.28 384.86,1.95 548.5,-53.49 908.67,-51.95 320.59,1.43 641.12,0.12 961.65,1.26 400.95,1.38 590.71,-50.69 960.33,-50.69l0 -242.69c-1081.53,0 -1994.78,50.58 -3083.82,50.58z"/>
   <path class="fil23" d="M14500.62 6306.44c88.67,123.84 149.27,164.96 252.77,318.41 322.3,0 443.91,-44.56 706.7,-52.29 246.47,-7.22 510.69,1.71 759.4,1.71 557.32,0 951.91,-50.52 1466.04,-50.52 80.36,-74.51 88.44,-82.93 174.98,-150.35 126.36,-98.41 85.58,-37.63 178.94,-168.06 -490.24,117.77 -1196.54,32.19 -1770.99,48.86 -323.11,9.34 -267.95,53.56 -857.8,52.3 -303.29,-0.63 -606.69,-0.06 -910.04,-0.06z"/>
   <path class="fil24" d="M3783.19 7076.43c79.74,93.48 153.74,151.51 240.8,250.37 68.62,77.9 41.93,60.94 112.04,147.49 99.84,123.32 16.32,61.92 152.7,125.61l1263.85 -21.94c95.94,-208.66 182.78,-369.16 303.29,-552.1 -737.46,0 -1314.88,50.57 -2072.68,50.57z"/>
   <path class="fil24" d="M9546.32 6924.76l330.5 512.01c4.52,5.21 15.69,17.3 23.42,26.06l1263.85 -28.12c136.27,-198.13 216.92,-399.97 353.87,-560.47 -694.5,0 -1247.18,50.52 -1971.64,50.52z"/>
   <path class="fil25" d="M11062.94 18967.09l0 179.74 4853.2 -132.77c119.71,-61.23 161.87,-102.87 252.77,-160.04l-5105.97 113.07z"/>
   <path class="fil26" d="M9900.24 13883.57c-16.43,33.63 -44.9,96.35 -70.91,139.88 -1.94,3.21 -87.92,126.13 -102.07,144.63 -61.8,81.05 -129.45,179.05 -180.94,237.99 203.57,0 253.46,-40.78 451.87,-50.92 159.52,-8.19 346.13,0.28 508.69,0.4 353.87,0.17 707.73,0 1061.6,0 -109,-92.79 -152.08,-215.48 -249.68,-366.58l-104.19 -144.75 -1314.37 39.35z"/>
   <path class="fil27" d="M14955.64 16587.75c100.69,51.2 247.44,165.02 353.86,252.77 316.87,0 397.29,-52.01 705.68,-52.24 270.12,-0.23 540.7,1.6 810.94,1.66 572.21,0.11 991.66,-50.52 1567.2,-50.52 130.94,-129.91 110.95,-131.23 202.19,-252.77 -357.24,0 -607.09,45.99 -907.46,51.95 -300.25,6.02 -610.99,-1.09 -912.45,-1.43 -633.04,-0.8 -1159.66,50.58 -1819.96,50.58z"/>
   <path class="fil28" d="M11366.29 9210.86c-28.01,142.51 -15.24,84.37 -50.58,207.75l3589.35 -91.76c-41.47,-79.16 -49.89,-122.24 -101.09,-224.54 -555.55,41.7 -1202.51,14.38 -1771.45,27.15 -290.23,6.48 -524.9,36.26 -857.58,34.03 -345.9,-2.29 -489.27,47.37 -808.65,47.37z"/>
   <path class="fil15" d="M11012.42 1625.65l0 202.42c707.22,0 1248.21,-50.69 1921.06,-50.52 724.69,0.17 1276.05,-50.58 1971.58,-50.58 -164.22,-83.45 -343.21,-229.23 -556.06,-202.42 -620.95,0 -1093.67,51.78 -1668.29,50.58 -286.85,-0.58 -573.64,0.97 -860.44,-0.63 -353.23,-2.01 -476.95,51.15 -807.85,51.15z"/>
   <path class="fil25" d="M5249.24 19118.77c133.97,61.17 110.83,70.62 252.77,160.6l4448.75 -113.69 0 -181.81 -4701.52 134.9z"/>
   <path class="fil29" d="M11214.61 18359.94c-81.33,29.1 -6.53,-37 -77.9,51.04 -53.09,65.47 -42.1,68.21 -73.77,140.16l4853.2 -140.62c-8.82,-11.74 -21.08,-45.02 -26.35,-35.4 -5.21,9.39 -20.73,-26.86 -27.72,-33.22 -25.15,-22.8 -69.48,-56.19 -97.55,-74.75l-4549.91 92.79z"/>
   <path class="fil26" d="M3833.71 14187.15l-353.86 370.59c470.6,0 768.85,-50.8 1263.85,-50.58 460.29,0.23 928.82,24.18 1314.42,-50.51 -34.54,-87.13 -127.33,-215.14 -202.25,-320.08 -382.68,0 -618.89,52.07 -1010.68,50.69 -337.08,-1.2 -674.34,-0.11 -1011.48,-0.11z"/>
   <path class="fil30" d="M11922.4 3521.33c36.32,54.25 53.67,91.59 110.38,143.83 141.36,130.31 49.14,78.53 192.91,88.78 864.62,0 1555.11,-50.58 2426.6,-50.58 129.28,-9.22 121.6,-18.9 233.7,-98.57l221.32 -184.55c-607.38,0 -1021.44,50.63 -1617.77,50.52 -270.07,-0.06 -540.54,-1.89 -810.49,-1.66 -318.24,0.22 -420.25,52.23 -756.65,52.23z"/>
   <path class="fil23" d="M3328.17 6609.73l303.35 318.41c269.04,-115.53 805.22,-50.58 1162.75,-50.58 194.46,0 417.91,10.37 608.7,0.4 239.77,-12.48 307.93,-50.92 604.58,-50.92 89.23,-167.65 101.49,-89.24 151.67,-267.83 -1007.53,0 -1850.78,50.52 -2831.05,50.52z"/>
   <path class="fil31" d="M6058.12 11887.08c0,219.09 -12.6,73.49 50.52,126.24 0,204.6 -9.62,28.47 50.58,64.49l3437.68 -96.51c33.56,-100.41 37.86,-71.94 50.57,-206.77 -646.96,0 -1177.24,51.26 -1819.96,50.97 -311.48,-0.17 -633.79,-23.37 -941.26,8.48 -310.33,32.13 -474.32,53.1 -828.13,53.1z"/>
   <path class="fil18" d="M9748.57 4330.05l-455.02 404.67c181.69,0 376.49,7.1 556.23,1.72 235.82,-7.1 285.99,-51.32 554,-54.3 386.23,-4.3 777.78,2 1164.7,2l-454.96 -404.61c-236.22,0 -472.38,0.4 -708.6,-0.8 -307.98,-1.61 -401.98,51.32 -656.35,51.32z"/>
   <path class="fil32" d="M11062.94 1373.16c-37.52,98.06 -40.73,113.13 -50.52,252.49 330.9,0 454.62,-53.16 807.85,-51.15 286.8,1.6 573.59,0.05 860.44,0.63 574.62,1.2 1047.34,-50.58 1668.29,-50.58 -74.4,-91.47 4.93,-19.36 -85.51,-85.69 -70.69,-51.84 31.61,2.52 -98.58,-58.71 -81.79,-38.49 -168.11,-54.07 -245.5,-82.94 -29.26,12.66 -2597.06,75.95 -2856.47,75.95z"/>
   <path class="fil16" d="M2602.11 6099.26c101.9,55.22 165.94,96 271.1,151.62 674.91,0 1163.96,-50.58 1819.91,-50.52 691.29,0.06 1210.81,-50.58 1870.54,-50.58l202.19 -220.46 -4163.74 169.94z"/>
   <path class="fil33" d="M6209.8 12285.45c45.3,116.96 35.74,117.94 101.09,215.37l3083.82 -57.74c75.66,-100.75 70.91,-94.91 101.09,-241.94l-3286 84.31z"/>
   <path class="fil7" d="M8990.26 6200.59c71.03,174.53 -28.87,15.81 89.13,161.35 47.77,59 63,59.4 113.06,96.17 910.79,0 1688.34,-50.57 2628.8,-50.57 46.22,-56.94 3.61,21.02 69.08,-88.5 80.64,-134.83 19.01,-12.77 82.59,-169.03 -1010.68,0 -1929.59,50.58 -2982.66,50.58z"/>
   <path class="fil9" d="M9293.55 4734.72l-303.29 316.98c278.09,0 352.44,-51.95 656.18,-52.24 236.05,-0.17 472.55,1.72 708.77,1.72 542.94,0 909.64,-50.58 1415.52,-50.58 -54.07,-58.31 -127.22,-167.88 -202.25,-266.46 -386.92,0 -778.47,-6.3 -1164.7,-2 -268.01,2.98 -318.18,47.2 -554,54.3 -179.74,5.38 -374.54,-1.72 -556.23,-1.72z"/>
   <path class="fil34" d="M11315.71 11541.63c606,25.78 1200.78,-60.2 1870.54,-49.72 647.08,10.08 1228.57,-51.38 1921.06,-51.38 67.71,-93.65 15.07,-1.08 50.52,-134.89l-3943.22 0 101.1 235.99z"/>
   <path class="fil35" d="M11568.48 12356.36c31.16,66.33 22.68,71.48 67.76,144 67.59,108.65 32.93,58.08 83.91,101.78l3033.24 -89.24c30.59,-120.28 23.77,-82.71 50.58,-214.28l-3235.49 57.74z"/>
   <path class="fil12" d="M11669.63 3293.94c98.35,194.23 69.14,130.19 252.77,227.39 336.4,0 438.41,-52.01 756.65,-52.23 269.95,-0.23 540.42,1.6 810.49,1.66 596.33,0.11 1010.39,-50.52 1617.77,-50.52 155.8,-82.48 189.94,-87.93 303.29,-227.34 -383.13,0 -555.14,53.15 -908.32,51.61 -320.76,-1.38 -641.46,-0.12 -962.16,-1.21 -382.45,-1.37 -576.57,52.07 -907.87,52.36 -320.7,0.23 -641.8,-1.72 -962.62,-1.72z"/>
   <path class="fil36" d="M8838.59 5214.77l-202.25 227.34c303.86,0 607.95,1.89 911.64,1.66 330.21,-0.23 487.27,-54.36 857.46,-52.47 303.52,1.49 607.09,-0.97 910.61,0.58 370.02,1.83 526.45,-50.87 859.12,-50.87l-151.67 -176.76c-1111.95,0 -2061.17,50.52 -3184.91,50.52z"/>
   <path class="fil37" d="M17028.37 11558.41l3387.11 -85.8 0 -166.97 -3488.26 0c42.84,89.19 58.31,163.59 101.15,252.77z"/>
   <path class="fil38" d="M6159.22 12077.81c12.77,196.64 -33.34,100.36 50.58,207.64l3286 -84.31c62.49,-98.18 56.31,-103.45 101.1,-219.84l-3437.68 96.51z"/>
   <path class="fil29" d="M4895.37 18564.94c-84.26,22.97 -3.04,-26.69 -90.67,36.37 -78.24,56.25 -54.02,39.24 -111.58,112.5l5257.64 -151.62c0,-222.93 12.61,-76.58 -50.52,-129.33l-50.57 -0.23 -4954.3 132.31z"/>
   <path class="fil28" d="M17281.14 9059.18c-43.64,104.08 -42.33,118.51 -101.15,207.81l3083.81 -82.48 0 -222.7c-512.01,0 -1057.41,-8.76 -1566.39,18.67 -231.63,12.49 -428.9,33.63 -708.48,31.74 -303.29,-2.12 -479.93,42.1 -707.79,46.96z"/>
   <path class="fil39" d="M11062.94 1069.87l0 303.29c259.41,0 2827.21,-63.29 2856.47,-75.95 -297.84,-91.07 -543.97,-202.99 -884.83,-277.91 -202.54,15.46 -200.48,49.94 -452.96,52.58 -167.71,1.77 -339.26,-2.01 -507.54,-2.01 -337.09,-0.05 -674.11,0 -1011.14,0z"/>
   <path class="fil40" d="M6007.55 17758.75c-97.84,13.23 5.32,-18.05 -99.78,24.11 -80.71,32.36 -4.53,-12.26 -94.91,47.26 -100.13,65.92 -99.04,64.2 -159.18,164.61 1184.06,0 2414.8,-101.09 3589.35,-101.09 -8.99,-10.03 -22.74,-38.84 -27.26,-29.73 -11.4,23.08 -43.02,-111.98 -225.51,-155.74 -1057.99,0 -1947.64,50.58 -2982.71,50.58z"/>
   <path class="fil41" d="M5047.04 18424.84c-166.91,52.98 -80.07,-5.33 -151.67,140.1l4954.3 -132.31c-51.15,-157.12 77.15,-49.84 -101.1,-151.39l-4701.53 143.6z"/>
   <path class="fil33" d="M11517.96 12164.94l50.52 191.42 3235.49 -57.74c37.17,-41.01 12.94,12.78 54.58,-82.19 30.36,-69.25 24.06,-56.19 46.51,-152.53l-3387.1 101.04z"/>
   <path class="fil42" d="M15612.85 4161.65c-111.41,98.52 -230.66,181.74 -353.92,244.35 1019.95,0 1890.99,-50.52 2932.14,-50.52 -119.2,-120.63 -101.56,-161.18 -252.77,-294.93l-2325.45 101.1z"/>
   <path class="fil23" d="M9192.45 6458.11c54.25,193.09 102.48,131.06 202.26,318.36 257.46,-110.55 767.53,-50.52 1112.17,-50.52 185.07,0 373.63,4.06 558.06,2 274.54,-3.09 309.59,-52.58 554.12,-52.58 93.53,-93.54 135.34,-174.41 202.19,-267.83 -940.46,0 -1718.01,50.57 -2628.8,50.57z"/>
   <path class="fil43" d="M7321.97 1170.97c421.51,0 843.37,-1.83 1264.82,0.57 290.75,1.66 384.46,-31.04 604.35,-48.68 198.52,-15.93 453.93,-2.47 658.53,-2.47 -18.79,-178.36 -50.58,-178.76 -50.58,-429.76 -425.06,0 -1466.61,191.6 -1910.75,313.55 -155.74,42.78 -405.65,107.74 -566.37,166.79z"/>
   <path class="fil40" d="M12175.17 17607.07c-116.39,27.9 28.93,-59.57 -140.33,75.61 -2.64,2.06 -80.82,76.81 -81.05,77.04 -58.37,60.14 -27.44,24.86 -81.96,92.45l3184.91 -74.98c-49.26,-68.56 -83.23,-99.66 -159.18,-148.12 -61.52,-39.29 -28.01,-22.11 -94.91,-47.89 -106.37,-40.95 -1.09,-11.28 -99.78,-24.63 -900.25,0 -1675.62,50.52 -2527.7,50.52z"/>
   <path class="fil44" d="M17483.34 8778.29l-111.98 141.71c-44.28,62.72 -48.52,81.1 -90.22,139.18 227.86,-4.86 404.5,-49.08 707.79,-46.96 279.58,1.89 476.85,-19.25 708.48,-31.74 508.98,-27.43 1054.38,-18.67 1566.39,-18.67 -32.19,-113.75 -39.23,-96.46 -50.52,-246.07l-2729.94 62.55z"/>
   <path class="fil45" d="M598.28 11474.33c32.25,178.71 -1.94,60.83 50.52,196.58 286.97,2.12 573.71,1.72 860.61,3.44 342.36,2.06 519.8,-56.88 857.92,-55.22l1359.27 7.62c349.92,-13.35 -207.17,-16.1 258.79,-79.56 55.73,-71.54 10.54,-8.54 50.57,-140.16 -299.85,0 -615.74,-10.03 -913.3,-1.78 -287.94,8.02 -453.07,53.67 -805.16,52.41 -564.37,-1.95 -1158.46,-16.5 -1719.22,16.67z"/>
   <path class="fil46" d="M17635.01 12599.79c40.32,180.66 1.83,74.06 101.1,222.3l2477.17 -50.58c34.43,-54.3 28.81,-0.97 46.11,-105.5 7.56,-45.88 4.41,-100.41 4.41,-147.21 -486.86,-25.77 -825.95,16.44 -1314.37,32.59 -335.59,11.06 -1096.08,-70.28 -1314.42,48.4z"/>
   <path class="fil37" d="M6007.55 11701.67c14.89,186.9 -27.1,75.03 50.57,185.41 353.81,0 517.8,-20.97 828.13,-53.1 307.47,-31.85 629.78,-8.65 941.26,-8.48 642.72,0.29 1173,-50.97 1819.96,-50.97 50.7,-68.74 50.52,11.97 50.52,-173.96 -320.41,-2.63 -639.22,-9.39 -960.55,-9.05 -354.33,0.46 -616.32,56.42 -908.21,61.23 -654.29,10.77 -1219.12,7.1 -1821.68,48.92z"/>
   <path class="fil47" d="M5299.81 18253.06c-168.91,45.02 -139.3,19.82 -252.77,171.78l4701.53 -143.6c-100.58,-150.13 -16.67,-124.58 -202.25,-123.72 -1419.99,-7.73 -2811.11,103.33 -4246.51,95.54z"/>
   <path class="fil48" d="M6563.66 13042.56c38.03,56.41 47.43,84.14 90.21,143.82 5.79,8.02 14.67,20.79 20.68,28.64l91.3 104.13 2173.84 -54.7c8.01,-7.56 20.44,-30.93 23.48,-23.31l178.77 -262.85 -2578.28 64.27z"/>
   <path class="fil35" d="M17382.24 12204.74c27.09,112.21 11.34,72.4 61.23,150.47 60.03,93.94 56.76,66.45 90.44,95.32l2780.47 -89.3 0 -214.22 -2932.14 57.73z"/>
   <path class="fil49" d="M16927.22 9839.77c-51.26,67.76 -50.52,-106.3 -50.52,151.62l3488.2 0 0 -232.32 -3437.68 80.7z"/>
   <path class="fil50" d="M11214.61 9869.96c-61.63,44.68 -50.52,-158.66 -50.52,121.43l3892.65 0 0 -222.3 -3842.13 100.87z"/>
   <path class="fil26" d="M15107.31 14254.45c383.88,0 563.22,-52.81 960.5,-50.86 353.76,1.77 707.85,0.29 1061.66,0.29 -63.12,-159.3 -183.58,-213.19 -303.35,-370.6l-1466.04 0c-90.38,179.06 -149.84,303.24 -252.77,421.17z"/>
   <path class="fil51" d="M11062.94 18856.6l0 110.49 5105.97 -113.07c217.26,-150.47 -72.97,94.86 67.19,-48.22 72.34,-73.84 17.58,-9 84.48,-100.58l-5257.64 151.38z"/>
   <path class="fil52" d="M15309.5 16840.52c90.85,82.48 141.02,93.82 252.77,196.35l2628.8 -50.52c108.25,-99.32 155.51,-114.67 202.25,-246.93 -575.54,0 -994.99,50.63 -1567.2,50.52 -270.24,-0.06 -540.82,-1.89 -810.94,-1.66 -308.39,0.23 -388.81,52.24 -705.68,52.24z"/>
   <path class="fil5" d="M14601.77 4900.08c-105.62,101.21 -76.52,81.17 -202.25,137.93l3184.97 -50.58c429.87,0.52 674.74,-50.52 1061.6,-50.52 -65.59,-54.18 -33.11,-21.82 -101.1,-137.92 -336.97,0 -674.11,1.03 -1011.08,-0.18 -398.88,-1.37 -599.02,53.39 -958.67,51.78 -337.65,-1.43 -675.31,0.29 -1012.91,-1.37 -397.22,-2.01 -577.08,50.86 -960.56,50.86z"/>
   <path class="fil34" d="M5957.03 11519.29c0,222.64 -0.81,135.47 50.52,182.38 602.56,-41.82 1167.39,-38.15 1821.68,-48.92 291.89,-4.81 553.88,-60.77 908.21,-61.23 321.33,-0.34 640.14,6.42 960.55,9.05 6.65,-8.99 19.08,-32.3 20.51,-26.52 1.49,6.24 14.95,-23.94 16.61,-32.02 15.12,-72.57 13.46,-67.36 13.46,-146.46 -392.76,5.79 -599.25,55.79 -1010.96,53.5 -337.2,-1.83 -673.94,-2.98 -1011.2,-2.98 -5.5,6.93 -11.11,19.99 -13.51,22.68l-1755.87 50.52z"/>
   <path class="fil53" d="M5502.01 19279.37c133.11,43.59 168.39,72.69 303.34,149.1l4145.41 -111.12 0 -151.67 -4448.75 113.69z"/>
   <path class="fil2" d="M15107.31 14254.45c-87.52,149.1 -111.98,137.7 -151.67,286.28 199.04,0 411.2,7.39 608.35,1.72 258.73,-7.51 310.51,-53.73 603.26,-53.96 421.68,-0.34 843.77,1.66 1265.51,1.66l-136.09 -114.15c-74.81,-68.22 -91.19,-88.56 -167.2,-172.12 -353.81,0 -707.9,1.48 -1061.66,-0.29 -397.28,-1.95 -576.62,50.86 -960.5,50.86z"/>
   <path class="fil53" d="M11062.94 19146.83l0 130.02 4651.01 -111.17c102.41,-84.43 118.85,-75.95 202.19,-151.62l-4853.2 132.77z"/>
   <path class="fil31" d="M11366.29 11710.03c0,240.05 -1.15,95.88 50.57,151.67l3589.3 -46.74c50.8,-121.6 35.63,-26.23 50.58,-206.03l-3690.45 101.1z"/>
   <path class="fil54" d="M11871.83 17852.17c-78.25,26.46 0.34,-27.9 -115.42,60.94 -255.69,196.24 174.53,-171.72 -55.68,48.63 -67.3,64.38 -20.9,17.36 -81.67,93.25 637.28,0 1146.14,-50.63 1819.96,-50.58 656.58,0.06 1145.11,-50.52 1819.91,-50.52 -107.8,-198.98 11.8,-67.07 -202.19,-176.7l-3184.91 74.98z"/>
   <path class="fil37" d="M648.8 11811.13c0,33.56 -3.49,114.9 4.41,145.03 34.6,130.99 -1.43,31.27 46.17,82.53 518.37,-15.18 1101.52,-49.6 1565.59,-51.78 553.03,-2.63 926.02,-62.32 1518.22,-60.71l101.1 -174.01c-564.99,-12.43 -1133.08,-17.87 -1631.4,39.81 -494.55,57.22 -1087.61,-41.88 -1604.09,19.13z"/>
   <path class="fil44" d="M11366.29 9210.86c319.38,0 462.75,-49.66 808.65,-47.37 332.68,2.23 567.35,-27.55 857.58,-34.03 568.94,-12.77 1215.9,14.55 1771.45,-27.15 -14.44,-51.83 -33.34,-119.31 -50.58,-172.17l-3286.01 40.26c-30.64,144 -28.98,139.99 -101.09,240.46z"/>
   <path class="fil47" d="M11619.06 18054.99c-74.41,24.52 -12.66,-21.25 -90.62,40.44 -87.06,68.79 -44.5,27.89 -111.58,123.38l4044.32 -101.1c-63.81,-171.95 -21.48,-167.48 -202.25,-163.82 -674.8,0 -1163.33,50.58 -1819.91,50.52 -673.82,-0.05 -1182.68,50.58 -1819.96,50.58z"/>
   <path class="fil55" d="M11416.86 18218.81c-102.47,17.81 11.29,-39.35 -90.67,29.95 -81.11,55.16 -53.38,37.06 -111.58,111.18l4549.91 -92.79c-55.78,-61.8 -33.79,-61.12 -128.64,-111.12 -117.19,-61.75 -43.53,-52.64 -174.7,-38.32l-4044.32 101.1z"/>
   <path class="fil56" d="M17736.11 12822.09c43.18,64.5 55.84,82.37 107.16,146.81 1.49,1.83 67.94,78.81 68.22,79.04 66.9,65.35 10.25,26.46 77.39,60.66 426.43,0 698.56,-60.43 1060.56,-60.6 371.34,-0.18 742.96,10.08 1113.27,10.08 34.02,-122.81 46.79,-117.71 50.57,-286.57l-2477.17 50.58z"/>
   <path class="fil57" d="M6310.89 17543.15c-127.79,9.11 -60.31,-25.37 -174.75,55.68 -141.2,100 -64.67,33.73 -128.59,159.92 1035.07,0 1924.72,-50.58 2982.71,-50.58l-283.24 -286.22c-12.37,9.05 -29.33,17.41 -40.5,21.82 -11.11,4.47 -27.43,15.01 -41.47,19.76 -175.27,59.46 -587.9,29.33 -1151.46,29.04 -462.18,-0.23 -740.84,50.58 -1162.7,50.58z"/>
   <path class="fil27" d="M2721.54 16903.64c122.86,94.74 129.91,97.37 202.19,240.17 860.67,0 1566.28,-50.58 2426.6,-50.58 111.35,-110.43 227.86,-188.68 353.93,-252.71 -519.4,0 -1013.72,42.95 -1463.58,51.95 -491.57,9.79 -1036,-31.68 -1519.14,11.17z"/>
   <path class="fil58" d="M5855.87 9738.91c-24.57,208.09 42.5,91.3 -50.52,165.36l3892.64 -101.1c-44.1,-118.62 -17.06,-25.83 -50.52,-165.59l-3791.6 101.33z"/>
   <path class="fil33" d="M17281.14 12013.32c22.69,97.43 -31.84,-0.63 35.11,115.59 42.62,74 28.76,39.63 65.99,75.83l2932.14 -57.73c40.27,-49.21 22.97,34.88 46.11,-87.81 7.56,-39.98 4.41,-90.56 4.41,-131.91l-3083.76 86.03z"/>
   <path class="fil37" d="M11315.71 11541.63c0,211.87 4.81,118.97 50.58,168.4l3690.45 -101.1c45.76,-49.43 50.57,43.48 50.57,-168.4 -692.49,0 -1273.98,61.46 -1921.06,51.38 -669.76,-10.48 -1264.54,75.5 -1870.54,49.72z"/>
   <path class="fil59" d="M11214.61 9869.96l3842.13 -100.87c-64.27,-78.87 -28.42,-8.7 -50.58,-140.67l-3740.97 54.87c-97.43,-88.09 -50.58,58.25 -50.58,186.67z"/>
   <path class="fil60" d="M4945.89 18896.18c83,106.08 11.51,52.12 151.67,112.1l4853.2 -120.46 0 -134.89 -5004.87 143.25z"/>
   <path class="fil24" d="M15107.31 7017.72c33.22,199.16 22,190.4 151.62,307.47l1617.77 -50.52c51.44,-42.9 98.98,-75.43 140.39,-124 108.37,-127.1 48.23,-36.26 112.38,-183.47 -353.87,0 -707.79,0.06 -1061.66,0 -166.45,-0.05 -343.78,-6.24 -508.63,-1.71 -236.56,6.47 -258.84,47.65 -451.87,52.23z"/>
   <path class="fil59" d="M16977.8 9718.29l3336.58 -60.32 0 -172.06 -3235.49 32.02c-76.06,89.75 -55.21,82.88 -101.09,200.36z"/>
   <path class="fil45" d="M5957.03 11519.29l1755.87 -50.52c2.4,-2.69 8.01,-15.75 13.51,-22.68 337.26,0 674,1.15 1011.2,2.98 411.71,2.29 618.2,-47.71 1010.96,-53.5 62.61,-38.43 50.52,94.74 50.52,-89.93l-3892.64 0c4.07,181.58 -32.94,116.97 50.58,213.65z"/>
   <path class="fil39" d="M7321.97 1170.97l-556.12 227.34c1089.04,0 2002.29,-50.58 3083.82,-50.58l0 -227.34c-204.6,0 -460.01,-13.46 -658.53,2.47 -219.89,17.64 -313.6,50.34 -604.35,48.68 -421.45,-2.4 -843.31,-0.57 -1264.82,-0.57z"/>
   <path class="fil38" d="M699.38 12229.49l0 188.21 50.52 3.84 2780.52 -83.11c93.83,-32.88 -4.18,80.82 98.87,-75.66 41.93,-63.75 30.47,-52.07 52.75,-143.77l-2982.66 110.49z"/>
   <path class="fil61" d="M2772.12 4254.38c-119.54,127.5 -77.16,86.55 -151.68,227.34 1040.81,0 1907.2,-50.58 2932.14,-50.58 -91.01,-135.86 -118.68,-116.73 -252.77,-227.33 -494.83,0 -794.16,52.35 -1263.62,50.69 -421.28,-1.49 -842.79,-0.12 -1264.07,-0.12z"/>
   <path class="fil62" d="M11315.71 9418.61l-50.52 168.39 3690.45 -101.09c-39.75,-69.65 -32.88,-55.56 -50.58,-159.06l-3589.35 91.76z"/>
   <polygon class="fil60" points="11062.94,18744.57 11062.94,18856.6 16320.58,18705.22 16168.91,18592.89 "/>
   <path class="fil63" d="M2974.31 4006.65l-202.19 247.73c421.28,0 842.79,-1.37 1264.07,0.12 469.46,1.66 768.79,-50.69 1263.62,-50.69 -104.87,-53.27 -240.68,-161.07 -353.92,-247.68 -724.4,0 -1277.14,50.52 -1971.58,50.52z"/>
   <path class="fil5" d="M8990.26 5051.7l-151.67 163.07c1123.74,0 2072.96,-50.52 3184.91,-50.52 -117.71,-106.88 -118.45,-60.66 -252.77,-213.65 -505.88,0 -872.58,50.58 -1415.52,50.58 -236.22,0 -472.72,-1.89 -708.77,-1.72 -303.74,0.29 -378.09,52.24 -656.18,52.24z"/>
   <path class="fil64" d="M11062.94 19276.85c83.51,69.48 25.03,-28.06 50.58,128.02l4297.08 -101.1c133.92,-45.88 196.18,-83.62 303.35,-138.09l-4651.01 111.17z"/>
   <polygon class="fil31" points="17028.37,11558.41 17129.47,11713.64 20415.48,11663.35 20415.48,11472.61 "/>
   <path class="fil31" d="M699.38 12038.69l0 190.8 2982.66 -110.49c31.62,-38.78 33.97,-23.6 65.99,-88.61 36.77,-74.58 11.57,-16.38 35.16,-104.19 -592.2,-1.61 -965.19,58.08 -1518.22,60.71 -464.07,2.18 -1047.22,36.6 -1565.59,51.78z"/>
   <path class="fil62" d="M547.71 9724.7l0 165.88 3387.1 -101.38c-22.45,-96.57 36.37,-3.1 -35.11,-114.04 -61.35,-95.26 -7.5,-19.94 -65.99,-60.2l-3286 109.74z"/>
   <path class="fil44" d="M6058.12 9106.95c-31.56,163.99 -4.01,62.78 -50.57,193.83 617.69,0 1138.35,-16.78 1672.98,-69.59 508.23,-50.23 1280.18,-11.97 1815.27,-11.97l-50.58 -167.83 -3387.1 55.56z"/>
   <path class="fil65" d="M5957.03 9435.39c-31.97,133.29 -9.57,53.27 -50.58,168.68l3690.45 -126.52c-39.64,-60.83 -32.82,-47.43 -50.58,-143.26l-3589.29 101.1z"/>
   <path class="fil57" d="M12427.94 17391.48c-63.52,26.17 -26,-6.42 -115.41,66.15 -257.24,208.78 181.91,-188.73 -55.74,50.92 -71.82,72.46 -11.05,3.27 -81.62,98.52 852.08,0 1627.45,-50.52 2527.7,-50.52 -61.17,-120.74 13.86,-61.23 -128.59,-159.92 -127.33,-88.26 -37.12,-45.88 -174.76,-55.67 -636.82,0 -1419.99,-64.04 -1971.58,50.52z"/>
   <path class="fil65" d="M547.71 9536.49l0 188.21 3286 -109.74c-24,-170.64 31.74,-64.27 -50.52,-154.43l-3235.48 75.96z"/>
   <path class="fil66" d="M11113.52 19404.87l0 134.78 4044.31 -101.1c171.49,-31.39 157.8,-25.14 252.77,-134.78l-4297.08 101.1z"/>
   <path class="fil54" d="M5653.68 17994.73c-196.41,65.24 -96.23,-18.27 -202.25,144l3993.79 -101.09c-43.93,-43.94 -18.61,-29.85 -82.53,-76.07 -102.76,-74.18 -59.69,-40.67 -119.66,-67.93 -1174.55,0 -2405.29,101.09 -3589.35,101.09z"/>
   <path class="fil62" d="M5906.45 9604.07c-38.78,102.02 -8.65,36.72 -50.58,134.84l3791.6 -101.33c-39.92,-69.99 -32.93,-55.79 -50.57,-160.03l-3690.45 126.52z"/>
   <path class="fil67" d="M800.48 12776.1c11.51,132.82 19.82,122.51 50.57,223.04l2274.93 -43.36c62.84,-27.61 32.65,8.7 109.63,-75.55 49.38,-54.13 57.17,-91.3 92.56,-154.65l-2527.69 50.52z"/>
   <path class="fil63" d="M12225.69 3753.94c48.17,90.44 19.82,80.19 112.38,163.42 90.56,81.39 57.45,57.1 140.39,59.11 595.93,0 1306.06,41.3 1819.97,-50.52 143.36,31.85 15.58,23.25 109.23,-0.98 42.61,-11.05 63.35,-18.73 96.74,-40.89 123.61,-82.2 87.92,-68.05 147.89,-180.72 -871.49,0 -1561.98,50.58 -2426.6,50.58z"/>
   <path class="fil62" d="M17179.99 9266.99l-101.1 168.4 3235.49 -75.95c-17.01,-117.82 -7.1,-100.81 -50.58,-174.93l-3083.81 82.48z"/>
   <path class="fil59" d="M5805.35 9904.27c84.09,91.99 60.77,96 402.73,90.1l3489.91 -2.98 0 -188.22 -3892.64 101.1z"/>
   <path class="fil68" d="M17584.43 8576.1c-80.53,120.23 -61.17,52.64 -101.09,202.19l2729.94 -62.55 -50.57 -199.9 -2578.28 60.26z"/>
   <path class="fil58" d="M547.71 9890.58c39.63,94.68 -65.64,109.35 351.11,106.37l3137.14 -5.56 -101.15 -202.19 -3387.1 101.38z"/>
   <path class="fil69" d="M15562.27 17036.87c120.86,71.48 237.42,155.45 353.87,233.41 395.57,0 595.52,-52.13 1010.96,-50.7 353.87,1.26 707.91,0.18 1061.78,0.18 113.18,-75.84 155.22,-90.62 202.19,-233.41l-2628.8 50.52z"/>
   <path class="fil67" d="M6411.99 12679.07c0,241.88 -13.06,89.87 50.57,143.02 0,111.87 -12.31,4.18 50.52,25.37 950.37,17.99 1746.02,-44.79 2679.37,-43.35 7.97,-6.36 21.6,-24.63 24.06,-18.79 2.81,6.53 19.42,-18.45 22.97,-25.43 48.97,-96.35 5.04,17.52 54.07,-139.76 -403.35,0.74 -1160.92,-30.76 -1440.72,11.17 -390.93,58.59 -1018.36,47.77 -1440.84,47.77z"/>
   <path class="fil70" d="M11467.38 12013.32c0,240.05 -1.09,95.88 50.58,151.62l3387.1 -101.04c51.72,-55.79 50.58,88.38 50.58,-151.68l-3488.26 101.1z"/>
   <path class="fil71" d="M6394.98 8525.52c-82.43,61.06 -71.72,-37.86 -134.67,182.83l2982.72 -62.14c-14.78,-51.9 -33.33,-118.11 -50.58,-170.98l-1162.75 -11.4c-10.59,13 -23.71,35.51 -30.18,40.44l-1604.54 21.25z"/>
   <path class="fil69" d="M6664.76 17289.64c-85.23,6.7 -58.37,5.61 -109.23,26.06 -14.72,5.9 -94.4,47.42 -96.75,49.03 -130.82,92.39 -78.93,48.86 -147.89,178.42 421.86,0 700.52,-50.81 1162.7,-50.58 563.56,0.29 976.19,30.42 1151.46,-29.04 14.04,-4.75 30.36,-15.29 41.47,-19.76 11.17,-4.41 28.13,-12.77 40.5,-21.82 -142.68,-153.85 -92.68,-128.48 -272.87,-182.89l-1769.39 50.58z"/>
   <path class="fil72" d="M749.9 12580.15l50.58 195.95 2527.69 -50.52c34.31,-42.05 9.34,-5.27 69.08,-86.38 43.82,-59.45 49.55,-71.08 82.6,-120.4l-2729.95 61.35z"/>
   <path class="fil73" d="M11113.52 20189.59l2274.92 -42.68c166.23,2.29 198.59,-14.83 338.29,-61.51 0.4,-0.12 133,-49.03 146.52,-55.56 107.05,-51.78 62.55,-28.41 121.83,-76.59l-2881.56 30.48 0 205.86z"/>
   <path class="fil74" d="M18089.97 13282.95c12.89,17.76 96.11,146.58 99.21,150.42 31.79,39.58 19.99,36.6 69.13,71.48 110.32,78.41 -36.2,17.58 84.43,33.56l1718.87 -17.06 50.52 -288.97c-401.58,0 -643.58,66.21 -1026.72,24.85 -363.71,-39.29 -610.93,25.72 -995.44,25.72z"/>
   <path class="fil75" d="M11113.52 19652.08l0 140.8 3538.77 -96.29c152.65,-35.57 198.93,-63.92 303.35,-145.6l-3842.12 101.09z"/>
   <path class="fil35" d="M6310.89 12500.82c0,209.81 -12.66,66.27 50.52,119.08 0,204.77 -9.79,29.44 50.58,59.17 422.48,0 1049.91,10.82 1440.84,-47.77 279.8,-41.93 1037.37,-10.43 1440.72,-11.17 81.34,-62.89 58.2,-71.94 101.16,-177.05l-3083.82 57.74z"/>
   <polygon class="fil76" points="11922.4,13074.8 14450.1,13019.7 14551.2,12847.46 11821.25,12855.6 "/>
   <path class="fil77" d="M5957.03 19519.54c130.53,66.33 168.97,110.26 353.86,128.02l3639.87 -101.1 0 -128.01 -3993.73 101.09z"/>
   <path class="fil78" d="M11821.25 8264.62c-41.76,86.49 -48.34,114.04 -101.1,190.79l2729.95 -89.92c-21.08,-83.12 19.7,-11.06 -35.11,-108.89 -35.69,-63.58 -34.48,-48.63 -65.99,-84.89l-2527.75 92.91z"/>
   <path class="fil79" d="M14753.39 16461.28c138.33,20.33 105.05,30.07 202.25,126.47 660.3,0 1186.92,-51.38 1819.96,-50.58 301.46,0.34 612.2,7.45 912.45,1.43 300.37,-5.96 550.22,-51.95 907.46,-51.95l101.1 -126.47c-723.03,0 -1285.45,50.69 -1971.58,50.52 -724.69,-0.12 -1275.54,50.58 -1971.64,50.58z"/>
   <path class="fil51" d="M5097.56 19008.28c105.34,64.89 48.8,24.74 151.68,110.49l4701.52 -134.9 0 -96.05 -4853.2 120.46z"/>
   <path class="fil63" d="M6462.56 3895.53c64.62,123.61 -4.98,20.97 73.49,104.25 21.02,22.34 75.61,69.42 85.69,75.95 204.49,133.75 86.38,59.06 194.69,52.41l1415.52 0c144.57,-3.61 -45.25,35.63 92.22,-18.16 5.79,-2.29 70.11,-31.44 90.79,-45.93 121.89,-85.29 116.04,-105.62 170.86,-219.09 -758.71,0 -1349.48,50.57 -2123.26,50.57z"/>
   <path class="fil52" d="M2923.73 17143.81l252.77 235.3 1819.97 -50.52c85.97,-53.33 105.39,-62.95 189.47,-124.01 112.5,-81.62 23.83,-39.93 164.39,-111.35 -860.32,0 -1565.93,50.58 -2426.6,50.58z"/>
   <path class="fil80" d="M6765.85 13319.15c21.48,44.57 33.57,93.02 70.57,140.74 141.71,182.6 17.07,55.5 131.68,95.25 325.69,-70.4 536.59,3.09 862.45,-1.78 326.31,-4.86 584.46,-48.74 957.46,-48.74 92.22,-67.76 -21.88,93.31 90.44,-88.32 48.98,-79.22 34.09,-37.63 61.24,-151.85l-2173.84 54.7z"/>
   <path class="fil81" d="M6007.55 9300.78c-30.48,83.63 -6.71,62.32 -50.52,134.61l3589.29 -101.1 -50.52 -115.07c-535.09,0 -1307.04,-38.26 -1815.27,11.97 -534.63,52.81 -1055.29,69.59 -1672.98,69.59z"/>
   <path class="fil71" d="M699.38 8683.04c-20.28,59.22 -36.77,118.62 -50.58,176.99l2780.47 -62.15c-84.66,-101.84 -33.05,-74.69 -151.61,-188.05l-1011.08 5.62c-10.66,13.06 -23.77,35.51 -30.25,40.44l-1536.95 27.15z"/>
   <path class="fil82" d="M5451.43 18138.73c-160.67,24.17 -78.99,-21.31 -151.62,114.33 1435.4,7.79 2826.52,-103.27 4246.51,-95.54 -43.02,-107.05 -8.08,-79.56 -101.1,-119.88l-3993.79 101.09z"/>
   <path class="fil43" d="M11062.94 1069.87c337.03,0 674.05,-0.05 1011.14,0 168.28,0 339.83,3.78 507.54,2.01 252.48,-2.64 250.42,-37.12 452.96,-52.58 -302.15,-111.01 -738.67,-172.58 -1104.56,-235.19 -159.23,-27.26 -392.87,-50.52 -590.31,-78.07 -338.29,-47.25 -276.77,61.4 -276.77,363.83z"/>
   <path class="fil24" d="M1002.67 7371.59c-24.86,149.04 -46.4,166.11 -50.52,330.38l1617.72 -50.52 -303.29 -330.44c-421.23,0 -780.42,50.58 -1263.91,50.58z"/>
   <path class="fil81" d="M598.28 9389.85c-18.44,93.88 -13,80.77 -50.57,146.64l3235.48 -75.96c-5.67,-14.72 -12.6,-54.12 -16.32,-44.39 -3.49,8.94 -12.89,-33.1 -17.58,-39.92 -58.2,-84.03 -15.87,-32.76 -67.25,-72.34l-3083.76 85.97z"/>
   <path class="fil46" d="M851.05 12999.14c26.81,139.53 19.14,97.43 50.52,222.75l2072.74 -50.57c143.6,-87.7 107.57,-21.65 151.67,-215.54l-2274.93 43.36z"/>
   <path class="fil46" d="M6513.08 12847.46c17.76,123.15 9.8,104.08 50.58,195.1l2578.28 -64.27c40.95,-76.87 33.1,-60.95 50.51,-174.18 -933.35,-1.44 -1729,61.34 -2679.37,43.35z"/>
   <path class="fil83" d="M15916.14 3925.95c-150.41,113.75 -164.62,148.58 -303.29,235.7l2325.45 -101.1 -151.62 -185.18c-320.18,0 -640.37,0.17 -960.56,0 -163.41,-0.06 -349.51,-8.3 -510.12,-0.4 -215.54,10.65 -215.08,46.51 -399.86,50.98z"/>
   <path class="fil84" d="M11517.96 8856.48c-35.63,85.34 -6.99,56.41 -50.58,113.92l3286.01 -40.26 -101.1 -179.29 -3134.33 105.63z"/>
   <path class="fil85" d="M1154.34 13987.88c427.07,3.72 746.8,-10.77 1112.24,-32.76 87.92,-25.55 -3.73,19.47 86.37,-41.19 45.42,-30.58 68.91,-52.58 105.11,-88.49 91.36,-90.62 101.78,-102.13 162.38,-207.18 -324.02,0 -545.35,41.07 -809.74,42.27 -277,1.26 -488.07,-38.09 -808.03,-38.09 37.23,84.89 31.79,92.79 69.54,195.49 53.61,146.06 -2.35,88.56 82.13,169.95z"/>
   <path class="fil86" d="M17179.99 11861.7l3184.91 -58.94c53.15,-73.03 11,-13.8 50.58,-139.41l-3286.01 50.29c18.27,94.91 12.77,81.73 50.52,148.06z"/>
   <path class="fil87" d="M749.9 12421.54l0 158.61 2729.95 -61.35c43.76,-76.81 33.62,-59.05 50.57,-180.37l-2780.52 83.11z"/>
   <path class="fil26" d="M18595.51 13833.28c63.87,156.83 5.5,87.93 136.95,222.82 10.37,10.65 72.8,57.05 79.68,61.17 97.6,58.88 -9.85,12.95 86.72,36.09 373.57,0 591.11,-50.58 960.5,-50.58 52.41,-153.51 71.02,-179.74 101.15,-370.59 -233.18,0 -537.73,-16.79 -762.37,6.07 -206.21,20.91 -361.03,95.02 -602.63,95.02z"/>
   <path class="fil88" d="M3833.71 14187.15c337.14,0 674.4,-1.09 1011.48,0.11 391.79,1.38 628,-50.69 1010.68,-50.69 -35.28,-67.53 -94.34,-137.81 -151.61,-227.56l-1567.2 16.72 -303.35 261.42z"/>
   <path class="fil45" d="M598.28 11474.33c560.76,-33.17 1154.85,-18.62 1719.22,-16.67 352.09,1.26 517.22,-44.39 805.16,-52.41 297.56,-8.25 613.45,1.78 913.3,1.78 78.93,-46.51 24.23,-2.29 50.52,-101.39l-3488.2 0 0 168.69z"/>
   <polygon class="fil89" points="6310.89,19647.56 6513.08,19775.29 9900.24,19674.19 9950.76,19546.46 "/>
   <path class="fil90" d="M11972.92 8054.29c-127.79,121.32 -69.25,69.54 -151.67,210.33l2527.75 -92.91 -101.15 -168 -2274.93 50.58z"/>
   <path class="fil34" d="M648.8 11670.91l0 140.22c516.48,-61.01 1109.54,38.09 1604.09,-19.13 498.32,-57.68 1066.41,-52.24 1631.4,-39.81l101.1 -205c-465.96,63.46 91.13,66.21 -258.79,79.56l-1359.27 -7.62c-338.12,-1.66 -515.56,57.28 -857.92,55.22 -286.9,-1.72 -573.64,-1.32 -860.61,-3.44z"/>
   <path class="fil86" d="M11467.38 12013.32l3488.26 -101.1c85.57,0 50.52,15.58 50.52,-97.26l-3589.3 46.74c0,240.06 -1.14,95.83 50.52,151.62z"/>
   <path class="fil58" d="M11265.19 9587l0 96.29 3740.97 -54.87c-39.75,-60.26 -32.82,-46.8 -50.52,-142.51l-3690.45 101.09z"/>
   <polygon class="fil91" points="6260.31,8708.35 6209.8,8867.53 9293.55,8778.29 9243.03,8646.21 "/>
   <path class="fil92" d="M6664.76 8020.04c-151.9,111.29 -49.95,30.53 -151.68,185.87l2477.18 -58.66c-94.68,-127.5 -15.69,-70.45 -151.67,-187.24l-2173.83 60.03z"/>
   <path class="fil70" d="M17179.99 11861.7c5.61,11.29 13.35,16.9 16.32,34.08 2.98,17.07 13.52,27.21 17.59,33.05 62.6,90.68 22.34,34.94 67.24,84.49l3083.76 -86.03 0 -124.53 -3184.91 58.94z"/>
   <path class="fil89" d="M11113.52 19539.65l0 112.43 3842.12 -101.09c94.62,-27.5 19.07,17.07 116.56,-41.13 70.22,-41.93 41.93,-30.01 85.63,-71.31l-4044.31 101.1z"/>
   <path class="fil93" d="M699.38 8501.86l0 181.18 1536.95 -27.15c6.48,-4.93 19.59,-27.38 30.25,-40.44l1011.08 -5.62c-38.44,-134.2 28,-28.12 -101.16,-158.54l-2477.12 50.57z"/>
   <path class="fil56" d="M11922.4 13074.8c29.9,44.68 2.06,19.99 61,89.76 7.51,8.88 36.32,40.15 44.11,48.11l46.51 39.18c462.58,19.7 740.55,-42.16 1109.42,-52.29 394.65,-10.83 778.99,30.18 1114.99,35.57 93.19,-0.41 15.86,61.11 98.86,-63.47 44.22,-66.38 30.18,-53.21 52.81,-151.96l-2527.7 55.1z"/>
   <path class="fil19" d="M1002.67 7371.59c483.49,0 842.68,-50.58 1263.91,-50.58 -74.06,-51.15 -172.41,-146.46 -239.77,-215.42 -117.08,-119.89 -128.82,-167.25 -265.83,-233.75l-556.06 0c-20.22,74.86 -77.27,242.63 -85.4,262.96 -33.51,83.68 -67.19,182.6 -116.85,236.79z"/>
   <path class="fil56" d="M952.15 13428.9c23.49,72.23 35.86,121.66 50.52,193.54 319.96,0 531.03,39.35 808.03,38.09 264.39,-1.2 485.72,-42.27 809.74,-42.27 160.1,-81.39 139.82,-131.8 252.77,-282.32 -192,3.49 -757.05,33.79 -954.83,63.69 -313.6,47.37 -640.54,29.27 -966.23,29.27z"/>
   <path class="fil46" d="M11770.73 12751.41l50.52 104.19 2729.95 -8.14c53.32,-39.17 14.6,36.61 65.98,-62.72 58.65,-113.29 12.83,-18.55 35.11,-114.32 -559.89,0 -918.69,14.55 -1466.04,32.59 -263.77,8.7 -491.73,21.88 -758.42,7.67 -332.73,-17.75 -408.23,18.45 -657.1,40.73z"/>
   <path class="fil90" d="M6513.08 8205.91c-52.98,95.71 -63.69,91.36 -101.09,183l2679.37 -89.24c-90.1,-88.84 -48.8,-52.69 -101.1,-152.42l-2477.18 58.66z"/>
   <path class="fil30" d="M2974.31 4006.65c694.44,0 1247.18,-50.52 1971.58,-50.52 -150.64,-87.46 -181.92,-141.7 -353.87,-232.66l-1314.36 0 -303.35 283.18z"/>
   <path class="fil24" d="M7220.87 7219.92c-67.81,155.62 -5.9,29.49 -89.46,152.41 -54.65,80.42 -50.52,46.86 -112.79,155.06l1516.62 -27.61c-104.53,-163.24 -117.13,-166.74 -252.77,-330.38 -172.52,0 -392.41,-11.97 -559.15,6.24 -185.98,20.33 -242.97,44.28 -502.45,44.28z"/>
   <path class="fil92" d="M800.48 8171.71l-50.58 185.87 2325.51 -58.71c-50.3,-143.48 -38.61,-97.77 -151.68,-187.24l-2123.25 60.08z"/>
   <path class="fil84" d="M6159.22 8980.48c-8.02,8.82 -21.19,10.94 -24.06,26.47 -2.86,15 -19.36,21.3 -22.97,25.89 -0.4,0.51 -52.06,71.19 -54.07,74.11l3387.1 -55.56c-31.38,-40.89 -63.75,-83.45 -101.09,-129.85l-3184.91 58.94z"/>
   <path class="fil79" d="M2620.44 16764.56c143.66,68.34 58.6,47.2 101.1,139.08 483.14,-42.85 1027.57,-1.38 1519.14,-11.17 449.86,-9 944.18,-51.95 1463.58,-51.95 97.2,-96.46 63.86,-106.14 202.19,-126.53 -1158.34,0 -2148.06,50.57 -3286.01,50.57z"/>
   <path class="fil94" d="M11720.15 12602.14c21.37,138.33 -15.81,67.82 50.58,149.27 248.87,-22.28 324.37,-58.48 657.1,-40.73 266.69,14.21 494.65,1.03 758.42,-7.67 547.35,-18.04 906.15,-32.59 1466.04,-32.59l101.1 -157.52 -3033.24 89.24z"/>
   <path class="fil93" d="M6411.99 8388.91l-17.01 136.61 1604.54 -21.25c6.47,-4.93 19.59,-27.44 30.18,-40.44l1162.75 11.4c-80.64,-62.38 -58.02,-71.48 -101.09,-175.56l-2679.37 89.24z"/>
   <path class="fil80" d="M17988.88 13108.6c33.33,161.98 -16.16,83.62 101.09,174.35 384.51,0 631.73,-65.01 995.44,-25.72 383.14,41.36 625.14,-24.85 1026.72,-24.85 51.61,-61.69 50.58,17.75 50.58,-174.3 -370.31,0 -741.93,-10.26 -1113.27,-10.08 -362,0.17 -634.13,60.6 -1060.56,60.6z"/>
   <path class="fil19" d="M3631.52 6928.14l151.67 148.29c757.8,0 1335.22,-50.57 2072.68,-50.57 57.34,-81.85 96.34,-137.53 151.68,-198.82 -296.65,0 -364.81,38.44 -604.58,50.92 -190.79,9.97 -414.24,-0.4 -608.7,-0.4 -357.53,0 -893.71,-64.95 -1162.75,50.58z"/>
   <path class="fil85" d="M12175.17 13403.52c42.45,198.02 -36.48,49.26 101.1,210.56l1411.11 -41.81c168.8,-20.57 255.63,-89.19 408.85,8.02 145.89,-106.89 75.84,-41.76 151.62,-227.34 -377.35,0 -610.07,52.41 -1010.51,25.26 -351,-23.77 -667.75,25.31 -1062.17,25.31z"/>
   <path class="fil95" d="M6209.8 8867.53l-50.58 112.95 3184.91 -58.94c0,-243.54 6.18,-82.02 -50.58,-143.25l-3083.75 89.24z"/>
   <path class="fil96" d="M11619.06 8712.65c-40.21,54.36 -70.51,98.75 -101.1,143.83l3134.33 -105.63 -50.52 -118.96 -2982.71 80.76z"/>
   <polygon class="fil64" points="5805.35,19428.47 5957.03,19519.54 9950.76,19418.45 9950.76,19317.35 "/>
   <path class="fil27" d="M9596.9 16739.42c91.24,121.49 71.25,122.86 202.19,252.71 404.16,-81.73 979.92,-50.52 1466.1,-50.52l252.77 -252.77 -1921.06 50.58z"/>
   <path class="fil69" d="M12731.23 17126.39c-164.96,94.05 -209.24,88.44 -303.29,265.09 551.59,-114.56 1334.76,-50.52 1971.58,-50.52 -55.04,-95.26 -4.69,-23.03 -73.6,-94.97 -25.03,-26.06 -68.96,-65.81 -82.14,-75.61 -147.09,-109 -46.16,-70.97 -198.12,-82.94l-1314.43 38.95z"/>
   <path class="fil48" d="M901.57 13221.89l50.58 207.01c325.69,0 652.63,18.1 966.23,-29.27 197.78,-29.9 762.83,-60.2 954.83,-63.69 108.32,-87.35 67.53,-18.1 101.1,-164.62l-2072.74 50.57z"/>
   <polygon class="fil91" points="648.8,8860.03 648.8,9007.35 3479.85,8929.91 3429.27,8797.88 "/>
   <path class="fil24" d="M12427.94 7398.68l1314.37 -51.55c-54.13,-64.49 -94.74,-140.85 -142.11,-193.54 -82.02,-91.3 -108.66,-86.44 -211.76,-161.24l-657.21 0c-105.62,150.76 -255.29,252.43 -303.29,406.33z"/>
   <path class="fil95" d="M648.8 9007.35c-28.75,69.65 -14.2,64.84 -50.52,124.75l2982.66 -58.94c-5.55,-10.14 -13.51,-38.32 -16.32,-30.7 -2.75,7.62 -13.75,-25.09 -17.53,-30.3 -58.76,-80.82 -24.91,-35.51 -67.24,-82.25l-2831.05 77.44z"/>
   <path class="fil97" d="M15916.14 17270.28l140.85 112.26c72.91,46.97 97.89,53.79 162.5,81.91 564.25,0 974.3,-50.58 1567.19,-50.58l202.2 -194.11c-353.87,0 -707.91,1.08 -1061.78,-0.18 -415.44,-1.43 -615.39,50.7 -1010.96,50.7z"/>
   <path class="fil91" d="M11669.63 8576.1c-36.08,63.29 -31.27,49.89 -50.57,136.55l2982.71 -80.76 -50.57 -126.47 -2881.57 70.68z"/>
   <polygon class="fil91" points="17685.53,8424.42 17584.43,8576.1 20162.71,8515.84 20112.13,8358.78 "/>
   <path class="fil19" d="M9394.71 6776.47l151.61 148.29c724.46,0 1277.14,-50.52 1971.64,-50.52 60.2,-109.29 62.83,-83.68 101.1,-198.87 -244.53,0 -279.58,49.49 -554.12,52.58 -184.43,2.06 -372.99,-2 -558.06,-2 -344.64,0 -854.71,-60.03 -1112.17,50.52z"/>
   <path class="fil84" d="M598.28 9132.1l0 121.49 3083.76 -50.58c-31.39,-40.9 -63.75,-83.45 -101.1,-129.85l-2982.66 58.94z"/>
   <path class="fil98" d="M12276.27 13614.08c66.9,121.32 79.79,111.64 151.67,218.97l1516.62 -50.57c147.49,-108.03 61.75,-32.31 151.67,-202.19 -153.22,-97.21 -240.05,-28.59 -408.85,-8.02l-1411.11 41.81z"/>
   <path class="fil50" d="M16927.22 9839.77l3437.68 -80.7c-65.18,-43.36 -10.71,3.67 -50.52,-101.1l-3336.58 60.32c-76.58,73.83 -23.32,-25.72 -50.58,121.48z"/>
   <path class="fil88" d="M18342.74 13538.41c64.32,147.67 4.13,57.74 114.1,185.99 47.66,55.56 78.24,76.87 138.67,108.88 241.6,0 396.42,-74.11 602.63,-95.02 224.64,-22.86 529.19,-6.07 762.37,-6.07 69.77,-62.26 56.25,-108.55 101.1,-210.84l-1718.87 17.06z"/>
   <path class="fil52" d="M7018.62 17042.71c-158.66,3.55 -34.99,-42.62 -198.12,76.75 -11.29,8.25 -59.06,50.92 -82.08,75.67 -66.5,71.25 -19.82,2.06 -73.66,94.51l1769.39 -50.58c-47.77,-89.07 -24.81,-81.34 -110.38,-164.39 -135.75,-131.74 -61.57,-79.62 -192.97,-82.54 -200.3,18.33 -280.21,52.81 -555.77,51.38 -185.47,-0.97 -370.88,-0.8 -556.41,-0.8z"/>
   <path class="fil99" d="M11720.15 8455.41l-50.52 120.69 2881.57 -70.68c-32.48,-50.07 -59.52,-88.27 -101.1,-139.93l-2729.95 89.92z"/>
   <path class="fil75" d="M6513.08 19775.29c105.4,48.97 106.31,56.02 252.77,94.45l3134.39 -72.34 0 -123.21 -3387.16 101.1z"/>
   <path class="fil83" d="M12478.46 3976.47c71.03,112.95 26.35,61.17 109.4,141.76 89.53,86.95 62.95,57.4 143.37,94 219.38,0 438.75,-0.69 658.07,0.57 303.58,1.77 426.73,-46.17 656.36,-51.15 46.11,-15.29 71.77,-3.27 131.62,-52.41 153.62,-126.13 66.16,-48.23 121.15,-183.29 -513.91,91.82 -1224.04,50.52 -1819.97,50.52z"/>
   <polygon class="fil44" points="598.28,9253.59 598.28,9389.85 3682.04,9303.88 3682.04,9203.01 "/>
   <polygon class="fil100" points="11113.52,19792.88 11113.52,19898.78 14399.52,19810.23 14652.29,19696.59 "/>
   <path class="fil94" d="M17533.91 12450.53c30.07,147.32 -30.87,18.78 23.54,89.18 63.35,81.96 3.96,28.64 77.56,60.08 218.34,-118.68 978.83,-37.34 1314.42,-48.4 488.42,-16.15 827.51,-58.36 1314.37,-32.59 47.94,-51.72 50.58,74.98 50.58,-157.57l-2780.47 89.3z"/>
   <path class="fil90" d="M749.9 8357.58c-23.25,148.81 23.43,60.43 -50.52,144.28l2477.12 -50.57c-36.26,-116.51 11.4,-37.63 -101.09,-152.42l-2325.51 58.71z"/>
   <path class="fil63" d="M16320.58 3652.84c-119.42,110.72 -265.08,210.22 -404.44,273.11 184.78,-4.47 184.32,-40.33 399.86,-50.98 160.61,-7.9 346.71,0.34 510.12,0.4 320.19,0.17 640.38,0 960.56,0 -94.28,-49.95 -129.68,-158.95 -252.77,-273.1 -286.22,0 -325.74,49.31 -604.63,52.58 -201.22,2.29 -406.79,-2.01 -608.7,-2.01z"/>
   <path class="fil101" d="M12023.5 7893.8l-50.58 160.49 2274.93 -50.58c-30.76,-50.17 -57.85,-94.79 -101.1,-160.43l-2123.25 50.52z"/>
   <path class="fil42" d="M12731.23 4212.23c156.83,261.76 434.06,254.54 505.54,522.2 148.75,-39.69 637.62,-400.2 781.68,-544.26 6.07,-6.07 18.39,-18.73 27.21,-28.52 -229.63,4.98 -352.78,52.92 -656.36,51.15 -219.32,-1.26 -438.69,-0.57 -658.07,-0.57z"/>
   <path class="fil102" d="M11113.52 19898.78l0 84.95 2881.56 -30.48c181.86,-21.13 289.31,-63.69 404.44,-143.02l-3286 88.55z"/>
   <path class="fil80" d="M12074.02 13251.85c33.68,175.1 -32.48,21.31 23.6,94.28 68.5,89.24 -3.55,28.18 77.55,57.39 394.42,0 711.17,-49.08 1062.17,-25.31 400.44,27.15 633.16,-25.26 1010.51,-25.26 65.93,-7.16 50.58,113.29 50.58,-117.82 -336,-5.39 -720.34,-46.4 -1114.99,-35.57 -368.87,10.13 -646.84,71.99 -1109.42,52.29z"/>
   <path class="fil98" d="M7119.72 13765.75l101.15 179.57 1263.85 -11.17c7.91,-9.11 20.28,-35.23 23.77,-27.21 0,0 138.85,-135.29 178.43,-259.35 -152.94,0 -310.17,-4.36 -462.18,-2.58 -64.44,0.74 -163.94,11.46 -187.71,20.51 -427.81,162.38 -470.82,26.97 -917.31,100.23z"/>
   <polygon class="fil58" points="17078.89,9435.39 17078.89,9517.93 20314.38,9485.91 20314.38,9359.44 "/>
   <path class="fil69" d="M3176.5 17379.11l202.25 194.46 1263.85 0c121.09,-81.05 239.14,-158.04 353.87,-244.98l-1819.97 50.52z"/>
   <path class="fil2" d="M12630.13 14051.97c157.06,238.34 244.35,350.55 505.54,488.76 130.2,-87.18 190.34,-133.23 319.39,-236.79 134.37,-107.8 232.26,-130.08 287.25,-302.49 -447,0 -699.54,50.52 -1112.18,50.52z"/>
   <path class="fil40" d="M16219.49 17464.45c151.27,148.92 156.88,171.09 303.34,210.21l1061.6 0c165.25,-110.6 116.85,-84.2 202.25,-260.79 -592.89,0 -1002.94,50.58 -1567.19,50.58z"/>
   <path class="fil103" d="M6765.85 19869.74c130.89,73.26 222.02,127.96 404.45,104.99l2729.94 -82.25 0 -95.08 -3134.39 72.34z"/>
   <path class="fil102" d="M7170.3 19974.73c79.96,110.9 -104.59,38.44 151.67,101.56l2578.27 -52.07 0 -131.74 -2729.94 82.25z"/>
   <path class="fil83" d="M7119.72 4363.84l859.46 0c45.14,-15 72.98,-2.75 132.32,-50.63 146.06,-117.82 68.62,-57.85 120.45,-185.07l-1415.52 0c64.38,146.63 -57.56,42.04 128.08,178.71 103.61,76.29 59.45,44.96 175.21,56.99z"/>
   <path class="fil52" d="M9799.09 16992.13l202.25 196.41 1011.08 -11.63 252.77 -235.3c-486.18,0 -1061.94,-31.21 -1466.1,50.52z"/>
   <path class="fil85" d="M6968.1 13555.14c43.77,204.2 4.53,143.71 151.62,210.61 446.49,-73.26 489.5,62.15 917.31,-100.23 23.77,-9.05 123.27,-19.77 187.71,-20.51 152.01,-1.78 309.24,2.58 462.18,2.58 119.59,-98.06 60.88,-45.94 101.09,-142.97 -373,0 -631.15,43.88 -957.46,48.74 -325.86,4.87 -536.76,-68.62 -862.45,1.78z"/>
   <path class="fil98" d="M9900.24 13883.57l1314.37 -39.35c-39.98,-166.1 -10.88,-78.64 -101.09,-213.36l-1011.08 -33.79 -202.2 286.5z"/>
   <path class="fil79" d="M9445.22 16612.89l151.68 126.53 1921.06 -50.58 151.67 -126.47c-387.6,0 -775.2,0.17 -1162.81,0 -422.6,-0.23 -699.19,50.52 -1061.6,50.52z"/>
   <path class="fil90" d="M18089.97 7906.4c-102.24,88.15 -65.18,25.03 -101.09,140.5 699.94,0 1432.87,-14.32 2072.73,-50.52 -66.16,-75.03 -26.81,0.58 -50.58,-127.96l-1921.06 37.98z"/>
   <path class="fil26" d="M12427.94 13833.05l202.19 218.92c412.64,0 665.18,-50.52 1112.18,-50.52l202.25 -218.97 -1516.62 50.57z"/>
   <path class="fil74" d="M4137.06 13925.73l1567.2 -16.72c-13.92,-53.85 -32.71,-121.78 -50.58,-176.82l-1364.95 -17.01c-127.1,121.48 -69.53,70.68 -151.67,210.55z"/>
   <path class="fil83" d="M9900.24 4077.56c-116.33,152.88 -107.05,85.46 -151.67,252.49 254.37,0 348.37,-52.93 656.35,-51.32 236.22,1.2 472.38,0.8 708.6,0.8l-202.2 -252.49c-413.78,0 -622.16,50.52 -1011.08,50.52z"/>
   <path class="fil24" d="M18999.95 6916.63l-252.77 307.47 1061.66 -27.61c-61,-105.74 -72.69,-184.84 -151.67,-330.38 -111.81,0 -250.2,-7.22 -358.8,0.46 -190.85,13.46 -143.94,34.94 -298.42,50.06z"/>
   <path class="fil88" d="M15461.18 13656.24l-101.1 177.04 1466.04 0c-64.72,-50.11 -126.01,-152.41 -202.19,-244.35l-1162.75 67.31z"/>
   <path class="fil104" d="M7321.97 20076.29c152.19,54.47 282.67,121.09 454.96,103.39l2123.31 -39.58 0 -115.88 -2578.27 52.07z"/>
   <path class="fil30" d="M16320.58 3652.84c201.91,0 407.48,4.3 608.7,2.01 278.89,-3.27 318.41,-52.58 604.63,-52.58l-455.02 -384.23c-169.54,39.47 -261.7,119.2 -402.26,204.43 -120.8,73.2 -232.15,158.49 -356.05,230.37z"/>
   <path class="fil105" d="M17786.68 8305.06l2325.45 -55.11 -50.52 -128.53 -2173.83 67.02c-8.02,6.64 -21.54,6.47 -24.06,19.7 -2.58,13.18 -19.76,17.01 -22.97,20.85 -0.91,1.15 -52.35,73.26 -54.07,76.07z"/>
   <polygon class="fil99" points="17786.68,8305.06 17685.53,8424.42 20112.13,8358.78 20112.13,8249.95 "/>
   <path class="fil101" d="M18191.07 7770.02l-101.1 136.38 1921.06 -37.98c-17.93,-96.97 -11.85,-83.8 -50.52,-148.92l-1769.44 50.52z"/>
   <path class="fil93" d="M17988.88 8046.9c-91.13,84.14 -62.67,57.28 -101.1,141.54l2173.83 -67.02 0 -125.04c-639.86,36.2 -1372.79,50.52 -2072.73,50.52z"/>
   <path class="fil88" d="M1154.34 13987.88c15.3,87.18 12.49,107.91 31.97,157.97 57.67,148.07 -11.75,65.36 69.13,91.82l707.79 0c128.48,-3.15 -36.77,117.13 166.39,-80.53 107.4,-104.54 80.88,-86.61 136.96,-202.02 -365.44,21.99 -685.17,36.48 -1112.24,32.76z"/>
   <path class="fil52" d="M13034.58 16891.04c-190.57,66.15 -229,113.41 -303.35,235.35l1314.43 -38.95c-117.25,-218.51 -119.09,-114.9 -278.21,-272.07 -86.43,74.46 51.33,37.17 -174.41,77.21 -10.31,1.83 -181.28,0.8 -204.14,0.52 -118.39,-1.66 -235.87,-2.06 -354.32,-2.06z"/>
   <path class="fil106" d="M11113.52 20302.88l1921.06 -34.82c66.04,-9.51 123.78,-15.12 183.52,-33.63 15.69,-4.86 61.51,-21.76 75.49,-28 77.04,-34.49 49.72,-25.44 94.85,-59.52l-2274.92 42.68 0 113.29z"/>
   <path class="fil12" d="M3277.66 3723.47l1314.36 0 -140.5 -110.83c-84.43,-61.12 -69.31,-39.41 -162.79,-116.51l-808.88 0 -202.19 227.34z"/>
   <path class="fil27" d="M7018.62 17042.71c185.53,0 370.94,-0.17 556.41,0.8 275.56,1.43 355.47,-33.05 555.77,-51.38 -77.38,-148.58 -77.27,-203.11 -252.77,-202.19l-505.54 0c-154.08,3.44 -41.13,-5.73 -109.75,20.1 -43.7,16.5 -64.09,25.55 -96.28,48.18 -134.49,94.68 -80.93,52.35 -147.84,184.49z"/>
   <polygon class="fil107" points="6765.85,7819.05 6715.33,7934.87 8788.01,7884.29 8737.49,7768.53 "/>
   <path class="fil74" d="M15461.18 13656.24l1162.75 -67.31c-44.91,-99.49 -64.78,-98.06 -151.67,-195.77l-909.99 17.75c-36.08,63.93 -16.15,17.82 -54.81,111.01 -30.07,72.46 -21.71,53.95 -46.28,134.32z"/>
   <path class="fil107" d="M851.05 7970.72l0 115.76 2022.16 -50.52c-40.49,-87.92 -9.74,-65.41 -101.09,-115.81l-1921.07 50.57z"/>
   <path class="fil19" d="M7220.87 7219.92c259.48,0 316.47,-23.95 502.45,-44.28 166.74,-18.21 386.63,-6.24 559.15,-6.24 -213.36,-147.44 59,-68.91 -454.96,-413.04l-606.64 463.56z"/>
   <path class="fil2" d="M18898.86 14153.36c63,124.35 193.71,212.84 303.34,286.27l556.06 -50.57c30.3,-129.97 54.93,-164.62 101.1,-286.28 -369.39,0 -586.93,50.58 -960.5,50.58z"/>
   <polygon class="fil26" points="7423.07,14153.07 8282.47,14153.07 8484.72,13934.15 7220.87,13945.32 "/>
   <path class="fil108" d="M11164.09 20434.79l1213.27 -15.75c229.18,-26.06 494.2,-79.21 657.22,-150.98l-1921.06 34.82 50.57 131.91z"/>
   <path class="fil26" d="M1963.23 14237.67l-707.79 0c41.7,264.11 103.22,297.1 151.67,505.25 146.35,-39.06 342.18,-187.36 444.08,-311.42 114.45,-139.24 48.06,-36.77 112.04,-193.83z"/>
   <path class="fil63" d="M9900.24 4077.56c388.92,0 597.3,-50.52 1011.08,-50.52l-455.02 -404.67c-325.4,217.89 -451.47,399.75 -556.06,455.19z"/>
   <path class="fil109" d="M12225.69 7677.74c-89.3,48.4 -62.66,-6.01 -101.1,114.56l1971.64 -50.52 -151.67 -114.61 -1718.87 50.57z"/>
   <path class="fil73" d="M7776.93 20179.68c88.04,83.51 -98.57,37.63 202.25,98.8l1921.06 -38.09 0 -100.29 -2123.31 39.58z"/>
   <path class="fil106" d="M8383.57 20396.25l1516.67 -42.56 0 -113.3 -1921.06 38.09c142.86,44.22 234.21,57.11 404.39,117.77z"/>
   <path class="fil110" d="M12124.59 7792.3l-101.09 101.5 2123.25 -50.52c-55.21,-45.77 -13,-8.37 -50.52,-101.5l-1971.64 50.52z"/>
   <path class="fil85" d="M10153.01 13416.07c-39.98,83.34 -32.76,66.5 -50.57,181l1011.08 33.79 -151.68 -261.13 -808.83 46.34z"/>
   <path class="fil80" d="M15562.27 13410.91l909.99 -17.75c-38.95,-95.43 -87.18,-142 -151.68,-233.99l-657.21 -8.42c-55.27,105.63 -71.37,153.97 -101.1,260.16z"/>
   <polygon class="fil97" points="3580.94,17767.74 4339.25,17767.74 4642.6,17573.57 3378.75,17573.57 "/>
   <polygon class="fil111" points="6866.95,7716.75 6765.85,7819.05 8737.49,7768.53 8636.34,7666.23 "/>
   <polygon class="fil112" points="18544.99,7414.66 18393.32,7551.9 19909.94,7518.68 19859.36,7385.34 "/>
   <path class="fil56" d="M10254.11 13176.19c-47.08,141.36 -29.56,124.63 -101.1,239.88l808.83 -46.34c-7.5,-84.31 9.22,-40.73 -22.91,-121.83 -59.51,-150.53 -35.8,-75.15 -78.18,-127.1 -108.6,0 -254.89,-8.42 -358.85,-0.35 -223.16,17.36 -110.89,33.45 -247.79,55.74z"/>
   <path class="fil42" d="M7979.18 4363.84l-859.46 0c97.66,177.11 76.52,113.53 238.45,233.47 101.21,74.98 171.66,123.78 267.09,187.7 77.15,-288.85 211.3,-162.5 353.92,-421.17z"/>
   <path class="fil80" d="M4490.93 13437.03c-71.6,91.53 -48.46,67.36 -101.1,168.4l1162.75 -25.14c-13.63,-28.36 -33.85,-86.32 -44.73,-104.71 -51.27,-86.32 -18.85,-35.97 -56.42,-72.34l-960.5 33.79z"/>
   <path class="fil113" d="M15309.5 7363.17c0,242.29 -15.57,120.34 50.58,122.06l1364.95 -50.52c66.15,-1.78 50.57,120.23 50.57,-122.06 -559.49,0 -927.28,50.52 -1466.1,50.52z"/>
   <path class="fil2" d="M8282.47 14153.07l-859.4 0c63.23,74.17 125.15,116.05 207.92,178.99 136.21,103.68 98.92,111.81 297.62,158.09 157.8,-83.45 294.64,-151.38 353.86,-337.08z"/>
   <path class="fil111" d="M901.57 7868.42l-50.52 102.3 1921.07 -50.57c-57.8,-103.11 -38.15,-65.53 -101.16,-87.93l-1769.39 36.2z"/>
   <path class="fil114" d="M6715.33 7934.87c-64.43,18.78 -50.57,-88.96 -50.57,85.17l2173.83 -60.03c0,-160.84 13.46,-56.99 -50.58,-75.72l-2072.68 50.58z"/>
   <polygon class="fil110" points="18292.22,7666.23 18191.07,7770.02 19960.51,7719.5 19909.94,7615.65 "/>
   <path class="fil56" d="M15663.37 13150.75l657.21 8.42c-47.54,-149.03 14.5,-5.15 -77.61,-158.83 -38.72,-64.55 -24.06,-42.96 -59,-88.61 -52.81,-68.85 -25.6,-37.46 -65.58,-71.37l-404.44 0c-16.96,172.41 -45.14,115.7 -50.58,310.39z"/>
   <path class="fil114" d="M851.05 8086.48c-64.43,18.85 -50.57,-88.95 -50.57,85.23l2123.25 -60.08c0,-160.78 13.52,-57 -50.52,-75.67l-2022.16 50.52z"/>
   <path class="fil69" d="M10254.11 17421.95c280.32,0 336.11,-45.65 556.06,-50.58l202.25 -194.46 -1011.08 11.63 252.77 233.41z"/>
   <path class="fil115" d="M9900.24 7462.83c33.68,142.46 1.15,87.53 101.1,140.28l1061.6 -29.61c88.55,-71.37 66.79,-24.98 101.15,-138.79l-1263.85 28.12z"/>
   <path class="fil92" d="M15511.75 7940.48l808.83 -9.68c106.6,-7.45 -2.29,53.04 78.25,-41.53 54.18,-63.58 43.58,-67.36 73.43,-140.85l-1011.08 18.91c30.13,125.78 13.4,61.74 50.57,173.15z"/>
   <path class="fil111" d="M12276.27 7579.51l-50.58 98.23 1718.87 -50.57c0,-190.05 14.38,-77.33 -50.58,-98.24l-1617.71 50.58z"/>
   <path class="fil85" d="M4389.83 13605.43l-101.1 109.75 1364.95 17.01c-71.71,-55.51 -53.16,-61.23 -101.1,-151.9l-1162.75 25.14z"/>
   <polygon class="fil116" points="18393.32,7551.9 18292.22,7666.23 19909.94,7615.65 19909.94,7518.68 "/>
   <path class="fil76" d="M4592.02 13272.41l808.89 -41.35c-10.83,-132.09 -9.97,-125.15 -50.58,-213.99l-556.06 0c-99.89,82.71 -131.45,155.85 -202.25,255.34z"/>
   <polygon class="fil113" points="6866.95,7716.75 8636.34,7666.23 8636.34,7565.36 6917.53,7630.03 "/>
   <polygon class="fil113" points="901.57,7868.42 2670.96,7832.22 2670.96,7738.57 901.57,7781.7 "/>
   <path class="fil90" d="M15612.85 8157.62l657.21 -43.53c47.66,-74.86 33.91,-54.41 50.52,-183.29l-808.83 9.68c8.6,23.88 31.34,104.76 44.68,132.14 39.81,81.45 25.89,49.15 56.42,85z"/>
   <path class="fil117" d="M4541.5 8010.19l128.02 172.75c3.95,3.95 15.75,12.89 23.6,19.36l606.69 0c28.24,-98.41 39.24,-98.23 50.52,-223.9l-808.83 31.79z"/>
   <path class="fil56" d="M4592.02 13272.41l-101.09 164.62 960.5 -33.79c-16.9,-117.31 -6.42,-100.13 -50.52,-172.18l-808.89 41.35z"/>
   <path class="fil108" d="M8939.69 20500.15l960.55 -19.7 0 -126.76 -1516.67 42.56c190.91,19.13 369.79,39 556.12,103.9z"/>
   <path class="fil27" d="M13034.58 16891.04c118.45,0 235.93,0.4 354.32,2.06 22.86,0.28 193.83,1.31 204.14,-0.52 225.74,-40.04 87.98,-2.75 174.41,-77.21l-429.53 -303.29c-77.55,290.35 -165.65,128.19 -303.34,378.96z"/>
   <polygon class="fil118" points="952.15,7701.97 901.57,7781.7 2670.96,7738.57 2569.87,7651.45 "/>
   <path class="fil54" d="M16725.03 17836.36l758.31 -20.39 101.09 -141.31 -1061.6 0c107.11,146.18 41.42,57.62 202.2,161.7z"/>
   <path class="fil113" d="M12276.27 7579.51l1617.71 -50.58 -50.52 -79.27 -1466.1 28.75c-84.31,29.9 -57.1,7.28 -101.09,101.1z"/>
   <path class="fil111" d="M15360.08 7485.23l0 93.99 1263.85 -29.21c96.17,-33.1 56.93,-3.95 101.1,-115.3l-1364.95 50.52z"/>
   <path class="fil118" d="M6917.53 7630.03l1718.81 -64.67 -101.1 -65.58 -1516.62 27.61c-83.85,31.73 -57.45,9.68 -101.09,102.64z"/>
   <path class="fil111" d="M10001.34 7603.11l50.52 125.15 960.56 -10.31c36.94,-65.98 31.79,-52.75 50.52,-144.45l-1061.6 29.61z"/>
   <polygon class="fil118" points="12427.94,7398.68 12377.36,7478.41 13843.46,7449.66 13742.31,7347.13 "/>
   <path class="fil94" d="M4794.27 13017.07l556.06 0c-12.26,-138.33 -24.97,-135.24 -50.52,-262.28l-404.44 4.18c-44.56,96.63 -72.4,143.25 -101.1,258.1z"/>
   <path class="fil109" d="M10102.44 7867.91l808.88 -9.34c7.96,-7.5 21.37,-29.73 24.06,-22.39 2.75,7.44 19.47,-19.31 22.91,-24.41 36.72,-53.44 26.41,-38.72 54.13,-93.82l-960.56 10.31c18.96,89.01 13.98,75.95 50.58,139.65z"/>
   <path class="fil19" d="M18999.95 6916.63c154.48,-15.12 107.57,-36.6 298.42,-50.06 108.6,-7.68 246.99,-0.46 358.8,-0.46 -24.4,-191.2 -81.85,-131.23 -101.1,-362.52 -232.38,62.09 -373.23,286.74 -556.12,413.04z"/>
   <path class="fil116" d="M15410.6 7666.46c0,116.45 -36.31,100.87 50.58,100.87l1011.08 -18.91c101.09,-29.09 55.96,3.1 101.09,-115.76l-1162.75 33.8z"/>
   <path class="fil78" d="M15612.85 8157.62c0,29.1 -1.37,91.07 3.32,106.71 37.75,124.7 -45.13,48.63 47.2,89.99l455.02 -8.37c57.28,-72.74 102.07,-151.15 151.67,-231.86l-657.21 43.53z"/>
   <path class="fil11" d="M3479.85 3496.13l808.88 0c-157.97,-80.25 -327.46,-230.54 -505.54,-278.09l-303.34 278.09z"/>
   <polygon class="fil113" points="18544.99,7414.66 19859.36,7385.34 19808.84,7297.99 18646.09,7312.36 "/>
   <path class="fil118" d="M4288.73 7599.9c32.94,71.26 4.41,48.06 50.52,102.47l1162.76 -36.14 50.57 -88.27 -1263.85 21.94z"/>
   <polygon class="fil40" points="4339.25,17767.74 3580.94,17767.74 3843.05,18070.23 "/>
   <path class="fil2" d="M19202.2 14439.63c93.31,139.3 220.7,254.21 404.39,303.29 58.6,-122.06 86.26,-230.26 151.67,-353.86l-556.06 50.57z"/>
   <polygon class="fil111" points="4440.35,7790.01 4440.35,7896.89 5400.91,7883.6 5451.43,7768.53 "/>
   <path class="fil119" d="M12377.36 20419.04l-1213.27 15.75 0 171.67c200.82,-96.4 955.98,-71.94 1213.27,-187.42z"/>
   <path class="fil120" d="M4794.27 8395.44l454.97 0c42.04,-126.01 20.1,-41.35 50.57,-193.14l-606.69 0c38.09,170.29 -22.91,76.81 101.15,193.14z"/>
   <path class="fil113" d="M4339.25 7702.37c54.99,117.25 -5.61,71.2 101.1,87.64l1011.08 -21.48 50.58 -102.3 -1162.76 36.14z"/>
   <path class="fil121" d="M1204.92 6871.84l556.06 0c-89.01,-157.46 -27.38,-76.93 -179,-189.94 -134.77,-100.58 -63.69,-84.54 -225.39,-127.73l-151.67 317.67z"/>
   <polygon class="fil118" points="18646.09,7312.36 19808.84,7297.99 19808.84,7196.49 18747.18,7224.1 "/>
   <path class="fil107" d="M15410.6 7666.46l1162.75 -33.8c62.55,-34.71 12.72,-1.66 50.58,-82.65l-1263.85 29.21 50.52 87.24z"/>
   <path class="fil117" d="M10203.53 7999.93l657.22 0c64.43,-79.1 28.52,-8.93 50.57,-141.36l-808.88 9.34c139.01,281.98 -128.25,-133.81 33.91,66.21 56.24,69.42 22.28,31.16 67.18,65.81z"/>
   <path class="fil19" d="M12731.23 6992.35l657.21 0c-131.85,-154.54 -120.17,-139.07 -303.29,-235.99 -214.56,50.01 -232.37,93.48 -353.92,235.99z"/>
   <polygon class="fil109" points="4541.5,8010.19 5350.33,7978.4 5400.91,7883.6 4440.35,7896.89 "/>
   <path class="fil72" d="M4895.37 12758.97l404.44 -4.18c0,-177.45 0.4,-177.91 -50.57,-297.96l-202.2 11.39c-52.75,99.73 -93.19,196.53 -151.67,290.75z"/>
   <path class="fil76" d="M10254.11 13176.19c136.9,-22.29 24.63,-38.38 247.79,-55.74 103.96,-8.07 250.25,0.35 358.85,0.35l-50.58 -172.24 -454.96 0c-35.63,93.02 -39.75,100.81 -50.58,227.34l-50.52 0.29z"/>
   <path class="fil79" d="M7372.49 16789.94l505.54 0c-71.2,-140.62 -110.72,-124.75 -151.62,-277.86 -237.19,63.29 -288.39,148.52 -353.92,277.86z"/>
   <path class="fil46" d="M15713.95 12840.36l404.44 0c-31.45,-158.2 -16.04,-112.44 -101.1,-245.61l-252.77 0 -50.57 245.61z"/>
   <path class="fil97" d="M10254.11 17421.95c223.96,334.39 366.3,232.84 556.06,-50.58 -219.95,4.93 -275.74,50.58 -556.06,50.58z"/>
   <path class="fil46" d="M10355.21 12948.56l454.96 0 -50.52 -177.05 -353.87 -20.1c-29.55,147.38 -11.17,72.8 -50.57,197.15z"/>
   <path class="fil71" d="M10709.07 8407.64l-404.44 0c35.91,86.66 40.04,95.31 50.58,218.98l303.34 0c10.54,-124.07 15.41,-131.8 50.52,-218.98z"/>
   <path class="fil90" d="M10304.63 8249.1l455.02 0c73.03,-82.89 26.75,6.47 50.52,-140.51l-606.64 12.55c129.57,261.24 -121.83,-119.89 33.91,65.58 61.23,72.97 16.9,26.52 67.19,62.38z"/>
   <path class="fil101" d="M10203.53 8121.14l606.64 -12.55c43.02,-53.21 15.69,-28.24 50.58,-108.66l-657.22 0 0 121.21z"/>
   <path class="fil93" d="M4895.37 8559.32l303.29 0c90.67,30.07 50.58,-44.8 50.58,-163.88l-454.97 0c5.62,15.24 12.43,23.2 16.33,45.94 3.55,20.96 12.66,34.02 17.52,41.41 54.3,82.08 19.48,37.06 67.25,76.53z"/>
   <polygon class="fil93" points="10304.63,8407.64 10709.07,8407.64 10759.65,8249.1 10304.63,8249.1 "/>
   <path class="fil99" d="M15663.37 8513.89l353.92 0c7.91,-7.21 21.43,-28.01 24.06,-21.48 2.81,6.99 19.3,-19.53 22.91,-25.89 43.76,-77.49 14.21,-13.69 54.13,-120.57l-455.02 8.37 0 159.57z"/>
   <path class="fil122" d="M15663.37 8703.77l252.77 0c62.61,-22.62 50.58,108.43 50.58,-77.15 69.99,-58.48 23.31,2.92 50.57,-112.73l-353.92 0 0 189.88z"/>
   <path class="fil118" d="M15258.93 7325.19c0,156.15 -13.18,62.72 50.57,37.98 538.82,0 906.61,-50.52 1466.1,-50.52 82.48,14.95 42.73,44.79 101.1,-37.98l-1617.77 50.52z"/>
   <path class="fil71" d="M4996.47 8760.59l202.19 0 0 -201.27 -303.29 0c0,206.54 -11.97,65.64 50.52,117.87 0,204.43 -9.51,24.98 50.58,83.4z"/>
   <path class="fil123" d="M16725.03 17836.36c94.22,68.27 71.42,61.86 202.19,85.74l353.92 -2.63c88.84,-38.72 116.74,-49.32 202.2,-103.5l-758.31 20.39z"/>
   <path class="fil67" d="M15764.52 12594.75l252.77 0c-50.86,-151.56 -83.91,-242 -202.25,-328.72 -70.73,147.49 -50.52,106.02 -50.52,328.72z"/>
   <path class="fil84" d="M15916.14 8703.77l-252.77 0 59.51 274.59c176.59,-47.42 153.39,-64.49 193.26,-274.59z"/>
   <path class="fil119" d="M9900.24 20480.45l-960.55 19.7c355.35,23.14 560.12,55.73 960.55,55.73l0 -75.43z"/>
   <path class="fil124" d="M5198.66 8760.59l-202.19 0c38.89,194.86 22.16,175.56 151.67,270.41 67.02,-139.7 46.51,-65.18 50.52,-270.41z"/>
   <path class="fil47" d="M17281.14 17919.47l-353.92 2.63c89.12,130.2 61.97,112.5 252.77,156.95l101.15 -159.58z"/>
   <path class="fil94" d="M10405.78 12751.41l353.87 20.1 -108.43 -145.54c-107.91,20.79 -108.94,33.11 -245.44,44.45l0 80.99z"/>
   <path class="fil87" d="M5047.04 12468.22l202.2 -11.39 0 -190.8c-211.13,56.42 -107.23,22.68 -202.2,202.19z"/>
  </g>
 </g>
</svg>
