<svg viewBox="0 0 842 306" fill="none" xmlns="http://www.w3.org/2000/svg">
<g id="Logo">
<path id="Onda" fill-rule="evenodd" clip-rule="evenodd" d="M669.5 305V220C658.833 201.667 627.2 176 586 220L608 235C621.167 223.5 646.6 208.9 643 242.5C624 237.833 586 238.2 586 277C586 315.8 627 306.167 647.5 296.5V305H669.5ZM321 197C333.833 196.667 360.2 201.3 363 222.5C365.8 243.7 364.167 269.667 363 280C361.333 288.333 350.6 305 321 305C291.4 305 279.667 288.333 277.5 280C276.667 266.667 275.5 236.5 277.5 222.5C280 205 302 197 321 197ZM383 197V305H408V253.5L443 305H466.5V197H441V253.5L402 197H383ZM488 305V197C503.167 197 537 197.5 551 199.5C565 201.5 569.5 214 570 220C569.833 232.333 569.6 261.4 570 279C570.4 296.6 557.5 303.667 551 305H488ZM321.71 221.009C326.806 220.824 337.274 223.398 338.386 235.174C339.498 246.95 338.849 261.373 338.386 267.113C337.724 271.742 333.463 281 321.71 281C309.957 281 305.299 271.742 304.438 267.113C304.108 259.707 303.644 242.95 304.438 235.174C305.431 225.453 314.166 221.009 321.71 221.009ZM509 281V224C515.288 224 529.315 224.264 535.119 225.319C540.923 226.375 542.789 232.972 542.996 236.139C542.927 242.648 542.83 257.989 542.996 267.278C543.162 276.567 537.814 280.296 535.119 281H509ZM644.647 265.795C644.383 271.289 644.081 277.586 632.065 280C627.875 280.842 620.117 278.366 618 274.5C615.975 270.802 616.5 265 619 262H645C644.773 263.173 644.711 264.46 644.647 265.795Z" fill="#9F4BE1"/>
<path id="Net" fill-rule="evenodd" clip-rule="evenodd" d="M227 179H242.5V198.5H264V224H242.5V264.5C244.167 270.167 250.5 281.2 262.5 280V305C246.833 305 215.5 296.9 215.5 264.5V222.761L199.5 222V208.5L227 179ZM0 302V198.5H27.5V202.5C67.9 189.3 83 215.333 85.5 230V302H59V230C47 216.8 33 224.5 27.5 230V302H0ZM188.5 278.5L165.5 264.5C159.9 277.7 151.167 279.333 147.5 278.5C127.9 278.5 129.333 263.5 132.5 256H188.5V230C186.833 219.5 176.3 198.5 147.5 198.5C118.7 198.5 106.167 219.5 103.5 230V278.5C103.5 285 116 305 147.5 305C172.7 305 185.333 287.333 188.5 278.5ZM131 234C132.333 229.5 137.4 220.5 147 220.5C156.6 220.5 161 229.5 162 234H131Z" fill="#C184F1"/>
<path id="Ico" fill-rule="evenodd" clip-rule="evenodd" d="M638.176 12.4021C639.313 11.0875 640 9.37402 640 7.5C640 3.35786 636.642 0 632.5 0C628.358 0 625 3.35786 625 7.5C625 11.6421 628.358 15 632.5 15C632.952 15 633.395 14.96 633.825 14.8834L666.874 82.0951C661.5 87.1656 656.748 93.8403 652.619 100.834L624.961 80.7427C624.987 80.4987 625 80.2509 625 80C625 76.134 621.866 73 618 73C614.134 73 611 76.134 611 80C611 83.866 614.134 87 618 87C619.781 87 621.407 86.3346 622.643 85.2387L650.133 105.208C648.003 109.098 646.06 113.003 644.305 116.711L581.862 90.3879C581.953 89.9393 582 89.4752 582 89C582 85.134 578.866 82 575 82C571.134 82 568 85.134 568 89C568 92.866 571.134 96 575 96C576.541 96 577.965 95.5022 579.122 94.6586L642.199 121.249C641.209 123.422 640.29 125.483 639.444 127.384L639.444 127.384L639.444 127.384C639.119 128.114 638.804 128.82 638.5 129.5C637.217 132.368 635.709 135.749 634.513 139.315L532.012 145.412C530.79 143.368 528.555 142 526 142C522.134 142 519 145.134 519 149C519 152.866 522.134 156 526 156C529.397 156 532.229 153.58 532.866 150.37L633.093 144.408C630.267 157.566 634.666 171.135 671 170C679.2 169.744 686.372 169.014 692.632 167.928L685.644 194.009C681.943 194.194 679 197.253 679 201C679 204.866 682.134 208 686 208C689.866 208 693 204.866 693 201C693 198.803 691.988 196.843 690.405 195.559L698.1 166.841C702.759 165.788 706.836 164.522 710.392 163.108L734.524 243.618C732.982 244.902 732 246.836 732 249C732 252.866 735.134 256 739 256C742.866 256 746 252.866 746 249C746 245.221 743.006 242.142 739.26 242.005L714.997 161.058C729.19 153.988 733 144.401 732.5 138.5C733.484 122.017 731.246 109.431 727.215 99.9171L829.689 62.5599C830.973 64.0538 832.876 65 835 65C838.866 65 842 61.866 842 58C842 54.134 838.866 51 835 51C831.183 51 828.08 54.055 828.001 57.8531L725.043 95.3871C721.116 88.1131 716.052 82.9854 710.745 79.4895L748.725 18.7886C749.294 18.9268 749.888 19 750.5 19C754.642 19 758 15.6421 758 11.5C758 7.35786 754.642 4 750.5 4C746.358 4 743 7.35786 743 11.5C743 13.2118 743.574 14.7897 744.539 16.052L706.403 77.0014C702.613 75.1316 698.822 74.0043 695.343 73.4388L701.9 53.925C702.26 53.9745 702.627 54 703 54C707.418 54 711 50.4183 711 46C711 41.5817 707.418 38 703 38C698.582 38 695 41.5817 695 46C695 48.226 695.909 50.2397 697.376 51.69L690.22 72.9872C689.804 72.983 689.397 72.9874 689 73C682.353 72.367 676.291 74.6768 670.811 78.7697L638.176 12.4021ZM665.832 111.614C671.328 99.8059 678.968 83.3929 689 94.5C700.2 106.9 697 131.5 689 140.5C678 152 644 156.7 664 115.5C664.581 114.303 665.19 112.994 665.829 111.622L665.832 111.616L665.832 111.614Z" fill="#9F4BE1"/>
</g>
</svg>
