<svg width="500" height="500" viewBox="0 0 500 500" fill="none" xmlns="http://www.w3.org/2000/svg">
<g clip-path="url(#clip0)">
<path d="M131.052 336.158L47.21 395C-21.1061 317.577 -39.7376 97.6945 162.105 17.1744C316.091 -44.2546 435.368 76.016 454 113.179L367.053 172.021C363.947 168.924 354.631 156.536 345.316 147.245C327.613 129.59 239.736 63.6283 149.684 147.245C78.8681 213 107.245 300.027 131.052 336.158Z" fill="#b01ba5"/>
<path d="M165.852 370.498L79.2982 435.475C77.2374 435.475 84.6176 447.686 141.122 478.794C202.946 512.83 270.953 503.547 335.868 488.076C431.695 438.569 450.242 410.722 484.246 333.368C517.325 258.116 490.428 169.377 474.972 157L252.405 314.803H382.236C369.871 345.744 332.777 395.251 264.77 401.439C210.365 406.39 176.156 382.874 165.852 370.498Z" fill="#b01ba5"/>
</g>
<defs>
<clipPath id="clip0">
<rect width="500" height="500" fill="white"/>
</clipPath>
</defs>
</svg>
